<?xml version="1.0" encoding="utf-8"?>
<!-- Generator: Adobe Illustrator 19.2.1, SVG Export Plug-In . SVG Version: 6.00 Build 0)  -->
<svg version="1.1" id="Layer_1" xmlns="http://www.w3.org/2000/svg" xmlns:xlink="http://www.w3.org/1999/xlink" x="0px" y="0px"
	 viewBox="0 0 134 150" style="enable-background:new 0 0 134 150;" xml:space="preserve">
<style type="text/css">
	.st0{fill:#7C634F;}
	.st1{fill:#D0D2D3;}
	.st2{fill:#6ECAF3;}
	.st3{fill:#CED0D1;}
	.st4{fill:#F6CC78;}
	.st5{fill:#BBBDBF;}
	.st6{fill:#58595B;}
	.st7{fill:#FFB4D3;}
	.st8{fill:#A6A8AB;}
	.st9{opacity:0.2;fill:#FFFFFF;}
	.st10{fill:#4F3E31;}
	.st11{fill:#EBEBEC;}
	.st12{fill:#E0E1E2;}
	.st13{fill:#D1D2D4;}
	.st14{fill:#534235;}
	.st15{fill:#4A3A2E;}
	.st16{fill:#F8C1D9;}
	.st17{fill:#FFFFFF;}
	.st18{fill:#E4E5E6;}
	.st19{fill:#836854;}
	.st20{fill:#745D4A;}
	.st21{fill:#F3A5C8;}
	.st22{fill:#66493C;}
	.st23{fill:#6F5043;}
	.st24{fill:#4C3C34;}
	.st25{fill:#F4F4F6;}
	.st26{fill:#F8F8F9;}
	.st27{fill:#EBEBEE;}
	.st28{fill:#DFDFE0;}
	.st29{fill:#86888A;}
	.st30{fill:#A54B94;}
	.st31{fill:#D4BC9B;}
	.st32{fill:#A55498;}
	.st33{fill:#D3A561;}
	.st34{fill:#C7B192;}
	.st35{fill:#DCC6A9;}
	.st36{fill:#D3AD72;}
	.st37{fill:#CAB4FF;}
	.st38{fill:#C6A9FF;}
	.st39{fill:#765C60;}
	.st40{fill:#864481;}
	.st41{fill:#AE8950;}
	.st42{fill:#AA8CE1;}
	.st43{fill:#846255;}
	.st44{fill:#6AAB98;}
	.st45{fill:#F5887A;}
	.st46{fill:#8C685B;}
	.st47{fill:#77584D;}
	.st48{fill:#F69788;}
	.st49{fill:#E07D70;}
	.st50{fill:#7CB0A7;}
	.st51{fill:#619E8D;}
	.st52{fill:#70524E;}
	.st53{fill:#A78AF2;}
	.st54{fill:#50DB7E;}
	.st55{fill:#FBC2F2;}
	.st56{fill:#ECF4F9;}
	.st57{fill:#987EE7;}
	.st58{fill:#FBB0F2;}
	.st59{fill:#AC92FF;}
	.st60{fill:#5C76AA;}
	.st61{fill:#00B8ED;}
	.st62{fill:#EFEFF0;}
	.st63{fill:#CDAA6F;}
	.st64{fill:#5E8664;}
	.st65{fill:#644F3B;}
	.st66{fill:#785E47;}
	.st67{fill:#5C4936;}
	.st68{fill:#6A533E;}
	.st69{fill:#80654D;}
	.st70{fill:#544835;}
	.st71{fill:#D8468E;}
	.st72{fill:#5AD83F;}
	.st73{fill:#47C93F;}
	.st74{fill:#1CB14B;}
	.st75{fill:#D1FF25;}
	.st76{fill:#FF86B5;}
	.st77{fill:#F086B5;}
	.st78{fill:#F0F1F1;}
	.st79{fill:#F580B5;}
	.st80{fill:#E5E6E7;}
	.st81{fill:#E67CAD;}
	.st82{fill:#D46CAD;}
	.st83{fill:#796F6C;}
	.st84{fill:#0E86FE;}
	.st85{fill:#C93131;}
	.st86{fill:#B83131;}
	.st87{fill:#E5E5E5;}
	.st88{fill:#0E7FFB;}
	.st89{fill:#DBDCDD;}
	.st90{fill:none;stroke:#8D382D;stroke-width:4;stroke-linecap:round;stroke-linejoin:round;stroke-miterlimit:10;}
	.st91{fill:none;stroke:#0E6CFE;stroke-width:4;stroke-linecap:round;stroke-linejoin:round;stroke-miterlimit:10;}
	.st92{fill:none;stroke:#BBBDBF;stroke-width:4;stroke-linecap:round;stroke-linejoin:round;stroke-miterlimit:10;}
	.st93{fill:none;stroke:#A6A8AB;stroke-width:4;stroke-linecap:round;stroke-linejoin:round;stroke-miterlimit:10;}
	.st94{fill:#701F2F;}
	.st95{fill:#1C3B71;}
	.st96{fill:#214181;}
	.st97{fill:#621221;}
	.st98{fill:#231F20;}
	.st99{fill:#31DCFF;}
	.st100{fill:#80192B;}
	.st101{fill:#80994A;}
	.st102{fill:#6B192B;}
	.st103{fill:#5E7031;}
	.st104{fill:#58192B;}
	.st105{fill:#68E674;}
	.st106{fill:#FD7C91;}
	.st107{fill:#27A5FF;}
	.st108{fill:#B081E3;}
	.st109{fill:#FFEB26;}
	.st110{fill:#FFF04D;}
	.st111{fill:#FFDE00;}
	.st112{fill:#FFD906;}
	.st113{fill:#EFBD55;}
	.st114{fill:#E2AD41;}
	.st115{fill:#D69E36;}
	.st116{fill:#CE9333;}
	.st117{fill:#F2829E;}
	.st118{fill:#FED77E;}
	.st119{fill:#FECC71;}
	.st120{fill:#FEC471;}
	.st121{fill:#F4CFB4;}
	.st122{fill:#F2729E;}
	.st123{fill:#9FA2A0;}
	.st124{fill:#E8C0A5;}
	.st125{fill:#D97CFF;}
	.st126{fill:#D1C6C1;}
	.st127{fill:#C0B6B2;}
	.st128{fill:#FAAF40;}
	.st129{fill:#F3AA3F;}
	.st130{fill:#F3F4F4;}
	.st131{fill:#9A8479;}
	.st132{fill:#99EC9B;}
	.st133{fill:#FF9AB5;}
	.st134{fill:#F38DB0;}
	.st135{fill:#8ED79B;}
	.st136{fill:#FFAAC4;}
	.st137{fill:#B9F6AB;}
	.st138{fill:#6D6E71;}
</style>
<g>
	<g>
		<path class="st132" d="M86.123,1.468c1.092-0.578,2.458-0.107,2.921,1.024c8.367,20.247-2.564,45.437-25.684,57.682
			S13.252,67.309,1.205,49.011C0.54,47.988,0.908,46.598,2,46.02l5.344-2.83c9.998,15.493,32.682,19.86,52.113,9.57
			C78.879,42.474,88.022,21.251,80.823,4.275L86.123,1.468z"/>
		<path class="st133" d="M7.344,43.19L80.823,4.275c7.198,16.976-1.945,38.199-21.367,48.485
			C40.026,63.05,17.342,58.683,7.344,43.19z M76.784,15.444c0,0-2.513-0.935-4.459,0.095c-1.946,1.03-2.584,3.635-2.584,3.635
			s2.513,0.935,4.459-0.095C76.145,18.048,76.784,15.444,76.784,15.444z M67.303,29.473c0,0-2.508-0.926-4.454,0.104
			s-2.589,3.626-2.589,3.626s2.508,0.926,4.454-0.104C66.66,32.068,67.303,29.473,67.303,29.473z M51.252,28.966
			c0,0-2.513-0.935-4.459,0.095c-1.946,1.03-2.584,3.635-2.584,3.635s2.513,0.935,4.459-0.095
			C50.613,31.57,51.252,28.966,51.252,28.966z M58.708,43.044c0,0-2.508-0.926-4.454,0.104c-1.946,1.03-2.589,3.626-2.589,3.626
			s2.508,0.926,4.454-0.104C58.064,45.639,58.708,43.044,58.708,43.044z M43.532,42.062c0,0-2.508-0.926-4.454,0.104
			c-1.946,1.03-2.589,3.626-2.589,3.626s2.508,0.926,4.454-0.104C42.889,44.657,43.532,42.062,43.532,42.062z M26.601,42.022
			c0,0-2.513-0.935-4.459,0.095c-1.946,1.03-2.584,3.635-2.584,3.635s2.513,0.935,4.459-0.095
			C25.962,44.626,26.601,42.022,26.601,42.022z"/>
		<path class="st134" d="M72.019,8.938c6.646,15.673-0.646,34.959-17.088,45.923c1.522-0.619,3.034-1.311,4.525-2.101
			C78.878,42.474,88.022,21.251,80.823,4.275L72.019,8.938z"/>
		<g>
			<path class="st135" d="M86.124,1.468l-5.3,2.807c0.043,0.102,0.078,0.206,0.121,0.309c0.761,0.054,1.469,0.505,1.777,1.256
				c7.982,19.315-1.608,43.12-22.578,55.901c1.079-0.49,2.153-1.005,3.217-1.568c23.12-12.244,34.05-37.435,25.684-57.682
				C88.581,1.361,87.215,0.89,86.124,1.468z"/>
		</g>
		<path class="st136" d="M16.148,38.527c9.231,14.304,29.281,19.11,47.589,11.67c-1.367,0.911-2.79,1.773-4.281,2.562
			c-19.422,10.286-42.115,5.924-52.113-9.57L16.148,38.527z"/>
		<path class="st137" d="M53.134,56.108c1.065-0.564,2.094-1.167,3.097-1.795C37.574,62.53,16.793,57.833,7.344,43.19L2,46.02
			c-0.349,0.185-0.615,0.458-0.806,0.77C11.276,62.075,33.811,66.342,53.134,56.108z"/>
		<g>
			<path class="st138" d="M74.2,19.079c-1.946,1.03-4.459,0.096-4.459,0.096s0.639-2.604,2.584-3.635
				c1.946-1.03,4.459-0.096,4.459-0.096S76.145,18.048,74.2,19.079z"/>
			<path class="st138" d="M64.714,33.099c-1.946,1.03-4.454,0.104-4.454,0.104s0.643-2.595,2.589-3.626
				c1.946-1.03,4.454-0.104,4.454-0.104S66.66,32.068,64.714,33.099z"/>
			<path class="st138" d="M48.668,32.601c-1.946,1.031-4.459,0.095-4.459,0.095s0.639-2.604,2.584-3.635
				c1.946-1.031,4.459-0.095,4.459-0.095S50.613,31.57,48.668,32.601z"/>
			<path class="st138" d="M56.119,46.67c-1.946,1.031-4.454,0.104-4.454,0.104s0.643-2.595,2.589-3.626
				c1.946-1.03,4.454-0.104,4.454-0.104S58.064,45.639,56.119,46.67z"/>
			<path class="st138" d="M40.943,45.688c-1.946,1.031-4.454,0.104-4.454,0.104s0.643-2.595,2.589-3.626
				c1.946-1.031,4.454-0.104,4.454-0.104S42.889,44.658,40.943,45.688z"/>
			<path class="st138" d="M24.016,45.656c-1.946,1.03-4.459,0.095-4.459,0.095s0.639-2.604,2.584-3.635
				c1.946-1.03,4.459-0.095,4.459-0.095S25.962,44.626,24.016,45.656z"/>
			<path class="st138" d="M63.828,61.057c8.546-4.526,15.503-10.891,20.455-18.162c8.511-12.496,11.105-27.668,5.685-40.785
				c-0.323-0.787-0.974-1.409-1.785-1.702c-0.828-0.3-1.749-0.235-2.528,0.177L1.532,45.136c-0.773,0.409-1.343,1.13-1.559,1.975
				c-0.217,0.836-0.073,1.728,0.394,2.446C12.716,68.315,40.591,73.364,63.828,61.057z M80.301,5.683
				c6.23,16.371-2.95,36.467-21.312,46.193c-18.362,9.725-40.145,6.024-50.186-8.328L80.301,5.683z M2.041,48.461
				c-0.161-0.248-0.209-0.551-0.133-0.849c0.079-0.309,0.28-0.56,0.56-0.709l4.556-2.413c10.551,15.336,33.566,19.393,52.9,9.153
				c7.193-3.809,13.036-9.152,17.192-15.253c7.015-10.299,9.199-22.753,4.957-33.646l4.519-2.393
				c0.281-0.149,0.613-0.172,0.911-0.064c0.286,0.103,0.505,0.31,0.617,0.583c8.186,19.808-2.893,44.59-25.227,56.419
				C40.555,71.12,13.827,66.363,2.041,48.461z"/>
		</g>
	</g>
	<g>
		<path class="st132" d="M132.374,90.16c0.877,0.877,0.827,2.326-0.12,3.104c-16.956,14.001-44.35,10.946-62.918-7.623
			s-21.63-45.969-7.63-62.925c0.785-0.94,2.227-0.997,3.104-0.12l4.292,4.292c-11.915,14.163-9.412,37.215,6.194,52.821
			c15.599,15.599,38.658,18.109,52.821,6.194L132.374,90.16z"/>
		<path class="st133" d="M69.103,26.888l59.015,59.015c-14.163,11.915-37.222,9.405-52.821-6.194
			C59.691,64.103,57.188,41.052,69.103,26.888z M116.21,85.324c0,0,0.156-2.687-1.407-4.25s-4.25-1.407-4.25-1.407
			s-0.156,2.687,1.407,4.25S116.21,85.324,116.21,85.324z M99.954,80.367c0,0,0.148-2.68-1.414-4.243s-4.243-1.414-4.243-1.414
			s-0.148,2.68,1.414,4.243S99.954,80.367,99.954,80.367z M95.704,64.817c0,0,0.156-2.687-1.407-4.25s-4.25-1.407-4.25-1.407
			s-0.156,2.687,1.407,4.25S95.704,64.817,95.704,64.817z M84.397,76.124c0,0,0.148-2.68-1.414-4.243s-4.243-1.414-4.243-1.414
			s-0.148,2.68,1.414,4.243S84.397,76.124,84.397,76.124z M80.862,61.275c0,0,0.148-2.68-1.414-4.243s-4.243-1.414-4.243-1.414
			s-0.148,2.68,1.414,4.243S80.862,61.275,80.862,61.275z M75.905,45.018c0,0,0.156-2.687-1.407-4.25s-4.25-1.407-4.25-1.407
			s-0.156,2.687,1.407,4.25S75.905,45.018,75.905,45.018z"/>
		<path class="st134" d="M121.047,78.832c-13.076,11-33.731,9.695-49.101-2.845c1.042,1.278,2.153,2.524,3.351,3.721
			c15.599,15.599,38.657,18.109,52.821,6.194L121.047,78.832z"/>
		<g>
			<path class="st135" d="M132.375,90.16l-4.257-4.257c-0.085,0.072-0.175,0.136-0.261,0.207c0.173,0.746-0.051,1.559-0.681,2.076
				C111,101.543,85.332,99.366,66.882,83.018c0.789,0.89,1.599,1.769,2.454,2.624c18.569,18.569,45.962,21.623,62.918,7.622
				C133.202,92.487,133.251,91.037,132.375,90.16z"/>
		</g>
		<path class="st136" d="M76.174,33.959c-11,13.076-9.695,33.731,2.845,49.101c-1.278-1.042-2.524-2.153-3.721-3.351
			C59.698,64.11,57.188,41.052,69.103,26.888L76.174,33.959z"/>
		<path class="st137" d="M70.219,74.631c0.856,0.856,1.737,1.665,2.635,2.442c-13.387-15.475-15.013-36.798-3.751-50.184
			l-4.292-4.292c-0.281-0.281-0.621-0.455-0.977-0.546C52.144,36.233,54.699,59.112,70.219,74.631z"/>
		<g>
			<path class="st138" d="M116.21,85.324c0,0,0.156-2.687-1.407-4.25c-1.562-1.563-4.25-1.407-4.25-1.407s-0.156,2.687,1.407,4.25
				C113.523,85.479,116.21,85.324,116.21,85.324z"/>
			<path class="st138" d="M94.297,74.71c0,0-0.149,2.68,1.414,4.243c1.563,1.563,4.243,1.414,4.243,1.414s0.148-2.68-1.414-4.243
				C96.977,74.561,94.297,74.71,94.297,74.71z"/>
			<path class="st138" d="M95.704,64.817c0,0,0.156-2.687-1.407-4.25c-1.563-1.563-4.25-1.407-4.25-1.407s-0.156,2.687,1.407,4.25
				C93.017,64.973,95.704,64.817,95.704,64.817z"/>
			<path class="st138" d="M78.74,70.467c0,0-0.149,2.68,1.414,4.243c1.563,1.563,4.243,1.414,4.243,1.414s0.148-2.68-1.414-4.243
				C81.42,70.319,78.74,70.467,78.74,70.467z"/>
			<path class="st138" d="M75.205,55.618c0,0-0.148,2.68,1.414,4.243c1.562,1.563,4.243,1.414,4.243,1.414s0.148-2.68-1.414-4.243
				C77.885,55.469,75.205,55.618,75.205,55.618z"/>
			<path class="st138" d="M71.655,43.611c1.562,1.563,4.25,1.407,4.25,1.407s0.156-2.687-1.407-4.25
				c-1.563-1.563-4.25-1.407-4.25-1.407S70.093,42.049,71.655,43.611z"/>
			<path class="st138" d="M133.081,89.454L65.518,21.889c-0.62-0.62-1.476-0.953-2.352-0.913c-0.865,0.039-1.677,0.439-2.231,1.104
				c-14.348,17.376-10.968,45.607,7.694,64.27c10.884,10.884,25.021,16.567,38.364,16.567c9.53-0.001,18.655-2.901,25.895-8.879
				c0.662-0.543,1.066-1.35,1.108-2.214C134.039,90.942,133.706,90.078,133.081,89.454z M126.617,85.818
				c-13.87,10.81-35.863,7.934-50.613-6.815c-14.749-14.75-17.627-36.745-6.815-50.614L126.617,85.818z M131.617,92.493
				c-16.593,13.7-43.639,10.378-61.574-7.558c-17.941-17.942-21.265-44.992-7.569-61.578c0.194-0.233,0.473-0.369,0.782-0.383
				c0.018,0,0.035-0.001,0.053-0.001c0.3,0,0.581,0.116,0.795,0.33l3.662,3.662C56.164,41.61,59.062,64.888,74.59,80.416
				c9.15,9.15,20.991,13.918,32.173,13.918c7.794,0,15.265-2.325,21.281-7.09l3.624,3.624c0.227,0.227,0.348,0.539,0.331,0.858
				C131.983,92.032,131.849,92.303,131.617,92.493z"/>
		</g>
	</g>
	<g>
		<g>
			<path class="st132" d="M107.67,118.964c1.201,0.309,1.896,1.582,1.476,2.734c-7.474,20.68-32.611,31.988-58.044,25.45
				c-25.433-6.538-42.01-28.569-38.584-50.29c0.197-1.209,1.41-1.992,2.611-1.683l5.879,1.511
				c-3.051,18.255,10.832,36.827,32.207,42.322c21.365,5.492,42.494-4.078,48.625-21.542L107.67,118.964z"/>
			<path class="st133" d="M21.008,96.686l80.832,20.78c-6.131,17.463-27.259,27.034-48.625,21.542
				C31.84,133.512,17.956,114.941,21.008,96.686z M91.293,123.025c0,0-1.233-2.392-3.374-2.943c-2.14-0.55-4.374,0.951-4.374,0.951
				s1.233,2.392,3.374,2.943S91.293,123.025,91.293,123.025z M74.776,127.029c0,0-1.236-2.383-3.376-2.933s-4.372,0.941-4.372,0.941
				s1.236,2.383,3.376,2.933C72.545,128.52,74.776,127.029,74.776,127.029z M63.206,115.804c0,0-1.233-2.392-3.374-2.943
				c-2.14-0.55-4.374,0.951-4.374,0.951s1.233,2.392,3.374,2.943C60.972,117.305,63.206,115.804,63.206,115.804z M59.225,131.291
				c0,0-1.236-2.383-3.376-2.933c-2.14-0.55-4.372,0.941-4.372,0.941s1.236,2.383,3.376,2.933S59.225,131.291,59.225,131.291z
				 M48.626,120.306c0,0-1.236-2.383-3.376-2.933c-2.14-0.55-4.372,0.941-4.372,0.941s1.236,2.383,3.376,2.933
				S48.626,120.306,48.626,120.306z M36.088,108.833c0,0-1.233-2.392-3.374-2.943c-2.14-0.55-4.374,0.951-4.374,0.951
				s1.233,2.392,3.374,2.943S36.088,108.833,36.088,108.833z"/>
			<path class="st134" d="M92.154,114.976c-5.661,16.123-24.106,25.508-43.718,22.533c1.548,0.57,3.138,1.077,4.778,1.499
				c21.365,5.492,42.494-4.078,48.625-21.542L92.154,114.976z"/>
			<g>
				<path class="st135" d="M107.67,118.964l-5.83-1.499c-0.037,0.105-0.081,0.206-0.119,0.311c0.528,0.554,0.75,1.368,0.47,2.134
					c-7.13,19.728-30.335,30.914-54.537,26.227c1.132,0.365,2.277,0.71,3.448,1.011c25.433,6.538,50.57-4.769,58.044-25.45
					C109.566,120.546,108.871,119.273,107.67,118.964z"/>
			</g>
			<path class="st136" d="M30.693,99.176c-2.817,16.854,8.815,33.972,27.431,40.823c-1.63-0.247-3.268-0.57-4.909-0.992
				c-21.365-5.492-35.258-24.066-32.207-42.322L30.693,99.176z"/>
			<path class="st137" d="M46.259,137.219c1.172,0.301,2.343,0.549,3.511,0.761c-19.399-6.511-31.647-24.041-28.763-41.295
				l-5.879-1.511c-0.384-0.099-0.766-0.076-1.119,0.027C11.163,113.358,25.003,131.755,46.259,137.219z"/>
		</g>
		<g>
			<path class="st138" d="M86.919,123.976c2.14,0.55,4.374-0.951,4.374-0.951s-1.233-2.392-3.374-2.943
				c-2.14-0.55-4.375,0.951-4.375,0.951S84.778,123.425,86.919,123.976z"/>
			<path class="st138" d="M70.404,127.97c2.14,0.55,4.372-0.941,4.372-0.941s-1.236-2.383-3.376-2.933
				c-2.14-0.55-4.372,0.941-4.372,0.941S68.264,127.419,70.404,127.97z"/>
			<path class="st138" d="M58.832,116.755c2.14,0.55,4.375-0.951,4.375-0.951s-1.233-2.392-3.374-2.943
				c-2.14-0.55-4.375,0.951-4.375,0.951S56.691,116.205,58.832,116.755z"/>
			<path class="st138" d="M54.853,132.232c2.141,0.55,4.372-0.941,4.372-0.941s-1.236-2.383-3.376-2.933
				c-2.14-0.55-4.372,0.941-4.372,0.941S52.713,131.682,54.853,132.232z"/>
			<path class="st138" d="M44.254,121.247c2.14,0.55,4.372-0.941,4.372-0.941s-1.236-2.383-3.376-2.933s-4.372,0.941-4.372,0.941
				S42.114,120.697,44.254,121.247z"/>
			<path class="st138" d="M36.088,108.833c0,0-1.233-2.392-3.374-2.943c-2.14-0.55-4.375,0.951-4.375,0.951s1.233,2.392,3.374,2.943
				S36.088,108.833,36.088,108.833z"/>
			<path class="st138" d="M109.912,119.571c-0.411-0.781-1.138-1.355-1.993-1.575l-92.541-23.79
				c-0.849-0.218-1.756-0.067-2.489,0.411c-0.725,0.474-1.22,1.231-1.358,2.084c-3.511,22.261,13.762,44.845,39.322,51.416
				c4.871,1.252,9.758,1.85,14.532,1.85c20.273,0,38.501-10.774,44.7-27.926C110.378,121.236,110.315,120.336,109.912,119.571z
				 M21.845,97.934l78.66,20.221c-6.442,16.363-26.842,25.078-47.041,19.883C33.261,132.845,19.594,115.374,21.845,97.934z
				 M108.205,121.358c-7.314,20.233-32.292,31.133-56.854,24.821c-24.573-6.316-41.197-27.913-37.846-49.161
				c0.049-0.3,0.218-0.558,0.478-0.728c0.187-0.121,0.397-0.184,0.613-0.184c0.095,0,0.189,0.012,0.284,0.036l5.016,1.289
				c-2.537,18.511,11.801,37.076,33.07,42.544c4.106,1.056,8.22,1.559,12.236,1.559c16.79,0,31.844-8.804,37.256-22.877l4.962,1.276
				c0.31,0.079,0.572,0.287,0.722,0.569C108.285,120.774,108.308,121.077,108.205,121.358z"/>
		</g>
	</g>
</g>
</svg>
