<?xml version="1.0" encoding="utf-8"?>
<!-- Generator: Adobe Illustrator 19.2.1, SVG Export Plug-In . SVG Version: 6.00 Build 0)  -->
<svg version="1.1" id="Layer_1" xmlns="http://www.w3.org/2000/svg" xmlns:xlink="http://www.w3.org/1999/xlink" x="0px" y="0px"
	 viewBox="0 0 157 150" style="enable-background:new 0 0 157 150;" xml:space="preserve">
<style type="text/css">
	.st0{fill:#C3D79B;}
	.st1{fill:#FFFEEE;}
	.st2{fill:#96B98A;}
	.st3{fill:#E1B98A;}
	.st4{fill:#87A77C;}
	.st5{fill:#CCA87E;}
	.st6{fill:#E9BACE;}
	.st7{fill:#FFFFFF;}
	.st8{fill:#F1F2F2;}
	.st9{fill:#CFA6B9;}
	.st10{fill:#947A7C;}
	.st11{fill:#59A7F1;}
	.st12{fill:#F0F1F1;}
	.st13{fill:#59B4FF;}
	.st14{fill:#23C7E3;}
	.st15{fill:#FFED98;}
	.st16{fill:#DBDCDD;}
	.st17{fill:#23B4D1;}
	.st18{fill:#4795F1;}
	.st19{fill:#FEDB8B;}
	.st20{fill:#2270CC;}
	.st21{fill:#FFD624;}
	.st22{fill:#FFB724;}
	.st23{fill:#14DB84;}
	.st24{fill:#14AF68;}
	.st25{fill:#58595B;}
	.st26{fill:#8AA860;}
	.st27{fill:#FF899B;}
	.st28{fill:#FF7A8E;}
	.st29{fill:#7E9B57;}
	.st30{fill:#FFB8C6;}
	.st31{fill:#845B5F;}
	.st32{fill:#F0C956;}
	.st33{fill:#F0BE45;}
	.st34{fill:#E9C956;}
	.st35{fill:#58393E;}
	.st36{fill:#0094D3;}
	.st37{fill:#2484C6;}
	.st38{fill:#8E6D6A;}
	.st39{fill:#826461;}
	.st40{fill:none;stroke:#58393E;stroke-width:4;stroke-linecap:round;stroke-linejoin:round;stroke-miterlimit:10;}
	.st41{fill:#005A99;}
	.st42{fill:#414042;}
	.st43{fill:#3C3B3D;}
	.st44{fill:#005490;}
	.st45{fill:#0087EE;}
	.st46{fill:#4ED1FF;}
	.st47{fill:#9CAD8C;}
</style>
<g id="XMLID_1_">
	<g>
		<path class="st0" d="M155.03,119.89l0.03,25.99c0,1.1-1,1.93-2.07,1.72L4.75,118.74C3.15,118.42,2,117.02,2,115.4V90
			L155.03,119.89z"/>
		<path class="st1" d="M155,92.93l0.03,26.96L2,90V64.63c0-1.31,0.55-2.51,1.46-3.36l0.01,0.01l150.74,28.57
			C154.73,90.78,155,91.84,155,92.93z"/>
		<path class="st1" d="M86.13,59.54L86,59v-4V44v-2.45l9.3-2.16c1.07-0.24,2.19,0.04,3.01,0.76l54.49,47.92
			c0.58,0.51,1.06,1.11,1.41,1.78L3.47,61.28l-0.01-0.01c0.57-0.52,1.28-0.91,2.07-1.09L78,43.4v3.7V59l-0.12,0.54
			c1.32,0.32,2.7,0.48,4.12,0.48S84.8,59.86,86.13,59.54z"/>
		<path class="st0" d="M86,59l0.13,0.54c-1.33,0.32-2.71,0.48-4.13,0.48s-2.8-0.16-4.12-0.48L78,59V47.1l8,7.9V59z"/>
		<polygon class="st0" points="86,44 86,55 78,47.1 78,43.4 78,36.1 		"/>
		<polygon class="st0" points="86,41.55 86,44 78,36.1 78,25.1 86,33 		"/>
		<polygon class="st0" points="86,22 86,33 78,25.1 78,14.1 		"/>
		<path class="st0" d="M86,7v15l-8-7.9V7c0,0.55,1.78,1,3.98,1c0.01,0,0.01,0,0.02,0C84.21,8,86,7.55,86,7z"/>
	</g>
</g>
<g>
	<path class="st47" d="M63,7h1v1c0,0.552,0.447,1,1,1s1-0.448,1-1V7h1c0.553,0,1-0.448,1-1s-0.447-1-1-1h-1V4c0-0.552-0.447-1-1-1
		s-1,0.448-1,1v1h-1c-0.553,0-1,0.448-1,1S62.447,7,63,7z"/>
	<path class="st47" d="M52,27h1v1c0,0.552,0.447,1,1,1s1-0.448,1-1v-1h1c0.553,0,1-0.448,1-1s-0.447-1-1-1h-1v-1
		c0-0.552-0.447-1-1-1s-1,0.448-1,1v1h-1c-0.553,0-1,0.448-1,1S51.447,27,52,27z"/>
	<path class="st47" d="M103,9h1v1c0,0.552,0.447,1,1,1s1-0.448,1-1V9h1c0.553,0,1-0.448,1-1s-0.447-1-1-1h-1V6c0-0.552-0.447-1-1-1
		s-1,0.448-1,1v1h-1c-0.553,0-1,0.448-1,1S102.447,9,103,9z"/>
	<path class="st47" d="M96,22c-0.553,0-1,0.448-1,1s0.447,1,1,1h1v1c0,0.552,0.447,1,1,1s1-0.448,1-1v-1h1c0.553,0,1-0.448,1-1
		s-0.447-1-1-1h-1v-1c0-0.552-0.447-1-1-1s-1,0.448-1,1v1H96z"/>
	<circle class="st47" cx="68.5" cy="17.5" r="1.5"/>
	<circle class="st47" cx="94.5" cy="5.5" r="1.5"/>
	<circle class="st47" cx="114" cy="23.5" r="1.5"/>
	<path class="st47" d="M157.031,120.113c0.017-0.16,0.021-0.318,0-0.473L157,92.93c0-1.379-0.342-2.726-0.952-3.87l0,0
		c-0.023-0.044-0.04-0.092-0.064-0.136c-0.46-0.881-1.087-1.674-1.863-2.355L99.63,38.647c-1.295-1.136-3.076-1.59-4.782-1.206
		L88,39.032V6.98c0-0.172-0.029-0.336-0.069-0.495C87.664,5.188,86.324,4.382,84,4.102V1.98c0-1.104-0.896-2-2-2s-2,0.896-2,2v2.122
		c-2.324,0.28-3.664,1.086-3.931,2.383C76.029,6.644,76,6.808,76,6.98v34.83L5.087,58.23c-1.1,0.25-2.128,0.79-2.992,1.579
		C0.764,61.052,0,62.809,0,64.63v25.386c0,0.002,0,0.005,0,0.007V115.4c0,2.566,1.832,4.795,4.368,5.303l148.236,28.859
		c0.24,0.047,0.481,0.07,0.721,0.07c0.854-0.001,1.689-0.296,2.365-0.852c0.87-0.717,1.369-1.773,1.369-2.903L157.031,120.113z
		 M80,9.858c0.607,0.073,1.259,0.122,2,0.122c0.74,0,1.393-0.049,2-0.122v7.336l-4-3.95V9.858z M80,18.866l4,3.95v5.379l-4-3.95
		V18.866z M80,29.866l4,3.95v5.379l-4-3.95V29.866z M80,40.866l4,3.95v5.379l-4-3.95V40.866z M80,51.866l4,3.95v2.054
		c-1.314,0.164-2.668,0.165-4-0.002V51.866z M76,45.916v11.071c-0.818,0.001-1.587,0.5-1.881,1.315
		c-0.375,1.039,0.163,2.185,1.202,2.56c0.682,0.246,1.398,0.452,2.088,0.603C78.878,61.82,80.423,62,82,62
		c1.573,0,3.12-0.18,4.558-0.526c0.642-0.141,1.307-0.332,2.093-0.603c1.045-0.359,1.601-1.497,1.241-2.542
		c-0.285-0.829-1.063-1.341-1.892-1.342V43.139l7.738-1.797c0.443-0.101,0.916,0.016,1.251,0.31l51.192,45.02L11.7,60.804L76,45.916
		z M4,64.63c0-0.415,0.105-0.807,0.282-1.161l148.512,28.147c0.131,0.419,0.206,0.861,0.206,1.315l0.028,24.529L4,88.353V64.63z
		 M5.143,116.779C4.48,116.646,4,116.066,4,115.4V92.428l149.032,29.107l0.027,24.04L5.143,116.779z"/>
</g>
</svg>
