<?xml version="1.0" encoding="utf-8"?>
<!-- Generator: Adobe Illustrator 21.0.0, SVG Export Plug-In . SVG Version: 6.00 Build 0)  -->
<svg version="1.1" id="Layer_1" xmlns="http://www.w3.org/2000/svg" xmlns:xlink="http://www.w3.org/1999/xlink" x="0px" y="0px"
	 viewBox="0 0 116 150" style="enable-background:new 0 0 116 150;" xml:space="preserve">
<style type="text/css">
	.st0{fill:#FFFFFF;}
	.st1{fill:#6D6E71;}
	.st2{fill:#5A5B5E;}
	.st3{fill:#AEB0B1;}
	.st4{fill:#FFFFFF;stroke:#58595B;stroke-width:4;stroke-linecap:round;stroke-linejoin:round;stroke-miterlimit:10;}
	.st5{fill:#58595B;}
	.st6{fill:#A8724B;}
	.st7{fill:#916341;}
	.st8{fill:#754921;}
	.st9{fill:#FF6B6B;}
	.st10{fill:#FFD57E;}
	.st11{fill:#D9FF93;}
	.st12{fill:#E8E8E8;}
	.st13{fill:#85808A;}
	.st14{fill:#1787FF;}
	.st15{fill:#4DE69F;}
	.st16{fill:#C92A2A;}
	.st17{fill:#00386E;}
	.st18{fill:#231F20;}
	.st19{fill:#CCCCCC;}
	.st20{fill:#A12222;}
	.st21{fill:#002D58;}
	.st22{fill:#1C191A;}
	.st23{fill:#851616;}
	.st24{fill:#B01E1E;}
	.st25{fill:#E32626;}
	.st26{fill:#991919;}
	.st27{fill:#591300;}
	.st28{fill:#FF880F;}
	.st29{fill:#D16F0C;}
	.st30{fill:#F3D9D9;}
	.st31{fill:#ECC6C6;}
	.st32{fill:#E6B6B6;}
	.st33{fill:#F1D2D2;}
	.st34{fill:#E5B0B0;}
	.st35{fill:#D3AEAA;}
	.st36{fill:#F0CFCF;}
	.st37{fill:#F2D4D4;}
	.st38{fill:#B3F294;}
	.st39{fill:#99C4FF;}
	.st40{fill:#D2FFBA;}
	.st41{fill:#BDD9FF;}
	.st42{fill:#7C7E82;}
	.st43{fill:#E06AC6;}
	.st44{fill:#D9B580;}
	.st45{fill:#B556A0;}
	.st46{fill:#AD9166;}
	.st47{fill:#805075;}
	.st48{fill:#7E40B8;}
	.st49{fill:#A9FF8A;}
	.st50{fill:#FFFEA2;}
	.st51{fill:#5CFFEC;}
</style>
<g>
	<g>
		<path class="st43" d="M100,107.5c0-1.24-0.5-2.37-1.32-3.18c-0.81-0.82-1.94-1.32-3.18-1.32c-2.49,0-4.5,2.01-4.5,4.5v5.5v16.5
			c0,2.49-2.01,4.5-4.5,4.5c-1.24,0-2.37-0.5-3.18-1.32c-0.82-0.81-1.32-1.94-1.32-3.18V125v-6.5c0-1.24-0.5-2.37-1.32-3.18
			c-0.81-0.82-1.94-1.32-3.18-1.32c-2.49,0-4.5,2.01-4.5,4.5v4.5v3v2.5c0,2.49-2.01,4.5-4.5,4.5c-1.24,0-2.37-0.5-3.18-1.32
			c-0.82-0.81-1.32-1.94-1.32-3.18v-3c0-1.24-0.5-2.37-1.32-3.18c-0.81-0.82-1.94-1.32-3.18-1.32c-2.49,0-4.5,2.01-4.5,4.5v1.5v8.5
			c0,2.49-2.01,4.5-4.5,4.5c-1.24,0-2.37-0.5-3.18-1.32c-0.82-0.81-1.32-1.94-1.32-3.18V135v-17.5c0-1.24-0.5-2.37-1.32-3.18
			c-0.81-0.82-1.94-1.32-3.18-1.32c-2.49,0-4.5,2.01-4.5,4.5v1v11v7c0,2.49-2.01,4.5-4.5,4.5h-3.34
			c-9.21-5.54-16.7-13.67-21.46-23.38C4.05,110.19,2,101.84,2,93s2.05-17.19,5.7-24.62C16.81,49.8,35.91,37,58,37
			s41.19,12.8,50.3,31.38c3.65,7.43,5.7,15.78,5.7,24.62c0,7.56-1.5,14.75-4.22,21.32L109,114h-4.5c-2.49,0-4.5-2.01-4.5-4.5V107.5z
			 M75,93c0-2.68-0.62-5.22-1.73-7.47C70.5,79.88,64.71,76,58,76s-12.5,3.88-15.27,9.53C41.62,87.78,41,90.32,41,93
			s0.62,5.22,1.73,7.47C45.5,106.12,51.29,110,58,110s12.5-3.88,15.27-9.53C74.38,98.22,75,95.68,75,93z"/>
	</g>
	<g>
		<path class="st44" d="M109,114l0.78,0.32c-0.46,1.12-0.95,2.22-1.48,3.3C99.19,136.2,80.09,149,58,149
			c-10.54,0-20.41-2.92-28.84-8h3.34c2.49,0,4.5-2.01,4.5-4.5v-7v-11v-1c0-2.49,2.01-4.5,4.5-4.5c1.24,0,2.37,0.5,3.18,1.32
			c0.82,0.81,1.32,1.94,1.32,3.18V135v0.5c0,1.24,0.5,2.37,1.32,3.18c0.81,0.82,1.94,1.32,3.18,1.32c2.49,0,4.5-2.01,4.5-4.5V127
			v-1.5c0-2.49,2.01-4.5,4.5-4.5c1.24,0,2.37,0.5,3.18,1.32c0.82,0.81,1.32,1.94,1.32,3.18v3c0,1.24,0.5,2.37,1.32,3.18
			c0.81,0.82,1.94,1.32,3.18,1.32c2.49,0,4.5-2.01,4.5-4.5V126v-3v-4.5c0-2.49,2.01-4.5,4.5-4.5c1.24,0,2.37,0.5,3.18,1.32
			c0.82,0.81,1.32,1.94,1.32,3.18v6.5v4.5c0,1.24,0.5,2.37,1.32,3.18c0.81,0.82,1.94,1.32,3.18,1.32c2.49,0,4.5-2.01,4.5-4.5V113
			v-5.5c0-2.49,2.01-4.5,4.5-4.5c1.24,0,2.37,0.5,3.18,1.32c0.82,0.81,1.32,1.94,1.32,3.18v2c0,2.49,2.01,4.5,4.5,4.5H109z"/>
	</g>
	<g>
		<g>
			<polygon class="st44" points="73.502,146.819 73.502,146.819 73.499,146.82 			"/>
		</g>
		<g>
			<path class="st45" d="M37,136.5v-7v-11v-1c0-0.822,0.236-1.582,0.619-2.245C34.654,108.434,33,100.916,33,93
				c0-8.84,2.05-17.19,5.7-24.62c6.892-14.056,19.504-24.799,34.8-29.2C68.577,37.764,63.378,37,58,37
				C35.91,37,16.81,49.8,7.7,68.38C4.05,75.81,2,84.16,2,93c0,8.84,2.05,17.19,5.7,24.62c4.76,9.71,12.25,17.84,21.46,23.38h3.34
				C34.99,141,37,138.99,37,136.5z"/>
		</g>
		<g>
			<path class="st44" d="M73.499,146.82c-1.843,0.53-3.724,0.969-5.64,1.31C69.775,147.79,71.656,147.35,73.499,146.82z"/>
		</g>
		<g>
			<path class="st46" d="M54.659,137.216C53.985,138.851,52.381,140,50.5,140c-1.24,0-2.37-0.5-3.18-1.32
				c-0.82-0.81-1.32-1.94-1.32-3.18V135v-6.15c-2.856-3.423-5.318-7.187-7.3-11.23c-0.381-0.776-0.735-1.569-1.081-2.365
				C37.236,115.918,37,116.678,37,117.5v1v11v7c0,2.49-2.01,4.5-4.5,4.5h-3.34c8.43,5.08,18.3,8,28.84,8
				c0.68,0,1.356-0.013,2.03-0.037c0.351-0.013,0.699-0.037,1.049-0.056c0.317-0.017,0.635-0.029,0.951-0.052
				c0.488-0.035,0.972-0.082,1.456-0.129c0.171-0.017,0.343-0.028,0.513-0.047c0.572-0.061,1.14-0.134,1.706-0.212
				c0.079-0.011,0.158-0.019,0.236-0.03c0.619-0.088,1.235-0.188,1.848-0.296c0.023-0.004,0.047-0.007,0.071-0.012
				c1.915-0.341,3.797-0.78,5.64-1.31c0.001,0,0.002-0.001,0.003-0.001c-4.732-1.363-9.211-3.329-13.342-5.819
				C58.247,139.849,56.414,138.581,54.659,137.216z"/>
		</g>
	</g>
	<g>
		<path class="st47" d="M110.096,67.5C100.268,47.453,80.306,35,58,35S15.732,47.453,5.905,67.498C1.986,75.474,0,84.054,0,93
			c0,8.947,1.986,17.527,5.904,25.5c4.932,10.062,12.617,18.435,22.224,24.213C37.124,148.135,47.453,151,58,151
			c22.306,0,42.268-12.453,52.095-32.498c0.528-1.075,1.044-2.225,1.533-3.417C114.529,108.077,116,100.646,116,93
			C116,84.054,114.014,75.474,110.096,67.5z M58,147c-7.738,0-15.346-1.663-22.323-4.835C37.657,141.05,39,138.93,39,136.5v-7v-12
			c0-1.379,1.121-2.5,2.5-2.5c0.671,0,1.295,0.258,1.774,0.744C43.742,116.205,44,116.829,44,117.5V135v0.5
			c0,1.749,0.681,3.384,1.896,4.585c1.22,1.234,2.854,1.915,4.604,1.915c3.584,0,6.5-2.916,6.5-6.5V127v-1.5
			c0-1.379,1.121-2.5,2.5-2.5c0.671,0,1.295,0.258,1.774,0.744C61.742,124.205,62,124.829,62,125.5v3
			c0,1.749,0.681,3.384,1.896,4.585c1.22,1.234,2.854,1.915,4.604,1.915c3.584,0,6.5-2.916,6.5-6.5V126v-7.5
			c0-1.379,1.121-2.5,2.5-2.5c0.671,0,1.295,0.258,1.774,0.744C79.742,117.205,80,117.829,80,118.5v6.5v4.5
			c0,1.749,0.681,3.384,1.896,4.585c1.22,1.234,2.854,1.915,4.604,1.915c3.584,0,6.5-2.916,6.5-6.5V113v-5.5
			c0-1.379,1.121-2.5,2.5-2.5c0.671,0,1.295,0.258,1.774,0.744C97.742,106.205,98,106.829,98,107.5v2c0,3.584,2.916,6.5,6.5,6.5
			h2.351c-0.116,0.246-0.228,0.497-0.347,0.739C97.353,135.405,78.768,147,58,147z M108.532,112H104.5c-1.379,0-2.5-1.121-2.5-2.5
			V107h-0.024c-0.117-1.558-0.773-2.999-1.872-4.085C98.884,101.681,97.249,101,95.5,101c-3.584,0-6.5,2.916-6.5,6.5v5.5v16.5
			c0,1.379-1.121,2.5-2.5,2.5c-0.671,0-1.295-0.258-1.774-0.744C84.258,130.795,84,130.171,84,129.5V125v-6.5
			c0-1.749-0.681-3.384-1.896-4.585C80.884,112.681,79.249,112,77.5,112c-3.584,0-6.5,2.916-6.5,6.5v7.5v2.5
			c0,1.379-1.121,2.5-2.5,2.5c-0.671,0-1.295-0.258-1.774-0.744C66.258,129.795,66,129.171,66,128.5V125h-0.024
			c-0.117-1.558-0.773-2.999-1.872-4.085C62.884,119.681,61.249,119,59.5,119c-3.584,0-6.5,2.916-6.5,6.5v1.5v8.5
			c0,1.379-1.121,2.5-2.5,2.5c-0.671,0-1.295-0.258-1.774-0.744C48.258,136.795,48,136.171,48,135.5V135v-17.5
			c0-1.749-0.681-3.384-1.896-4.585C44.884,111.681,43.249,111,41.5,111c-3.584,0-6.5,2.916-6.5,6.5v12v7c0,1.379-1.121,2.5-2.5,2.5
			h-2.766c-8.732-5.371-15.725-13.053-20.239-22.262C5.849,109.316,4,101.33,4,93c0-8.329,1.849-16.316,5.496-23.74
			C18.647,50.595,37.232,39,58,39s39.353,11.595,48.505,30.262C110.151,76.684,112,84.671,112,93
			C112,99.557,110.825,105.938,108.532,112z"/>
		<path class="st47" d="M58,74c-7.307,0-13.846,4.081-17.063,10.646C39.651,87.25,39,90.061,39,93s0.651,5.75,1.935,8.35
			C44.154,107.919,50.693,112,58,112s13.846-4.081,17.063-10.646C76.349,98.75,77,95.939,77,93c0-2.938-0.651-5.747-1.935-8.351
			C71.845,78.081,65.306,74,58,74z M71.474,99.59C68.931,104.777,63.768,108,58,108s-10.931-3.223-13.476-8.415
			C43.513,97.535,43,95.32,43,93s0.513-4.535,1.526-6.59C47.069,81.223,52.232,78,58,78s10.931,3.223,13.474,8.41l0.002,0.005
			C72.487,88.465,73,90.68,73,93S72.487,97.535,71.474,99.59z"/>
	</g>
	<g>
		<path class="st48" d="M20,94h-7c-1.104,0-2-0.896-2-2s0.896-2,2-2h7c1.104,0,2,0.896,2,2S21.104,94,20,94z"/>
	</g>
	<g>
		<path class="st49" d="M63,52h-7c-1.104,0-2-0.896-2-2s0.896-2,2-2h7c1.104,0,2,0.896,2,2S64.104,52,63,52z"/>
	</g>
	<g>
		<path class="st50" d="M86.03,94.47c-0.512,0-1.023-0.195-1.414-0.586c-0.781-0.781-0.781-2.047,0-2.828l4.939-4.939
			c0.781-0.781,2.047-0.781,2.828,0s0.781,2.047,0,2.828l-4.939,4.939C87.054,94.274,86.542,94.47,86.03,94.47z"/>
	</g>
	<g>
		<path class="st48" d="M30.03,61.47c-0.512,0-1.023-0.195-1.414-0.585c-0.781-0.781-0.781-2.047,0-2.829l4.939-4.94
			c0.781-0.781,2.047-0.781,2.828,0c0.781,0.781,0.781,2.047,0,2.829l-4.939,4.94C31.054,61.275,30.542,61.47,30.03,61.47z"/>
	</g>
	<g>
		<path class="st50" d="M51.97,66.47c-0.512,0-1.023-0.195-1.414-0.586l-4.939-4.94c-0.781-0.781-0.781-2.047,0-2.829
			c0.781-0.78,2.047-0.781,2.828,0l4.939,4.94c0.781,0.781,0.781,2.047,0,2.829C52.993,66.275,52.481,66.47,51.97,66.47z"/>
	</g>
	<g>
		<path class="st51" d="M27.97,81.47c-0.512,0-1.023-0.195-1.414-0.586l-4.939-4.94c-0.781-0.781-0.781-2.047,0-2.828
			c0.781-0.781,2.047-0.781,2.828,0l4.939,4.94c0.781,0.781,0.781,2.047,0,2.828C28.993,81.274,28.481,81.47,27.97,81.47z"/>
	</g>
	<g>
		<path class="st51" d="M98.97,78.47c-0.512,0-1.023-0.195-1.414-0.586l-4.939-4.94c-0.781-0.781-0.781-2.047,0-2.828
			c0.781-0.781,2.047-0.781,2.828,0l4.939,4.94c0.781,0.781,0.781,2.047,0,2.828C99.993,78.274,99.481,78.47,98.97,78.47z"/>
	</g>
	<g>
		<path class="st48" d="M80.5,68.5c-1.104,0-2-0.896-2-2v-7c0-1.104,0.896-2,2-2s2,0.896,2,2v7C82.5,67.604,81.604,68.5,80.5,68.5z"
			/>
	</g>
	<g>
		<path class="st49" d="M26.5,115.5c-1.104,0-2-0.896-2-2v-7c0-1.104,0.896-2,2-2s2,0.896,2,2v7
			C28.5,114.604,27.604,115.5,26.5,115.5z"/>
	</g>
</g>
</svg>
