<?xml version="1.0" encoding="utf-8"?>
<!-- Generator: Adobe Illustrator 19.2.1, SVG Export Plug-In . SVG Version: 6.00 Build 0)  -->
<svg version="1.1" id="Layer_1" xmlns="http://www.w3.org/2000/svg" xmlns:xlink="http://www.w3.org/1999/xlink" x="0px" y="0px"
	 viewBox="0 0 136 150" style="enable-background:new 0 0 136 150;" xml:space="preserve">
<style type="text/css">
	.st0{fill:#BD1E2D;}
	.st1{fill:#FFFFFF;}
	.st2{fill:#E5E6E7;}
	.st3{fill:#C32C3B;}
	.st4{fill:#8D180F;}
	.st5{fill:#FEFEFE;}
	.st6{fill:#F0F1F0;}
	.st7{fill:#D0D2D3;}
	.st8{fill:#A2FFA3;}
	.st9{fill:#98F19A;}
	.st10{fill:#C9FFCF;}
	.st11{fill:#BAF0BD;}
	.st12{fill:#569767;}
	.st13{fill:#FFBBF3;}
	.st14{fill:#88DEDE;}
	.st15{fill:#F0F1F1;}
	.st16{fill:#72CED3;}
	.st17{fill:#FFA4F3;}
	.st18{fill:#A6A8AB;}
	.st19{fill:#F1DBBF;}
	.st20{fill:#E0CCB0;}
	.st21{fill:#CAB79C;}
	.st22{fill:#E783B9;}
	.st23{fill:#FFC94D;}
	.st24{fill:#FFD056;}
	.st25{fill:#FFBB15;}
	.st26{fill:#73C6FF;}
	.st27{fill:#73BAFF;}
	.st28{fill:#83CBFF;}
	.st29{fill:#6294BC;}
	.st30{fill:#F26F61;}
	.st31{fill:#FFDB9D;}
	.st32{fill:#E8BC7A;}
	.st33{fill:#FECD85;}
	.st34{fill:#F3F4F4;}
	.st35{fill:#F47B6C;}
	.st36{fill:#E6695C;}
	.st37{fill:#58595B;}
	.st38{fill:#989A9D;}
	.st39{fill:#808184;}
	.st40{fill:#6D6E71;}
	.st41{fill:#4B6984;}
	.st42{fill:#BBBDBF;}
	.st43{fill:#F6F6F6;}
	.st44{fill:#C1C3C4;}
	.st45{fill:#56C681;}
	.st46{fill:#E75C54;}
	.st47{fill:#929497;}
	.st48{fill:#A13021;}
	.st49{fill:#BB6388;}
	.st50{fill:#DCA0FF;}
	.st51{fill:#73DEEF;}
	.st52{fill:#73D1E5;}
	.st53{fill:#DC92FF;}
	.st54{fill:#726097;}
	.st55{fill:#FFF5DC;}
	.st56{fill:#A8AAAC;}
	.st57{fill:#637564;}
	.st58{fill:#5D6061;}
	.st59{fill:#626566;}
	.st60{fill:#727376;}
	.st61{fill:#C85049;}
	.st62{fill:#809C4D;}
	.st63{fill:#A38062;}
	.st64{fill:#67564D;}
	.st65{fill:#5E4E46;}
	.st66{fill:#76914C;}
	.st67{fill:#99785C;}
	.st68{fill:#606C4E;}
	.st69{fill:#715842;}
	.st70{fill:#594A42;}
	.st71{fill:#BCBEC0;}
	.st72{fill:#A31C5C;}
	.st73{fill:#8C973F;}
	.st74{fill:#D9DADB;}
	.st75{fill:#858F39;}
	.st76{fill:#95A041;}
	.st77{fill:#505153;}
	.st78{fill:#606163;}
	.st79{fill:#8D0058;}
	.st80{fill:#797A7D;}
	.st81{fill:#414042;}
	.st82{fill:#6C0A42;}
	.st83{fill:#6BC287;}
	.st84{fill:#6BB787;}
	.st85{fill:#EFA4C8;}
	.st86{fill:#4EC4CC;}
	.st87{fill:#3DB2C1;}
	.st88{fill:#EF95C8;}
	.st89{fill:#55726D;}
</style>
<g>
	<g>
		<path class="st83" d="M102.32,37.45c-1.75-1.44-3.33-3.09-4.71-4.8L97.16,33C96.45,33.63,96,34.55,96,35.57
			c0,1.89,1.54,3.43,3.43,3.43c1.02,0,1.94-0.45,2.57-1.16L102.32,37.45z M36,119.58h-0.3c-6.87-2.63-13.06-6.97-17.89-12.74
			l-3.23-3.85C10.2,97.76,6.8,91.84,4.5,85.52S1,72.48,1,65.66c0-2.85,3.17-4.28,5.29-2.84c0.29,0.19,0.55,0.43,0.79,0.73l4.16,5.26
			l1.62,2.05c2.37,3,5.48,5.09,8.89,6.21c4.46,1.48,9.43,1.28,13.87-0.79c0.64-0.29,1.27-0.63,1.88-1c3.56-2.17,7.39-4.53,11-6.78
			c4.77-2.98,9.14-5.79,11.98-7.78c0.52-0.36,0.98-0.7,1.39-1c0.2-0.15,0.39-0.3,0.58-0.45c3.77-3.08,5.6-7.52,6.42-12.02
			c0.06-0.31,0.11-0.62,0.15-0.92c0.4-2.56,0.48-5.11,0.43-7.42v-5.45c0-0.43,0.01-0.86,0.03-1.29c0.22-5.11,1.74-9.88,4.24-13.99
			c2.57-4.22,6.18-7.76,10.47-10.23c3.64-2.11,7.77-3.46,12.19-3.83C97.22,4.04,98.07,4,98.93,4h16.45c5.42,0,10.32,2.54,13.88,6.44
			C132.8,14.34,135,19.58,135,25c0,10.42-8.45,18-18.88,18H116h-10h-0.47C99.16,43,94,48.16,94,54.53v0.9v11.13v6.74V75l-0.1,0.2
			l12.04,6.4c1.7,0.75,2.46,2.75,1.7,4.45c-0.56,1.25-1.79,1.99-3.08,1.99c-0.45,0-0.92-0.09-1.37-0.29l-8.85-2.94L94,85.83
			c0.09,10.55-6.52,19.88-14.9,26.58l-0.6,0.47c-0.82,0.65-1.65,1.27-2.5,1.85c-4.11,2.84-8.67,4.94-13.46,6.22
			c-1.92,0.51-3.89,0.9-5.88,1.15c-1.12,0.14-1.99,0.89-2.91,1.55c-3.19,2.31-6.01,5.87-8.04,9.41c-2.03,3.53-3.26,7.02-3.26,9.2
			h3.27c0.93,0,1.77,0.38,2.38,0.99c0.61,0.61,0.99,1.45,0.99,2.38c0,1.86-1.51,3.37-3.37,3.37h-5.49c-2.34,0-4.23-1.89-4.23-4.23
			V119.58z M124,31c0-0.55-0.45-1-1-1s-1,0.45-1,1s0.45,1,1,1S124,31.55,124,31z"/>
		<path class="st84" d="M106.56,67.52c1.86,0,3.38,1.51,3.38,3.37c0,0.93-0.38,1.78-0.99,2.39s-1.46,0.99-2.39,0.99L95.47,73.3H94
			v-6.74h1.47L106.56,67.52z"/>
		<path class="st85" d="M102.32,37.45L102,37.84c-0.63,0.71-1.55,1.16-2.57,1.16C97.54,39,96,37.46,96,35.57
			c0-1.02,0.45-1.94,1.16-2.57l0.45-0.35C98.99,34.36,100.57,36.01,102.32,37.45z"/>
		<path class="st86" d="M96.37,4l0.01,0.12c-4.42,0.37-8.55,1.72-12.19,3.83L84,7.62c-0.16-0.13-0.34-0.25-0.51-0.36L84.04,7
			c0.38-3.38,3.24-6,6.71-6C93.1,1,95.16,2.19,96.37,4z"/>
		<path class="st86" d="M84,7.62l0.19,0.33c-4.29,2.47-7.9,6.01-10.47,10.23l-0.08-0.07c-0.15-0.04-0.3-0.07-0.45-0.1
			c-1.09-1.27-1.73-2.88-1.73-4.64C71.46,9.3,74.92,6,79.18,6c1.59,0,3.08,0.47,4.31,1.26C83.66,7.37,83.84,7.49,84,7.62z"/>
		<path class="st83" d="M81.01,143.25c0.61,0.61,0.99,1.45,0.99,2.38c0,1.86-1.51,3.37-3.37,3.37h-6.4c-2.34,0-4.23-1.89-4.23-4.23
			v-1.04c0.31-8.63-0.2-15.78-4-22.73l-1.46-0.05c4.79-1.28,9.35-3.38,13.46-6.22v27.53h2.63C79.56,142.26,80.4,142.64,81.01,143.25
			z"/>
		<path class="st86" d="M73.19,18.01c0.15,0.03,0.3,0.06,0.45,0.1l0.08,0.07c-2.5,4.11-4.02,8.88-4.24,13.99L69,32.16
			c-0.08-0.03-0.16-0.06-0.24-0.1C65.97,30.95,64,28.32,64,25.25c0-4.07,3.45-7.37,7.71-7.37C72.22,17.88,72.71,17.93,73.19,18.01z"
			/>
		<path class="st86" d="M69.48,32.17c-0.02,0.43-0.03,0.86-0.03,1.29v5.45c0.05,2.31-0.03,4.86-0.43,7.42l-0.58-0.09
			C65.29,45.31,63,42.51,63,39.19c0-3.43,2.44-6.31,5.76-7.13c0.08,0.04,0.16,0.07,0.24,0.1L69.48,32.17z"/>
		<path class="st86" d="M68,47.1l0.87,0.15c-0.82,4.5-2.65,8.94-6.42,12.02L61,59.33c-1.24-1.31-2-3.05-2-4.96
			C59,50.3,62.45,47,66.71,47C67.15,47,67.58,47.03,68,47.1z"/>
		<path class="st86" d="M60,59.93l0.48,0.79c-2.84,1.99-7.21,4.8-11.98,7.78l-0.01-0.01c-0.22-0.23-0.44-0.45-0.69-0.65l0.18-0.22
			c-0.31-0.79-0.48-1.64-0.48-2.53c0-3.92,3.32-7.09,7.41-7.09C56.88,58,58.67,58.73,60,59.93z"/>
		<path class="st86" d="M35.23,75.14C35.08,74.58,35,73.98,35,73.37C35,69.3,38.45,66,42.71,66c1.95,0,3.74,0.7,5.09,1.84
			c0.25,0.2,0.47,0.42,0.69,0.65l0.01,0.01c-3.61,2.25-7.44,4.61-11,6.78c-0.61,0.37-1.24,0.71-1.88,1L35.5,76
			C35.39,75.72,35.3,75.44,35.23,75.14z"/>
		<path class="st86" d="M35.5,76l0.12,0.28c-4.44,2.07-9.41,2.27-13.87,0.79l0.27-0.88c0.16-0.31,0.33-0.6,0.53-0.88
			c1.39-1.97,3.74-3.26,6.41-3.26c2.58,0,4.87,1.21,6.27,3.09C35.3,75.44,35.39,75.72,35.5,76z"/>
		<path class="st84" d="M129.26,10.44C125.7,6.54,120.8,4,115.38,4h-8c5.42,0,10.32,2.54,13.88,6.44C124.8,14.34,127,19.58,127,25
			c0,10.42-8.45,18-18.88,18H116h0.12C126.55,43,135,35.42,135,25C135,19.58,132.8,14.34,129.26,10.44z"/>
		<path class="st86" d="M22.21,75.23l0.34,0.08c-0.2,0.28-0.37,0.57-0.53,0.88l-0.27,0.88c-3.41-1.12-6.52-3.21-8.89-6.21
			l-1.62-2.05l0.53-0.42c0.01-0.01,0.02-0.02,0.03-0.03l0.11,0.13c0.85-0.31,1.77-0.49,2.74-0.49C18.82,68,22.21,71.24,22.21,75.23z
			"/>
		<g>
			<path class="st84" d="M105.94,81.6l-11.397-6.058L92.34,74.81L92,75.83c0.09,10.55-6.52,19.88-14.9,26.58l-0.6,0.47
				c-0.82,0.65-1.65,1.27-2.5,1.85c-4.11,2.84-8.67,4.94-13.46,6.22c-1.92,0.51-3.89,0.9-5.88,1.15
				c-1.12,0.14-13.436,0.68-20.66-2.52c-0.93-0.412-13.36-6.97-18.19-12.74l-3.23-3.85C8.2,87.76,4.8,81.84,2.5,75.52
				c-0.421-1.156-0.792-2.33-1.138-3.511C1.871,76.636,2.918,81.174,4.5,85.52c2.3,6.32,5.7,12.24,10.08,17.47l3.23,3.85
				c4.83,5.77,11.02,10.11,17.89,12.74H36v25.19c0,2.34,1.89,4.23,4.23,4.23h5.49c1.86,0,3.37-1.51,3.37-3.37
				c0-0.93-0.38-1.77-0.99-2.38c-0.61-0.61-1.45-0.99-2.38-0.99h-3.27c0-2.18,1.23-5.67,3.26-9.2c2.03-3.54,4.85-7.1,8.04-9.41
				c0.92-0.66,1.79-1.41,2.91-1.55c1.99-0.25,3.96-0.64,5.88-1.15c4.79-1.28,9.35-3.38,13.46-6.22c0.85-0.58,1.68-1.2,2.5-1.85
				l0.6-0.47c8.38-6.7,14.99-16.03,14.9-26.58l0.34-1.02l8.85,2.94c0.45,0.2,0.92,0.29,1.37,0.29c1.29,0,2.52-0.74,3.08-1.99
				C108.4,84.35,107.64,82.35,105.94,81.6z"/>
		</g>
		<path class="st86" d="M9.15,61.62c2.22,0,4.02,1.73,4.02,3.85c0,1.09-0.47,2.07-1.23,2.77c-0.05,0.04-0.09,0.08-0.14,0.12
			c-0.01,0.01-0.02,0.02-0.03,0.03l-0.53,0.42l-4.16-5.26c-0.24-0.3-0.5-0.54-0.79-0.73l0.09-0.13l0.4-0.33
			C7.45,61.9,8.27,61.62,9.15,61.62z"/>
		<g>
			<path class="st87" d="M88.26,2.05c2.109,0,3.979,0.963,5.216,2.468c0.953-0.177,1.92-0.315,2.904-0.398L96.37,4
				c-1.21-1.81-3.27-3-5.62-3c-1.41,0-2.716,0.438-3.799,1.179C87.375,2.095,87.812,2.05,88.26,2.05z"/>
		</g>
		<path class="st87" d="M71.71,20.71c0.216,0,0.427,0.013,0.637,0.03c0.42-0.876,0.871-1.734,1.373-2.56l-0.08-0.07
			c-0.15-0.04-0.3-0.07-0.45-0.1c-0.48-0.08-0.97-0.13-1.48-0.13c-4.26,0-7.71,3.3-7.71,7.37c0,0.473,0.062,0.931,0.151,1.379
			C64.856,23.254,67.97,20.71,71.71,20.71z"/>
		<g>
			<path class="st87" d="M68.76,35c0.08,0.04,0.16,0.07,0.24,0.1l0.45,0.009V33.46c0-0.43,0.01-0.86,0.03-1.29L69,32.16
				c-0.08-0.03-0.16-0.06-0.24-0.1c-3.32,0.82-5.76,3.7-5.76,7.13c0,0.497,0.066,0.977,0.165,1.446
				C63.755,37.887,65.936,35.697,68.76,35z"/>
			<path class="st87" d="M69.45,41.015c0.013-0.717,0.015-1.424,0-2.105V41.015z"/>
		</g>
		<path class="st87" d="M66.71,49.67c0.44,0,0.87,0.03,1.29,0.1l0.267,0.046c0.238-0.848,0.446-1.704,0.603-2.566L68,47.1
			c-0.42-0.07-0.85-0.1-1.29-0.1C62.45,47,59,50.3,59,54.37c0,0.46,0.046,0.91,0.131,1.347C59.783,52.279,62.924,49.67,66.71,49.67z
			"/>
		<path class="st87" d="M10.766,61.95c0.498,0.641,0.803,1.427,0.803,2.285c0,1.09-0.47,2.07-1.23,2.77
			c-0.05,0.04-0.09,0.08-0.14,0.12c-0.01,0.01-0.02,0.02-0.03,0.03l-0.146,0.116l1.217,1.539l0.53-0.42
			c0.01-0.01,0.02-0.02,0.03-0.03c0.05-0.04,0.09-0.08,0.14-0.12c0.76-0.7,1.23-1.68,1.23-2.77
			C13.17,63.9,12.18,62.548,10.766,61.95z"/>
		<path class="st87" d="M52.561,59.747c1.97,0,3.76,0.73,5.09,1.93l0.606,0.56c0.812-0.543,1.562-1.054,2.222-1.517L60,59.93
			c-1.33-1.2-3.12-1.93-5.09-1.93c-2.254,0-4.27,0.966-5.63,2.486C50.271,60.017,51.382,59.747,52.561,59.747z"/>
		<path class="st87" d="M40.226,67.62c1.95,0,3.74,0.7,5.09,1.84c0.236,0.189,0.444,0.398,0.652,0.614
			c0.851-0.528,1.699-1.054,2.533-1.574l-0.01-0.01c-0.22-0.23-0.44-0.45-0.69-0.65C46.45,66.7,44.66,66,42.71,66
			c-2.153,0-4.096,0.844-5.495,2.203C38.14,67.828,39.157,67.62,40.226,67.62z"/>
		<path class="st87" d="M26.396,73.009c2.58,0,4.889,0.997,6.27,3.09c0.145,0.219,0.494,0.881,0.594,1.071
			c0.798-0.248,1.589-0.53,2.361-0.89L35.5,76c-0.11-0.28-0.2-0.56-0.27-0.86c-1.4-1.88-3.69-3.09-6.27-3.09
			c-1.49,0-2.872,0.413-4.051,1.11C25.391,73.07,25.885,73.009,26.396,73.009z"/>
		<g>
			<path class="st87" d="M77.18,8c1.59,0,3.08,0.47,4.31,1.26c0.109,0.071,0.218,0.152,0.328,0.231
				c0.767-0.547,1.553-1.07,2.372-1.541L84,7.62c-0.16-0.13-0.34-0.25-0.51-0.36C82.26,6.47,80.77,6,79.18,6
				c-2.719,0-5.107,1.348-6.483,3.379C73.962,8.514,75.507,8,77.18,8z"/>
		</g>
		<path class="st88" d="M100.63,35.933l-0.065,0.079c-0.63,0.71-1.55,1.16-2.57,1.16c-0.664,0-1.279-0.198-1.804-0.526
			C96.645,38.008,97.918,39,99.43,39c1.02,0,1.94-0.45,2.57-1.16l0.32-0.39C101.735,36.968,101.176,36.456,100.63,35.933z"/>
		<path class="st87" d="M22.21,75.23c0-3.99-3.39-7.23-7.56-7.23c-0.382,0-0.754,0.035-1.12,0.088c3.639,0.52,6.44,3.517,6.44,7.142
			c0,0-0.044,0.647-0.161,1.069c0.635,0.289,1.28,0.554,1.941,0.771l0.27-0.88c0.16-0.31,0.33-0.6,0.53-0.88L22.21,75.23z"/>
		<g>
			<path class="st84" d="M66.616,127.421c3.284-1.104,6.439-2.594,9.384-4.458v-8.233c-4.11,2.84-8.67,4.94-13.46,6.22L64,121
				C65.154,123.11,66,125.239,66.616,127.421z"/>
		</g>
	</g>
	<g>
		<path class="st89" d="M129.998,9.766C126.017,5.403,120.824,3,115.38,3H98.93c-0.675,0-1.346,0.032-2.007,0.079
			C95.461,1.149,93.193,0,90.75,0c-3.635,0-6.725,2.511-7.539,5.972C81.964,5.345,80.593,5,79.18,5c-4.808,0-8.72,3.755-8.72,8.37
			c0,1.253,0.281,2.451,0.808,3.531C66.671,17.125,63,20.778,63,25.25c0,2.672,1.32,5.106,3.432,6.647
			C63.744,33.349,62,36.109,62,39.19c0,2.808,1.425,5.335,3.719,6.868C61.382,46.533,58,50.077,58,54.37
			c0,1.245,0.292,2.457,0.833,3.563C57.635,57.327,56.295,57,54.91,57c-4.638,0-8.41,3.629-8.41,8.09
			c0,0.257,0.013,0.512,0.038,0.765C45.356,65.298,44.049,65,42.71,65c-4.546,0-8.284,3.365-8.671,7.638
			c-1.464-1.012-3.234-1.589-5.079-1.589c-2.255,0-4.383,0.842-5.985,2.296C22.085,69.715,18.695,67,14.65,67
			c-0.257,0-0.514,0.012-0.77,0.034c0.176-0.498,0.289-1.019,0.289-1.564c0-2.674-2.252-4.85-5.02-4.85
			c-1.049,0-2.063,0.316-3.006,0.968l-0.021,0.017c-1.201-0.512-2.594-0.467-3.803,0.174C0.867,62.549,0,64,0,65.66
			c0,6.913,1.198,13.71,3.561,20.201c2.359,6.485,5.81,12.464,10.253,17.771l3.229,3.849C21.82,113.189,28.026,117.633,35,120.37
			v24.4c0,2.884,2.347,5.23,5.23,5.23h5.489c2.41,0,4.37-1.96,4.37-4.37c0-1.163-0.456-2.26-1.282-3.086
			c-0.827-0.828-1.923-1.284-3.088-1.284h-2.188c0.298-2.023,1.409-4.855,3.046-7.703c2.201-3.837,4.956-7.067,7.756-9.094
			l0.388-0.283c0.728-0.536,1.356-0.999,2.064-1.088c1.997-0.251,4.02-0.646,6.013-1.176c0.161-0.043,0.319-0.094,0.479-0.139
			c3.508,6.587,4.033,13.287,3.723,21.953v1.039c0,2.884,2.347,5.23,5.23,5.23h6.399c2.41,0,4.37-1.96,4.37-4.37
			c0-1.163-0.456-2.26-1.282-3.086c-0.827-0.828-1.923-1.284-3.088-1.284H77v-26.014c0.685-0.482,1.38-0.995,2.116-1.579
			l0.607-0.476c9.845-7.871,15.254-17.489,15.27-27.111l7.79,2.582c0.553,0.247,1.167,0.377,1.776,0.377
			c1.724,0,3.291-1.014,3.993-2.582c0.479-1.07,0.511-2.263,0.09-3.357c-0.419-1.089-1.235-1.946-2.232-2.384L95,74.652v-0.469
			c0.115,0.061,0.244,0.101,0.383,0.113l11.177,0.974c1.17,0,2.271-0.455,3.098-1.283c0.827-0.828,1.283-1.928,1.283-3.097
			c0-2.408-1.961-4.366-4.288-4.366c-0.002,0-0.005,0-0.007,0l-11.09-0.96C95.348,65.542,95.165,65.6,95,65.688V54.53
			C95,48.724,99.724,44,105.53,44c0.083,0,0.157-0.028,0.235-0.047C105.843,43.972,105.917,44,106,44h10.12
			C127.268,44,136,35.654,136,25C136,19.521,133.813,13.968,129.998,9.766z M90.75,2c1.369,0,2.663,0.489,3.685,1.341
			c-3.226,0.47-6.317,1.445-9.224,2.919C85.876,3.783,88.114,2,90.75,2z M79.18,7c1.16,0,2.283,0.3,3.29,0.84
			c-3.568,2.288-6.636,5.321-8.985,8.873c-0.661-0.998-1.024-2.134-1.024-3.343C72.46,9.857,75.475,7,79.18,7z M65,25.25
			c0-3.513,3.01-6.37,6.71-6.37c0.148,0,0.301,0.011,0.454,0.021c-2.008,3.685-3.232,7.772-3.588,11.963
			C66.391,29.762,65,27.626,65,25.25z M64,39.19c0-2.713,1.811-5.085,4.456-5.977c-0.001,0.082-0.006,0.165-0.006,0.247v5.472
			c0.049,2.248-0.046,4.258-0.275,6.141C65.662,44.096,64,41.809,64,39.19z M66.71,48c0.348,0,0.661,0.025,0.961,0.067
			c-0.999,4.548-2.959,8.064-5.89,10.457c-0.031,0.025-0.062,0.048-0.094,0.073C60.6,57.427,60,55.93,60,54.37
			C60,50.857,63.01,48,66.71,48z M54.91,59c1.544,0,3,0.535,4.161,1.479c-2.408,1.651-5.835,3.871-10.207,6.612
			c-0.233-0.646-0.364-1.316-0.364-2.001C48.5,61.732,51.376,59,54.91,59z M42.71,67c1.493,0,2.921,0.493,4.106,1.369
			c-3.264,2.029-6.655,4.117-9.835,6.057c-0.246,0.149-0.489,0.284-0.731,0.416c-0.027-0.038-0.056-0.077-0.084-0.116
			C36.061,74.288,36,73.834,36,73.37C36,69.857,39.01,67,42.71,67z M28.96,73.05c2.117,0,4.108,0.961,5.381,2.586
			c0.007,0.026,0.017,0.053,0.025,0.079c-3.601,1.462-7.549,1.7-11.317,0.682c0.104-0.183,0.208-0.354,0.319-0.51
			C24.621,74.11,26.712,73.05,28.96,73.05z M21.21,75.23c0,0.094,0.029,0.178,0.053,0.264c-0.044,0.08-0.088,0.153-0.132,0.238
			c-0.007,0.013-0.005,0.027-0.011,0.039c-2.937-1.151-5.509-3.043-7.475-5.532l-0.773-0.978C13.458,69.106,14.052,69,14.65,69
			C18.268,69,21.21,71.795,21.21,75.23z M12.17,65.47c0,0.74-0.301,1.429-0.784,1.913L7.86,62.924
			c-0.005-0.006-0.01-0.01-0.015-0.016c0.41-0.186,0.852-0.288,1.305-0.288C10.815,62.62,12.17,63.898,12.17,65.47z M78.63,143.26
			c0.63,0,1.224,0.247,1.673,0.697S81,145.001,81,145.63c0,1.307-1.063,2.37-2.37,2.37H72.23c-1.781,0-3.23-1.449-3.23-3.23
			l-0.001-1.003c0.307-8.571-0.236-15.724-3.778-22.581c3.439-1.131,6.717-2.666,9.779-4.597v25.672c0,0.553,0.447,1,1,1H78.63z
			 M95.384,67.556l11.176,0.964c1.312,0,2.381,1.063,2.381,2.37c0,0.635-0.248,1.232-0.697,1.683
			c-0.45,0.45-1.048,0.697-1.597,0.701l-11.09-0.97c-0.2-0.018-0.387,0.044-0.557,0.138v-5
			C95.116,67.504,95.245,67.544,95.384,67.556z M116.12,42H116c-5.504,0-10.129-2.892-13.044-5.322
			c-1.601-1.317-3.138-2.884-4.566-4.655c-0.358-0.446-0.697-0.894-1.024-1.34c1.187-0.223,2.313-0.725,3.26-1.482
			c0.431-0.345,0.501-0.974,0.156-1.406c-0.346-0.431-0.974-0.502-1.406-0.156c-1.93,1.545-4.82,1.545-6.75,0
			c-0.433-0.346-1.06-0.274-1.406,0.156c-0.345,0.432-0.274,1.061,0.156,1.406c1.052,0.842,2.327,1.361,3.66,1.537
			c0.029,0.115,0.072,0.229,0.144,0.333c0.334,0.481,0.696,0.967,1.069,1.454C95.463,33.348,95,34.429,95,35.57
			c0,2.443,1.987,4.43,4.43,4.43c1.118,0,2.179-0.446,2.996-1.203c1.673,1.31,3.395,2.382,5.144,3.203H106
			c-0.083,0-0.157,0.028-0.235,0.047C105.688,42.028,105.614,42,105.53,42C98.621,42,93,47.621,93,54.53v19.059l-4.011-2.132
			c-0.491-0.26-1.094-0.075-1.353,0.414c-0.26,0.487-0.074,1.093,0.413,1.352l17.487,9.292c0.572,0.253,1.013,0.716,1.238,1.304
			c0.229,0.595,0.212,1.242-0.049,1.823c-0.38,0.85-1.23,1.398-2.167,1.398c-0.331,0-0.663-0.07-1.054-0.239l-17.422-5.78
			c-0.526-0.171-1.09,0.11-1.264,0.635s0.11,1.09,0.635,1.264l7.622,2.527c-0.05,0.121-0.078,0.254-0.077,0.393
			c0.104,12.253-9.056,21.418-14.517,25.784l-0.604,0.474c-0.859,0.681-1.658,1.272-2.447,1.812
			c-4.013,2.771-8.437,4.816-13.148,6.075c-1.905,0.506-3.839,0.884-5.748,1.124c-1.225,0.153-2.168,0.849-3.001,1.462l-0.37,0.271
			c-3.027,2.191-5.983,5.644-8.321,9.72c-2.124,3.694-3.393,7.32-3.393,9.699c0,0.553,0.447,1,1,1h3.27
			c0.63,0,1.224,0.247,1.673,0.697s0.697,1.044,0.697,1.673c0,1.307-1.063,2.37-2.37,2.37H40.23c-1.781,0-3.23-1.449-3.23-3.23
			v-25.22c0-0.553-0.447-0.985-1-0.985c-0.033,0-0.06,0.016-0.092,0.019c-6.736-2.608-12.728-6.886-17.333-12.386l-3.229-3.849
			c-4.294-5.128-7.627-10.905-9.907-17.171C3.157,78.906,2,72.339,2,65.66c0-0.92,0.458-1.69,1.257-2.114
			c0.805-0.426,1.752-0.387,2.485,0.11c0.201,0.132,0.383,0.301,0.554,0.514l5.779,7.31c2.419,3.062,5.656,5.323,9.36,6.54
			c4.828,1.601,10.016,1.307,14.598-0.828c0.644-0.292,1.312-0.647,1.987-1.058c3.562-2.172,7.396-4.533,11.01-6.786
			c5.38-3.362,9.426-5.989,12.021-7.806c0.457-0.317,0.869-0.619,1.242-0.892l0.178-0.13c0.188-0.142,0.368-0.283,0.612-0.475
			c3.486-2.849,5.765-7.093,6.77-12.606c0.063-0.33,0.117-0.66,0.155-0.954c0.358-2.292,0.503-4.777,0.442-7.574v-5.45
			c0-0.414,0.01-0.828,0.029-1.247c0.205-4.774,1.621-9.447,4.095-13.513c2.491-4.09,5.988-7.508,10.118-9.885
			c3.629-2.104,7.589-3.349,11.782-3.7C97.279,5.039,98.105,5,98.93,5h16.45c4.876,0,9.543,2.171,13.14,6.112
			C132.002,14.949,134,20.011,134,25C134,34.691,126.313,42,116.12,42z M97.516,34.085c1.073,1.257,2.198,2.406,3.36,3.433
			C100.459,37.828,99.953,38,99.43,38C98.09,38,97,36.91,97,35.57C97,35.029,97.187,34.51,97.516,34.085z"/>
		<path class="st89" d="M107.5,13.5c-3.584,0-6.5,2.916-6.5,6.5c0,0.552,0.447,1,1,1s1-0.448,1-1c0-2.481,2.019-4.5,4.5-4.5
			s4.5,2.019,4.5,4.5c0,0.552,0.447,1,1,1s1-0.448,1-1C114,16.416,111.084,13.5,107.5,13.5z"/>
		<path class="st89" d="M123,29c-1.103,0-2,0.897-2,2s0.897,2,2,2s2-0.897,2-2S124.103,29,123,29z M123.001,31.003
			C123,31.002,123,31.001,123,31h1L123.001,31.003z"/>
	</g>
</g>
</svg>
