<?xml version="1.0" encoding="utf-8"?>
<!-- Generator: Adobe Illustrator 19.2.1, SVG Export Plug-In . SVG Version: 6.00 Build 0)  -->
<svg version="1.1" id="Layer_1" xmlns="http://www.w3.org/2000/svg" xmlns:xlink="http://www.w3.org/1999/xlink" x="0px" y="0px"
	 viewBox="0 0 61.001 150" style="enable-background:new 0 0 61.001 150;" xml:space="preserve">
<style type="text/css">
	.st0{fill:#96B98A;}
	.st1{fill:#E1B98A;}
	.st2{fill:#87A77C;}
	.st3{fill:#CCA87E;}
	.st4{fill:#E9BACE;}
	.st5{fill:#FFFFFF;}
	.st6{fill:#F1F2F2;}
	.st7{fill:#CFA6B9;}
	.st8{fill:#947A7C;}
	.st9{fill:#59A7F1;}
	.st10{fill:#F0F1F1;}
	.st11{fill:#59B4FF;}
	.st12{fill:#23C7E3;}
	.st13{fill:#FFED98;}
	.st14{fill:#DBDCDD;}
	.st15{fill:#23B4D1;}
	.st16{fill:#4795F1;}
	.st17{fill:#FEDB8B;}
	.st18{fill:#2270CC;}
	.st19{fill:#FFD624;}
	.st20{fill:#FFB724;}
	.st21{fill:#14DB84;}
	.st22{fill:#14AF68;}
	.st23{fill:#58595B;}
	.st24{fill:#8AA860;}
	.st25{fill:#FF899B;}
	.st26{fill:#FF7A8E;}
	.st27{fill:#7E9B57;}
	.st28{fill:#FFB8C6;}
	.st29{fill:#845B5F;}
</style>
<g>
	<g>
		<path class="st24" d="M44.757,25.981c-1.309-1.82-2.931-3.478-4.67-4.904c-0.513-0.421-1.046-0.815-1.587-1.196
			c-0.129-0.091-0.259-0.182-0.39-0.271c-0.543-0.369-1.095-0.723-1.662-1.051c-0.051-0.029-0.103-0.055-0.154-0.084
			c-0.53-0.302-1.073-0.581-1.623-0.846c-0.139-0.067-0.278-0.135-0.419-0.199c-0.593-0.272-1.194-0.527-1.807-0.755
			c-0.09-0.034-0.183-0.062-0.274-0.094c-0.551-0.198-1.109-0.375-1.674-0.536c-0.143-0.041-0.285-0.083-0.429-0.122
			c-0.101-0.027-0.199-0.06-0.3-0.085l-0.168-0.021c-1.981-0.487-4.035-0.764-6.146-0.764s-4.165,0.276-6.146,0.764l-0.168,0.021
			c-0.101,0.026-0.2,0.058-0.3,0.085c-0.144,0.038-0.286,0.081-0.429,0.121c-0.566,0.161-1.125,0.339-1.676,0.537
			c-0.09,0.032-0.182,0.06-0.271,0.094c-0.613,0.228-1.215,0.483-1.808,0.756c-0.14,0.065-0.279,0.132-0.418,0.199
			c-0.55,0.265-1.093,0.544-1.623,0.846c-0.051,0.029-0.104,0.055-0.154,0.084c-0.568,0.328-1.12,0.682-1.663,1.051
			c-0.131,0.089-0.26,0.179-0.389,0.27c-0.541,0.382-1.074,0.776-1.588,1.196c-1.739,1.426-3.361,3.083-4.67,4.904
			c-0.48,0.668,0.232,1.568,0.907,1.146l3.524-2.204c0.46-0.287,1.036,0.058,1.057,0.633l0.152,4.057
			c0.025,0.668,0.77,0.984,1.204,0.511l4.725-5.14c0.324-0.352,0.866-0.281,1.103,0.145l3.371,7.736
			c0.262,0.601,1.049,0.605,1.315,0.005l3.345-5.309c0.276-0.484,0.923-0.484,1.199,0l3.345,5.309
			c0.266,0.599,1.053,0.596,1.315-0.005l3.371-7.736c0.237-0.426,0.779-0.498,1.103-0.145l4.725,5.14
			c0.435,0.473,1.179,0.157,1.204-0.511l0.152-4.057c0.022-0.576,0.598-0.921,1.057-0.633l3.524,2.204
			C44.525,27.549,45.237,26.649,44.757,25.981z"/>
		<path class="st25" d="M41.067,25.52c6.25,7.58,6.69,19.33,0.77,27.72l-15.06,20.013c-1.65,2.33-4.88,2.33-6.53,0L5.187,53.24
			c-5.97-8.47-5.47-20.36,0.95-27.93l0.61-0.39c0.46-0.28,1.03,0.06,1.05,0.64l0.15,4.05c0.03,0.67,0.77,0.99,1.2,0.51l4.71-5.14
			c0.32-0.35,0.86-0.28,1.1,0.15l3.35,7.74c0.26,0.6,1.05,0.6,1.31,0l3.33-5.31c0.28-0.48,0.92-0.48,1.2,0l3.33,5.31
			c0.26,0.6,1.04,0.6,1.31,0l3.35-7.74c0.24-0.43,0.78-0.5,1.1-0.15l4.7,5.14c0.44,0.48,1.18,0.16,1.2-0.51l0.16-4.05
			c0.02-0.58,0.59-0.92,1.05-0.64l0.79,0.49v0.01L41.067,25.52z"/>
		<g>
			<path class="st26" d="M26.247,73.253L11.187,53.24c-4.803-6.815-5.41-15.84-2.124-23.051c-0.436,0.362-1.088,0.05-1.116-0.579
				l-0.15-4.05c-0.02-0.58-0.59-0.92-1.05-0.64l-0.61,0.39c-6.42,7.57-6.92,19.46-0.95,27.93l15.06,20.013
				c1.57,2.218,4.557,2.299,6.265,0.295C26.426,73.446,26.327,73.365,26.247,73.253z"/>
		</g>
		<g>
			<path class="st27" d="M7.637,25.556l0.137,3.649c1.193-1.514,2.58-2.91,4.066-4.128c0.514-0.421,1.046-0.815,1.588-1.196
				c0.129-0.091,0.259-0.181,0.389-0.27c0.543-0.369,1.095-0.723,1.663-1.051c0.051-0.029,0.103-0.055,0.154-0.084
				c0.53-0.302,1.073-0.581,1.623-0.846c0.139-0.067,0.278-0.134,0.418-0.199c0.593-0.273,1.195-0.527,1.808-0.756
				c0.09-0.033,0.181-0.061,0.271-0.094c0.551-0.198,1.111-0.376,1.676-0.537c0.143-0.041,0.285-0.083,0.429-0.121
				c0.101-0.027,0.199-0.06,0.3-0.085l0.168-0.021c1.981-0.487,4.035-0.764,6.146-0.764s4.165,0.276,6.146,0.764l0.168,0.021
				c0.101,0.026,0.199,0.058,0.3,0.085c0.144,0.038,0.286,0.081,0.429,0.122c0.565,0.161,1.124,0.338,1.674,0.536
				c0.091,0.033,0.183,0.061,0.274,0.094c0.613,0.228,1.214,0.483,1.807,0.755c0.141,0.065,0.279,0.132,0.419,0.199
				c0.55,0.265,1.093,0.544,1.623,0.846c0.051,0.029,0.104,0.055,0.154,0.084c0.265,0.153,0.517,0.327,0.776,0.491
				c-0.69-0.694-1.409-1.359-2.158-1.973c-0.513-0.421-1.046-0.815-1.587-1.196c-0.129-0.091-0.259-0.182-0.39-0.271
				c-0.543-0.369-1.095-0.723-1.662-1.051c-0.051-0.029-0.103-0.055-0.154-0.084c-0.53-0.302-1.073-0.581-1.623-0.846
				c-0.139-0.067-0.278-0.135-0.419-0.199c-0.593-0.272-1.194-0.527-1.807-0.755c-0.09-0.034-0.183-0.062-0.274-0.094
				c-0.551-0.198-1.109-0.375-1.674-0.536c-0.143-0.041-0.285-0.083-0.429-0.122c-0.101-0.027-0.199-0.06-0.3-0.085l-0.168-0.021
				c-1.981-0.487-4.035-0.764-6.146-0.764s-4.165,0.276-6.146,0.764l-0.168,0.021c-0.101,0.026-0.2,0.058-0.3,0.085
				c-0.144,0.038-0.286,0.081-0.429,0.121c-0.566,0.161-1.125,0.339-1.676,0.537c-0.09,0.032-0.182,0.06-0.271,0.094
				c-0.613,0.228-1.215,0.483-1.808,0.756c-0.14,0.065-0.279,0.132-0.418,0.199c-0.55,0.265-1.093,0.544-1.623,0.846
				c-0.051,0.029-0.104,0.055-0.154,0.084c-0.568,0.328-1.12,0.682-1.663,1.051c-0.131,0.089-0.26,0.179-0.389,0.27
				c-0.541,0.382-1.074,0.776-1.588,1.196c-1.739,1.426-3.361,3.083-4.67,4.904c-0.48,0.668,0.232,1.568,0.907,1.146l3.524-2.204
				C7.039,24.635,7.615,24.98,7.637,25.556z"/>
		</g>
		<g>
			<path class="st28" d="M39.537,38.37c0.58,0.48,0.68,1.41,0.23,2.04l-1.01,1.44c-0.11,0.16-0.32,0.16-0.43,0l-1.01-1.44
				c-0.45-0.63-0.35-1.56,0.23-2.04c0.28-0.23,0.62-0.37,0.99-0.37C38.917,38,39.257,38.14,39.537,38.37z"/>
			<path class="st28" d="M34.507,46.37c0.58,0.48,0.68,1.41,0.23,2.05l-1.01,1.43c-0.11,0.16-0.32,0.16-0.43,0l-1.01-1.43
				c-0.45-0.64-0.35-1.57,0.23-2.05c0.28-0.23,0.62-0.36,1-0.36C33.887,46.01,34.227,46.14,34.507,46.37z"/>
			<path class="st28" d="M29.527,38.37c0.58,0.48,0.68,1.41,0.23,2.04l-1.01,1.44c-0.11,0.16-0.32,0.16-0.43,0l-1.01-1.44
				c-0.45-0.63-0.35-1.56,0.23-2.04c0.28-0.23,0.62-0.37,1-0.37C28.907,38,29.247,38.14,29.527,38.37z"/>
			<path class="st28" d="M29.527,54.4c0.58,0.48,0.68,1.41,0.23,2.05l-1.01,1.43c-0.11,0.16-0.32,0.16-0.43,0l-1.01-1.43
				c-0.45-0.64-0.35-1.57,0.23-2.05c0.28-0.23,0.62-0.36,1-0.36C28.907,54.04,29.247,54.17,29.527,54.4z"/>
			<path class="st28" d="M24.527,62.37c0.59,0.49,0.68,1.41,0.23,2.05l-1,1.44c-0.11,0.15-0.33,0.15-0.44,0l-1-1.44
				c-0.45-0.64-0.36-1.56,0.23-2.05c0.27-0.22,0.62-0.36,0.99-0.36C23.907,62.01,24.257,62.15,24.527,62.37z"/>
			<path class="st28" d="M24.507,46.37c0.58,0.48,0.68,1.41,0.23,2.05l-1.01,1.43c-0.11,0.16-0.32,0.16-0.43,0l-1.01-1.43
				c-0.45-0.64-0.35-1.57,0.23-2.05c0.28-0.23,0.62-0.36,1-0.36C23.887,46.01,24.227,46.14,24.507,46.37z"/>
			<path class="st28" d="M19.527,38.37c0.58,0.48,0.68,1.41,0.23,2.04l-1.01,1.44c-0.11,0.16-0.32,0.16-0.43,0l-1.01-1.44
				c-0.45-0.63-0.35-1.56,0.23-2.04c0.28-0.23,0.62-0.37,1-0.37C18.907,38,19.247,38.14,19.527,38.37z"/>
			<path class="st28" d="M19.527,54.4c0.58,0.48,0.68,1.41,0.23,2.05l-1.01,1.43c-0.11,0.16-0.32,0.16-0.43,0l-1.01-1.43
				c-0.45-0.64-0.35-1.57,0.23-2.05c0.28-0.23,0.62-0.36,1-0.36C18.907,54.04,19.247,54.17,19.527,54.4z"/>
			<path class="st28" d="M14.507,46.37c0.58,0.48,0.68,1.41,0.23,2.05l-1.01,1.43c-0.11,0.16-0.32,0.16-0.43,0l-1.01-1.43
				c-0.45-0.64-0.35-1.57,0.23-2.05c0.28-0.23,0.62-0.36,1-0.36C13.887,46.01,14.227,46.14,14.507,46.37z"/>
			<path class="st28" d="M9.527,38.37c0.58,0.48,0.68,1.41,0.23,2.04l-1.01,1.44c-0.11,0.16-0.32,0.16-0.43,0l-1.01-1.44
				c-0.45-0.63-0.35-1.56,0.23-2.04c0.28-0.23,0.62-0.37,1-0.37C8.907,38,9.247,38.14,9.527,38.37z"/>
		</g>
		<path class="st24" d="M16.245,124.019c1.309,1.82,2.931,3.478,4.67,4.904c0.513,0.421,1.046,0.815,1.587,1.196
			c0.129,0.091,0.259,0.182,0.39,0.271c0.543,0.369,1.095,0.723,1.663,1.051c0.051,0.029,0.103,0.055,0.154,0.084
			c0.53,0.302,1.073,0.581,1.623,0.846c0.139,0.067,0.278,0.135,0.419,0.199c0.593,0.272,1.194,0.527,1.807,0.755
			c0.09,0.034,0.183,0.062,0.274,0.094c0.551,0.198,1.109,0.375,1.674,0.536c0.143,0.041,0.285,0.083,0.429,0.122
			c0.101,0.027,0.199,0.06,0.3,0.085l0.168,0.021c1.981,0.487,4.035,0.764,6.146,0.764c2.112,0,4.165-0.276,6.146-0.764l0.168-0.021
			c0.101-0.026,0.2-0.058,0.3-0.085c0.144-0.038,0.286-0.081,0.429-0.121c0.566-0.161,1.125-0.339,1.676-0.537
			c0.09-0.032,0.182-0.06,0.271-0.094c0.613-0.228,1.215-0.483,1.808-0.756c0.14-0.065,0.279-0.132,0.418-0.199
			c0.55-0.265,1.093-0.544,1.623-0.846c0.051-0.029,0.104-0.055,0.154-0.084c0.568-0.328,1.12-0.682,1.663-1.051
			c0.131-0.089,0.26-0.179,0.389-0.27c0.541-0.382,1.074-0.776,1.588-1.196c1.739-1.426,3.361-3.083,4.67-4.904
			c0.48-0.668-0.232-1.568-0.907-1.146l-3.524,2.204c-0.46,0.287-1.036-0.058-1.057-0.633l-0.152-4.057
			c-0.025-0.668-0.77-0.984-1.204-0.511l-4.725,5.14c-0.324,0.352-0.866,0.281-1.103-0.145l-3.371-7.736
			c-0.262-0.601-1.049-0.605-1.315-0.005l-3.345,5.309c-0.276,0.484-0.923,0.484-1.199,0l-3.345-5.309
			c-0.266-0.599-1.053-0.596-1.315,0.005l-3.371,7.736c-0.237,0.426-0.779,0.498-1.103,0.145l-4.725-5.14
			c-0.435-0.473-1.179-0.157-1.204,0.511l-0.152,4.057c-0.022,0.576-0.598,0.921-1.057,0.633l-3.524-2.204
			C16.477,122.451,15.765,123.351,16.245,124.019z"/>
		<path class="st25" d="M19.934,124.48c-6.25-7.58-6.69-19.33-0.77-27.72l15.06-20.013c1.65-2.33,4.88-2.33,6.53,0l15.06,20.013
			c5.97,8.47,5.47,20.36-0.95,27.93l-0.61,0.39c-0.46,0.28-1.03-0.06-1.05-0.64l-0.15-4.05c-0.03-0.67-0.77-0.99-1.2-0.51
			l-4.71,5.14c-0.32,0.35-0.86,0.28-1.1-0.15l-3.35-7.74c-0.26-0.6-1.05-0.6-1.31,0l-3.33,5.31c-0.28,0.48-0.92,0.48-1.2,0
			l-3.33-5.31c-0.26-0.6-1.04-0.6-1.31,0l-3.35,7.74c-0.24,0.43-0.78,0.5-1.1,0.15l-4.7-5.14c-0.44-0.48-1.18-0.16-1.2,0.51
			l-0.16,4.05c-0.02,0.58-0.59,0.92-1.05,0.64l-0.79-0.49v-0.01L19.934,124.48z"/>
		<g>
			<path class="st26" d="M34.754,76.747l15.06,20.013c4.803,6.815,5.41,15.84,2.124,23.051c0.436-0.362,1.088-0.05,1.116,0.579
				l0.15,4.05c0.02,0.58,0.59,0.92,1.05,0.64l0.61-0.39c6.42-7.57,6.92-19.46,0.95-27.93l-15.06-20.013
				c-1.57-2.218-4.557-2.299-6.265-0.295C34.576,76.554,34.675,76.635,34.754,76.747z"/>
		</g>
		<g>
			<path class="st27" d="M53.365,124.444l-0.137-3.649c-1.193,1.514-2.58,2.91-4.066,4.128c-0.514,0.421-1.046,0.815-1.588,1.196
				c-0.129,0.091-0.259,0.181-0.389,0.27c-0.543,0.369-1.095,0.723-1.663,1.051c-0.051,0.029-0.103,0.055-0.154,0.084
				c-0.53,0.302-1.073,0.581-1.623,0.846c-0.139,0.067-0.278,0.134-0.418,0.199c-0.593,0.273-1.195,0.527-1.808,0.756
				c-0.09,0.033-0.181,0.061-0.271,0.094c-0.551,0.198-1.111,0.376-1.676,0.537c-0.143,0.041-0.285,0.083-0.429,0.121
				c-0.101,0.027-0.199,0.06-0.3,0.085l-0.168,0.021c-1.981,0.487-4.035,0.764-6.146,0.764s-4.165-0.276-6.146-0.764l-0.168-0.021
				c-0.101-0.026-0.199-0.058-0.3-0.085c-0.144-0.038-0.286-0.081-0.429-0.122c-0.565-0.161-1.124-0.338-1.674-0.536
				c-0.091-0.033-0.183-0.061-0.274-0.094c-0.613-0.228-1.214-0.483-1.807-0.755c-0.141-0.065-0.279-0.132-0.419-0.199
				c-0.55-0.265-1.093-0.544-1.623-0.846c-0.051-0.029-0.104-0.055-0.154-0.084c-0.265-0.153-0.517-0.327-0.776-0.491
				c0.69,0.694,1.409,1.359,2.158,1.973c0.513,0.421,1.046,0.815,1.587,1.196c0.129,0.091,0.259,0.182,0.39,0.271
				c0.543,0.369,1.095,0.723,1.663,1.051c0.051,0.029,0.103,0.055,0.154,0.084c0.53,0.302,1.073,0.581,1.623,0.846
				c0.139,0.067,0.278,0.135,0.419,0.199c0.593,0.272,1.194,0.527,1.807,0.755c0.09,0.034,0.183,0.062,0.274,0.094
				c0.551,0.198,1.109,0.375,1.674,0.536c0.143,0.041,0.285,0.083,0.429,0.122c0.101,0.027,0.199,0.06,0.3,0.085l0.168,0.021
				c1.981,0.487,4.035,0.764,6.146,0.764c2.112,0,4.165-0.276,6.146-0.764l0.168-0.021c0.101-0.026,0.2-0.058,0.3-0.085
				c0.144-0.038,0.286-0.081,0.429-0.121c0.566-0.161,1.125-0.339,1.676-0.537c0.09-0.032,0.182-0.06,0.271-0.094
				c0.613-0.228,1.215-0.483,1.808-0.756c0.14-0.065,0.279-0.132,0.418-0.199c0.55-0.265,1.093-0.544,1.623-0.846
				c0.051-0.029,0.104-0.055,0.154-0.084c0.568-0.328,1.12-0.682,1.663-1.051c0.131-0.089,0.26-0.179,0.389-0.27
				c0.541-0.382,1.074-0.776,1.588-1.196c1.739-1.426,3.361-3.083,4.67-4.904c0.48-0.668-0.232-1.568-0.907-1.146l-3.524,2.204
				C53.962,125.365,53.386,125.02,53.365,124.444z"/>
		</g>
		<g>
			<path class="st28" d="M21.464,111.63c-0.58-0.48-0.68-1.41-0.23-2.04l1.01-1.44c0.11-0.16,0.32-0.16,0.43,0l1.01,1.44
				c0.45,0.63,0.35,1.56-0.23,2.04c-0.28,0.23-0.62,0.37-0.99,0.37C22.084,112,21.744,111.86,21.464,111.63z"/>
			<path class="st28" d="M26.494,103.63c-0.58-0.48-0.68-1.41-0.23-2.05l1.01-1.43c0.11-0.16,0.32-0.16,0.43,0l1.01,1.43
				c0.45,0.64,0.35,1.57-0.23,2.05c-0.28,0.23-0.62,0.36-1,0.36C27.114,103.99,26.774,103.86,26.494,103.63z"/>
			<path class="st28" d="M31.474,111.63c-0.58-0.48-0.68-1.41-0.23-2.04l1.01-1.44c0.11-0.16,0.32-0.16,0.43,0l1.01,1.44
				c0.45,0.63,0.35,1.56-0.23,2.04c-0.28,0.23-0.62,0.37-1,0.37C32.094,112,31.754,111.86,31.474,111.63z"/>
			<path class="st28" d="M31.474,95.6c-0.58-0.48-0.68-1.41-0.23-2.05l1.01-1.43c0.11-0.16,0.32-0.16,0.43,0l1.01,1.43
				c0.45,0.64,0.35,1.57-0.23,2.05c-0.28,0.23-0.62,0.36-1,0.36C32.094,95.96,31.754,95.83,31.474,95.6z"/>
			<path class="st28" d="M36.474,87.63c-0.59-0.49-0.68-1.41-0.23-2.05l1-1.44c0.11-0.15,0.33-0.15,0.44,0l1,1.44
				c0.45,0.64,0.36,1.56-0.23,2.05c-0.27,0.22-0.62,0.36-0.99,0.36S36.744,87.85,36.474,87.63z"/>
			<path class="st28" d="M36.494,103.63c-0.58-0.48-0.68-1.41-0.23-2.05l1.01-1.43c0.11-0.16,0.32-0.16,0.43,0l1.01,1.43
				c0.45,0.64,0.35,1.57-0.23,2.05c-0.28,0.23-0.62,0.36-1,0.36C37.114,103.99,36.774,103.86,36.494,103.63z"/>
			<path class="st28" d="M41.474,111.63c-0.58-0.48-0.68-1.41-0.23-2.04l1.01-1.44c0.11-0.16,0.32-0.16,0.43,0l1.01,1.44
				c0.45,0.63,0.35,1.56-0.23,2.04c-0.28,0.23-0.62,0.37-1,0.37C42.094,112,41.754,111.86,41.474,111.63z"/>
			<path class="st28" d="M41.474,95.6c-0.58-0.48-0.68-1.41-0.23-2.05l1.01-1.43c0.11-0.16,0.32-0.16,0.43,0l1.01,1.43
				c0.45,0.64,0.35,1.57-0.23,2.05c-0.28,0.23-0.62,0.36-1,0.36C42.094,95.96,41.754,95.83,41.474,95.6z"/>
			<path class="st28" d="M46.494,103.63c-0.58-0.48-0.68-1.41-0.23-2.05l1.01-1.43c0.11-0.16,0.32-0.16,0.43,0l1.01,1.43
				c0.45,0.64,0.35,1.57-0.23,2.05c-0.28,0.23-0.62,0.36-1,0.36C47.114,103.99,46.774,103.86,46.494,103.63z"/>
			<path class="st28" d="M51.474,111.63c-0.58-0.48-0.68-1.41-0.23-2.04l1.01-1.44c0.11-0.16,0.32-0.16,0.43,0l1.01,1.44
				c0.45,0.63,0.35,1.56-0.23,2.04c-0.28,0.23-0.62,0.37-1,0.37C52.094,112,51.754,111.86,51.474,111.63z"/>
		</g>
	</g>
	<g>
		<path class="st29" d="M23.513,76C23.513,76,23.513,76,23.513,76c1.618,0,3.104-0.791,4.063-2.146l15.079-20.037
			c5.357-7.592,5.787-17.787,1.443-25.605c0.482,0.035,0.963-0.127,1.326-0.514c0.6-0.641,0.659-1.587,0.146-2.301
			c-1.299-1.81-2.931-3.523-4.85-5.09c-3.194-2.619-6.795-4.448-10.703-5.436c-0.536-0.139-1.079,0.188-1.215,0.724
			c-0.135,0.535,0.189,1.079,0.725,1.214c3.621,0.916,6.96,2.613,9.927,5.045c1.398,1.143,2.63,2.363,3.673,3.641l-1.37-0.857
			c-0.034-0.028-0.07-0.055-0.109-0.079l-0.801-0.495c-0.514-0.311-1.134-0.326-1.658-0.043c-0.55,0.297-0.892,0.859-0.914,1.499
			l-0.134,3.375l-4.218-4.592c-0.37-0.403-0.896-0.598-1.424-0.535c-0.544,0.063-1.014,0.381-1.289,0.872
			c-0.017,0.03-0.031,0.06-0.045,0.091l-3.147,7.241l-3.099-4.917c-0.313-0.535-0.86-0.854-1.465-0.854s-1.151,0.319-1.448,0.827
			l-3.115,4.945l-3.191-7.33c-0.271-0.485-0.753-0.812-1.29-0.874c-0.531-0.062-1.054,0.132-1.423,0.535l-4.227,4.592l-0.126-3.368
			c-0.021-0.644-0.362-1.206-0.911-1.504c-0.526-0.285-1.146-0.269-1.68,0.054l-2.263,1.421c1.043-1.278,2.274-2.5,3.675-3.645
			c4.629-3.796,10.161-5.803,15.999-5.803h0.469c-0.127,0.996-0.356,1.975-0.687,2.919c-0.183,0.521,0.092,1.092,0.612,1.275
			c0.109,0.038,0.222,0.057,0.331,0.057c0.413,0,0.8-0.258,0.943-0.669c0.51-1.455,0.812-2.978,0.896-4.576
			c0.01-0.291,0.02-0.573,0.02-0.865c0-5.654-2.878-11.03-7.512-14.029c-0.464-0.3-1.083-0.167-1.383,0.296
			c-0.3,0.464-0.167,1.083,0.297,1.383c4.031,2.61,6.546,7.279,6.593,12.21h-0.58c-6.307,0-12.277,2.164-17.266,6.256
			c-1.92,1.569-3.552,3.282-4.849,5.09c-0.515,0.715-0.456,1.662,0.144,2.303c0.402,0.428,0.946,0.596,1.477,0.507
			c-4.275,7.779-3.873,18.114,1.429,25.636L19.43,73.831C20.407,75.209,21.895,76,23.513,76z M6.659,26.27l0.127,3.384
			c0.032,0.732,0.483,1.36,1.15,1.599c0.643,0.231,1.333,0.055,1.789-0.455l4.396-4.777l3.151,7.248
			c0.281,0.649,0.885,1.052,1.574,1.052c0.66,0,1.242-0.369,1.537-0.97l3.068-4.871l3.068,4.872
			c0.294,0.596,0.869,0.965,1.522,0.969c0.004,0,0.008,0,0.012,0c0.681,0,1.282-0.397,1.578-1.052l3.15-7.248l4.387,4.776
			c0.469,0.51,1.183,0.685,1.816,0.448c0.661-0.246,1.103-0.876,1.124-1.596l0.142-3.574c0.018,0.026,0.023,0.056,0.043,0.081
			c6.066,7.357,6.371,18.505,0.743,26.483L25.961,72.675C25.365,73.517,24.472,74,23.513,74s-1.853-0.483-2.467-1.349L6.005,52.664
			C0.454,44.789,0.763,33.523,6.659,26.27z"/>
		<path class="st29" d="M58.042,121.795c4.275-7.779,3.873-18.114-1.429-25.637L41.57,76.169C40.594,74.791,39.106,74,37.489,74
			s-3.104,0.791-4.063,2.146L18.347,96.184c-5.357,7.591-5.787,17.788-1.443,25.605c-0.482-0.034-0.963,0.127-1.327,0.513
			c-0.599,0.641-0.658,1.587-0.145,2.301c1.298,1.81,2.931,3.523,4.85,5.091c3.195,2.619,6.796,4.448,10.703,5.437
			c0.531,0.131,1.078-0.189,1.215-0.725c0.135-0.535-0.189-1.079-0.725-1.215c-3.62-0.915-6.96-2.612-9.927-5.045
			c-1.398-1.143-2.629-2.362-3.673-3.641l1.37,0.857c0.034,0.028,0.07,0.055,0.109,0.078l0.801,0.494
			c0.514,0.312,1.133,0.327,1.658,0.044c0.55-0.297,0.892-0.858,0.914-1.499l0.134-3.375l4.217,4.592
			c0.371,0.403,0.895,0.59,1.424,0.536c0.544-0.063,1.015-0.382,1.29-0.873c0.017-0.029,0.031-0.06,0.045-0.091l3.147-7.241
			l3.099,4.919c0.313,0.534,0.861,0.854,1.465,0.854s1.151-0.319,1.448-0.826l3.115-4.945l3.191,7.33
			c0.271,0.484,0.753,0.812,1.29,0.874c0.536,0.054,1.055-0.134,1.423-0.536l4.227-4.591l0.126,3.369
			c0.021,0.644,0.362,1.206,0.912,1.503c0.523,0.286,1.145,0.27,1.679-0.054l2.262-1.421c-1.043,1.278-2.273,2.499-3.674,3.644
			c-4.629,3.797-10.161,5.804-15.999,5.804H37.08c0.127-0.996,0.356-1.975,0.688-2.919c0.183-0.521-0.092-1.092-0.612-1.274
			c-0.522-0.186-1.093,0.093-1.274,0.612c-0.51,1.454-0.812,2.978-0.896,4.577c-0.01,0.291-0.02,0.572-0.02,0.863
			c0,5.654,2.878,11.03,7.512,14.03c0.168,0.108,0.355,0.16,0.542,0.16c0.328,0,0.649-0.161,0.841-0.457
			c0.3-0.463,0.167-1.082-0.297-1.383c-4.031-2.61-6.546-7.278-6.593-12.21h0.58c6.307,0,12.277-2.164,17.266-6.256
			c1.92-1.569,3.552-3.283,4.849-5.091c0.515-0.715,0.456-1.661-0.144-2.302C59.119,121.873,58.575,121.705,58.042,121.795z
			 M53.066,118.748c-0.647-0.232-1.334-0.055-1.79,0.455l-4.396,4.776l-3.151-7.248c-0.282-0.648-0.885-1.052-1.574-1.052
			c-0.66,0-1.241,0.369-1.537,0.97l-3.068,4.872l-3.068-4.873c-0.294-0.595-0.87-0.964-1.521-0.968
			c-0.005,0-0.009-0.001-0.013-0.001c-0.681,0-1.282,0.397-1.578,1.052l-3.15,7.248l-4.388-4.777
			c-0.467-0.507-1.181-0.683-1.815-0.447c-0.661,0.246-1.103,0.876-1.124,1.596l-0.142,3.575c-0.017-0.026-0.023-0.056-0.043-0.08
			c-6.066-7.357-6.371-18.506-0.743-26.483l15.078-20.036C35.637,76.482,36.529,76,37.489,76s1.853,0.482,2.466,1.349l15.042,19.987
			c5.551,7.875,5.242,19.142-0.654,26.395l-0.127-3.386C54.183,119.614,53.732,118.987,53.066,118.748z"/>
	</g>
</g>
</svg>
