<?xml version="1.0" encoding="utf-8"?>
<!-- Generator: Adobe Illustrator 19.2.1, SVG Export Plug-In . SVG Version: 6.00 Build 0)  -->
<svg version="1.1" id="Layer_1" xmlns="http://www.w3.org/2000/svg" xmlns:xlink="http://www.w3.org/1999/xlink" x="0px" y="0px"
	 viewBox="0 0 124.971 150" style="enable-background:new 0 0 124.971 150;" xml:space="preserve">
<style type="text/css">
	.st0{display:none;fill:none;stroke:#FFFFFF;stroke-width:2;stroke-linecap:round;stroke-miterlimit:10;}
	.st1{fill:#9D2106;}
	.st2{fill:#822104;}
	.st3{fill:#951B05;}
	.st4{fill:#FFFFFF;}
	.st5{fill:#8A1F0C;}
	.st6{fill:#E2E3E4;}
	.st7{fill:#6DA2C8;}
	.st8{fill:#D6E6EF;}
	.st9{fill:#B49CB5;}
	.st10{fill:#AC9EB6;}
	.st11{fill:#EBF3F7;}
	.st12{fill:#A69FB5;}
	.st13{fill:#B99FB5;}
	.st14{fill:#D093FB;}
	.st15{fill:#45F8B9;}
	.st16{fill:#41E8A3;}
	.st17{fill:#3072AA;}
	.st18{fill:#FD9E99;}
	.st19{fill:#9ED098;}
	.st20{fill:#75C5B6;}
	.st21{fill:#8DB485;}
	.st22{fill:#5AB49E;}
	.st23{fill:#E4E5E6;}
	.st24{fill:#788782;}
	.st25{fill:#CFD1D2;}
	.st26{fill:#BABCBE;}
	.st27{fill:#998379;}
	.st28{fill:#826D64;}
	.st29{fill:#EFF0F0;}
	.st30{fill:#58515B;}
	.st31{fill:#B98BD2;}
	.st32{fill:#9756AC;}
	.st33{fill:#814497;}
	.st34{fill:#25B598;}
	.st35{fill:#008B84;}
	.st36{fill:#7BE4C2;}
	.st37{fill:#25A48D;}
	.st38{fill:#68DAB4;}
	.st39{fill:#FD76A2;}
	.st40{fill:#E76899;}
	.st41{fill:#9CFFB4;}
	.st42{fill:#4D5CEA;}
	.st43{fill:#FF9B95;}
	.st44{fill:#FF868C;}
	.st45{fill:#FF6B77;}
	.st46{fill:#EF85FF;}
	.st47{fill:#C44FD7;}
	.st48{fill:#2DAB5B;}
	.st49{fill:#4EC5FF;}
	.st50{fill:#3EA2FF;}
	.st51{fill:#D898FF;}
	.st52{fill:#76DDED;}
	.st53{fill:#D888FF;}
	.st54{fill:#A37550;}
	.st55{fill:#956744;}
	.st56{fill:#006838;}
	.st57{fill:#005E26;}
	.st58{fill:#5D3A47;}
	.st59{fill:#FFBC13;}
	.st60{fill:#808083;}
	.st61{fill:#56C681;}
	.st62{fill:#6D6E71;}
	.st63{fill:#D3951D;}
	.st64{fill:#3FB068;}
	.st65{fill:#FBEEEE;}
	.st66{fill:#FBF0F1;}
	.st67{fill:#F9E7E8;}
	.st68{fill:#F5D9DB;}
	.st69{fill:#F1C9CC;}
	.st70{fill:#44A468;}
	.st71{fill:#389D61;}
	.st72{fill:#E7A1A5;}
	.st73{fill:#00774E;}
	.st74{fill:#673DAB;}
	.st75{fill:#DEFF5C;}
	.st76{fill:#00BFE0;}
	.st77{fill:#E1329F;}
	.st78{fill:#00BAA3;}
	.st79{fill:#00DCA3;}
	.st80{fill:#00A9E0;}
	.st81{fill:#FF329F;}
	.st82{fill:#504239;}
	.st83{fill:#FD86AE;}
	.st84{fill:#F5A7D6;}
	.st85{fill:#A54A78;}
	.st86{fill:#715D94;}
	.st87{fill:#52A871;}
	.st88{fill:#F9CA40;}
	.st89{fill:#F9B240;}
</style>
<g>
	<g>
		<path class="st4" d="M36.21,44.41c0-3.31-2.68-5.99-5.99-5.99c-0.21,0-0.41,0.01-0.61,0.04c-0.13,0.01-0.26,0.03-0.39,0.06
			c-0.28,0.04-0.56,0.11-0.82,0.2c-0.09,0.02-0.18,0.05-0.26,0.09c-0.14,0.04-0.29,0.1-0.42,0.17c-2.06,0.94-3.49,3.01-3.49,5.43
			c0,3.31,2.68,5.99,5.99,5.99c1.03,0,2.01-0.26,2.85-0.72c0.01,0,0.01-0.01,0.01-0.01c0.51-0.27,0.97-0.62,1.37-1.02
			c0-0.01,0.01-0.01,0.01-0.01C35.54,47.56,36.21,46.06,36.21,44.41z"/>
		<path class="st23" d="M30.22,38.42c-0.21,0-0.41,0.01-0.61,0.04c-0.13,0.01-0.26,0.03-0.39,0.06c-0.28,0.04-0.56,0.11-0.82,0.2
			c-0.056,0.012-0.108,0.036-0.161,0.056c2.314,0.829,3.971,3.034,3.971,5.634c0,1.65-0.67,3.15-1.75,4.23c0,0-0.01,0-0.01,0.01
			c-0.4,0.4-0.86,0.75-1.37,1.02c0,0,0,0.01-0.01,0.01c-0.269,0.147-0.557,0.266-0.852,0.37c0.627,0.222,1.299,0.35,2.002,0.35
			c1.03,0,2.01-0.26,2.85-0.72c0.01,0,0.01-0.01,0.01-0.01c0.51-0.27,0.97-0.62,1.37-1.02c0-0.01,0.01-0.01,0.01-0.01
			c1.08-1.08,1.75-2.58,1.75-4.23C36.21,41.1,33.53,38.42,30.22,38.42z"/>
		<circle class="st74" cx="30.215" cy="41.545" r="3.025"/>
		<g id="XMLID_4_">
			<g>
				<path class="st75" d="M114.32,138.36l1.21,5.1c0.43,1.5-0.34,3.08-1.79,3.65l-4.38,1.74c-0.16,0.06-0.32,0.11-0.48,0.15h-1.27
					c-1.06-0.23-1.98-1.02-2.29-2.15l-1.5-5.4l-0.39-1.3c0.66,1.54,2.45,2.33,4.04,1.68l4.54-1.8c1.35-0.53,2.13-1.91,1.94-3.31
					L114.32,138.36z"/>
				<path class="st75" d="M34.42,141.69l-1.47,5.07c-0.37,1.36-1.6,2.22-2.92,2.22c-0.37,0-0.75-0.07-1.12-0.21l-4.38-1.74
					c-1.44-0.58-2.22-2.16-1.79-3.65l1.37-4.78l0.41-1.51h0.01c-0.32,1.54,0.49,3.04,1.98,3.5l4.52,1.42
					c1.63,0.52,3.35-0.42,3.83-2.03l0.02,0.01L34.42,141.69z"/>
				<path class="st76" d="M110,108.5v10.6l3.95,17.6c0,0,0,0.01,0,0.02c0.19,1.4-0.59,2.78-1.94,3.31l-4.54,1.8
					c-1.59,0.65-3.38-0.14-4.04-1.68L98.9,125H86.92H51.26H38.98l-4.09,14.99h-0.01l-0.02-0.01c-0.48,1.61-2.2,2.55-3.83,2.03
					l-4.52-1.42c-1.49-0.46-2.3-1.96-1.98-3.5h-0.01l5.46-20.01v-0.07v-0.1l9.21-8.5L47.3,117l9.21-8.5l8.19,8.5l9.21-8.5l8.19,8.5
					l9.21-8.5l3.49,3.63l4.7,4.87l9.21-8.5H110z"/>
				<path class="st77" d="M110,87.76V97h-1.29l-8.71,8.04l-0.5,0.46l-3.35-3.48L101,97v-9.24c0-4.25-3.44-7.7-7.7-7.72h9
					C106.56,80.06,110,83.51,110,87.76z"/>
				<polygon class="st78" points="110,97 110,108.5 108.71,108.5 99.5,117 94.8,112.13 100,107.35 100,105.04 108.71,97 				"/>
				<path class="st76" d="M87.95,141.15l-4.55-2.09c-1.25-0.58-2-1.82-2.01-3.06l-0.14-0.08L86.92,125H98.9l-8.4,16.22
					C89.73,141.55,88.81,141.55,87.95,141.15z"/>
				<path class="st75" d="M83.4,139.06l4.55,2.09c0.86,0.4,1.78,0.4,2.55,0.07l-2.6,4.71c-0.55,0.99-1.58,1.56-2.65,1.56
					c-0.4,0-0.81-0.08-1.2-0.25l-4.32-1.86c-1.66-0.72-2.33-2.71-1.44-4.28l2.96-5.18l0.14,0.08
					C81.4,137.24,82.15,138.48,83.4,139.06z"/>
				<path class="st77" d="M52.78,19.38c1.79,0.72,2.65,2.76,1.93,4.54L51,35.89v34.18c0,5.43,4.4,9.82,9.82,9.82h-9
					c-5.42,0-9.82-4.39-9.82-9.82V35.89l0.94-3.02l0.13,0.3l4.82-12c0.73-1.79,2.76-2.65,4.55-1.93L52.78,19.38z"/>
				<path class="st76" d="M47.53,141.09L38.98,125h12.28l5.7,10.96L56.89,136c0,1.24-0.75,2.48-2,3.06l-4.56,2.1
					C49.38,141.6,48.35,141.55,47.53,141.09z"/>
				<path class="st75" d="M59.9,141.1c0.88,1.57,0.21,3.56-1.44,4.28l-4.33,1.86c-0.39,0.17-0.8,0.25-1.2,0.25
					c-1.07,0-2.1-0.57-2.65-1.56l-2.75-4.84c0.82,0.46,1.85,0.51,2.8,0.07l4.56-2.1c1.25-0.58,2-1.82,2-3.06l0.07-0.04L59.9,141.1z"
					/>
				<polygon class="st77" points="34.15,32.97 34.07,33.17 34,33.02 				"/>
				<path class="st4" d="M33.08,49.67c0.5-0.28,0.96-0.62,1.37-1.02C34.05,49.05,33.59,49.4,33.08,49.67z"/>
				<path class="st23" d="M36.2,44.41c0-3.31-2.67-5.98-5.98-5.98c-0.21,0-0.41,0.01-0.61,0.03c0.2-0.03,0.4-0.04,0.61-0.04
					c3.31,0,5.99,2.68,5.99,5.99c0,1.65-0.67,3.15-1.75,4.23C35.54,47.55,36.2,46.06,36.2,44.41z"/>
				<polygon class="st79" points="99.5,105.5 100,105.04 100,107.35 94.8,112.13 91.31,108.5 82.1,117 73.91,108.5 64.7,117 
					56.51,108.5 47.3,117 39.19,108.41 29.98,116.91 29.98,105 30,105 39.11,97 47.3,105.5 56.51,97 64.7,105.5 73.91,97 
					82.1,105.5 91.31,97 96.15,102.02 				"/>
				<path class="st23" d="M29.61,38.46c-0.14,0.01-0.27,0.03-0.39,0.06C29.35,38.49,29.48,38.47,29.61,38.46z"/>
				<path class="st23" d="M28.4,38.72c-0.09,0.02-0.18,0.05-0.26,0.09C28.22,38.77,28.31,38.74,28.4,38.72z"/>
				<path class="st4" d="M28.14,38.81c-0.14,0.05-0.28,0.11-0.42,0.17C27.85,38.91,28,38.85,28.14,38.81z"/>
				<path class="st80" d="M14.43,41.39L17,44.65l-3.97,4.27L17,53.73l-3.16,3.4l-2.29-0.57c-2.04-0.53-3.46-2.37-3.46-4.47v-5.28
					c0-2.06,1.36-3.87,3.34-4.44L14.43,41.39z"/>
				<path class="st81" d="M13.03,58l0.81-0.87l3.16-3.4l-3.97-4.81L17,44.65l-2.57-3.26l-1.17-1.49l-0.03-0.08L34,33.02l0.07,0.15
					l0.08-0.2L35,32.69l-4.5-10.84c-0.19-0.45-0.28-0.91-0.28-1.36c0-1.63,1.15-3.13,2.88-3.44c1.58-0.28,3.14,0.56,3.8,2.02
					l6.04,13.8L42,35.89v34.18c0,5.43,4.4,9.82,9.82,9.82h9l41.48,0.15h-9c4.26,0.02,7.7,3.47,7.7,7.72V97l-4.85,5.02L91.31,97
					l-9.21,8.5L73.91,97l-9.21,8.5L56.51,97l-9.21,8.5L39.11,97L30,105h-0.02V65.98c0-1.95-1.32-3.65-3.21-4.13L12.93,58.4L13.03,58
					z M36.21,44.41c0-3.31-2.68-5.99-5.99-5.99c-0.21,0-0.41,0.01-0.61,0.04c-0.13,0.01-0.26,0.03-0.39,0.06
					c-0.28,0.04-0.56,0.11-0.82,0.2c-0.09,0.02-0.18,0.05-0.26,0.09c-0.14,0.04-0.29,0.1-0.42,0.17c-2.06,0.94-3.49,3.01-3.49,5.43
					c0,3.31,2.68,5.99,5.99,5.99c1.03,0,2.01-0.26,2.85-0.72c0.01,0,0.01-0.01,0.01-0.01c0.51-0.27,0.97-0.62,1.37-1.02
					c0-0.01,0.01-0.01,0.01-0.01C35.54,47.56,36.21,46.06,36.21,44.41z"/>
				<path class="st76" d="M13.26,39.9l1.17,1.49l-3,0.98c-1.98,0.57-3.34,2.38-3.34,4.44v5.28c0,2.1,1.42,3.94,3.46,4.47l2.29,0.57
					L13.03,58l-0.1,0.4l-7.38-1.84c-2.04-0.53-3.46-2.37-3.46-4.47v-5.28c0-2.06,1.36-3.87,3.34-4.44l7.8-2.55L13.26,39.9z"/>
			</g>
		</g>
	</g>
	<g>
		<path class="st74" d="M33.551,50.557L33.551,50.557c0.021-0.013,0.044-0.026,0.065-0.04c0.555-0.303,1.073-0.692,1.541-1.16
			c0.001-0.001,0.003-0.003,0.005-0.005c0.003-0.003,0.006-0.006,0.008-0.009c1.31-1.321,2.03-3.073,2.03-4.934
			c0-3.849-3.132-6.98-6.98-6.98c-0.24,0-0.469,0.011-0.696,0.034c-0.176,0.013-0.34,0.038-0.493,0.073
			c-0.305,0.047-0.61,0.121-0.907,0.221c-0.119,0.03-0.232,0.068-0.34,0.115c-0.186,0.059-0.362,0.133-0.479,0.197
			c-2.475,1.129-4.074,3.618-4.074,6.34c0,3.854,3.136,6.99,6.989,6.99C31.393,51.4,32.544,51.108,33.551,50.557z M25.23,44.41
			c0-1.941,1.14-3.715,2.963-4.549c0.064-0.035,0.147-0.068,0.222-0.089c0.06-0.017,0.146-0.047,0.2-0.075
			c0.039-0.008,0.076-0.019,0.113-0.032c0.206-0.071,0.425-0.125,0.633-0.155c0.033-0.004,0.066-0.011,0.099-0.019
			c0.069-0.017,0.143-0.027,0.223-0.033c0.01-0.001,0.019-0.001,0.027-0.002c0.167-0.017,0.334-0.025,0.51-0.025
			c2.746,0,4.98,2.234,4.98,4.98c0,1.329-0.515,2.581-1.45,3.525c-0.002,0.002-0.004,0.004-0.007,0.007
			c-0.346,0.345-0.727,0.629-1.131,0.844c-0.03,0.016-0.059,0.033-0.087,0.052c-0.697,0.368-1.493,0.562-2.306,0.562
			C27.469,49.4,25.23,47.162,25.23,44.41z"/>
		<path class="st74" d="M34.01,9.2c0.553,0,1-0.448,1-1V0.94c0-0.552-0.447-1-1-1s-1,0.448-1,1V8.2
			C33.01,8.752,33.457,9.2,34.01,9.2z"/>
		<path class="st74" d="M26.303,11.397c0.195,0.195,0.451,0.293,0.707,0.293s0.512-0.098,0.707-0.293
			c0.391-0.391,0.391-1.023,0-1.414l-4.99-4.99c-0.391-0.391-1.023-0.391-1.414,0s-0.391,1.023,0,1.414L26.303,11.397z"/>
		<path class="st74" d="M40.64,11.69c0.256,0,0.512-0.098,0.707-0.293l4.99-4.99c0.391-0.391,0.391-1.023,0-1.414
			s-1.023-0.391-1.414,0l-4.99,4.99c-0.391,0.391-0.391,1.023,0,1.414C40.128,11.592,40.384,11.69,40.64,11.69z"/>
		<path class="st74" d="M61.5,16.21c0.256,0,0.512-0.098,0.707-0.293l5.29-5.29c0.391-0.391,0.391-1.023,0-1.414
			s-1.023-0.391-1.414,0l-5.29,5.29c-0.391,0.391-0.391,1.023,0,1.414C60.988,16.112,61.244,16.21,61.5,16.21z"/>
		<path class="st74" d="M54.99,13.02c0.553,0,1-0.448,1-1V4.96c0-0.552-0.447-1-1-1s-1,0.448-1,1v7.06
			C53.99,12.572,54.438,13.02,54.99,13.02z"/>
		<path class="st74" d="M64.091,20.842c-0.081,0.546,0.295,1.055,0.842,1.137l6.689,1c0.05,0.008,0.1,0.011,0.148,0.011
			c0.487,0,0.914-0.356,0.988-0.852c0.081-0.546-0.295-1.055-0.842-1.137l-6.689-1C64.684,19.92,64.173,20.297,64.091,20.842z"/>
		<path class="st74" d="M113.12,76.11c0.256,0,0.513-0.098,0.708-0.294l5.29-5.3c0.39-0.391,0.39-1.024-0.002-1.415
			c-0.391-0.39-1.023-0.39-1.414,0.001l-5.29,5.3c-0.39,0.391-0.39,1.024,0.002,1.415C112.609,76.013,112.864,76.11,113.12,76.11z"
			/>
		<path class="st74" d="M105.96,73.46c0.553,0,1-0.448,1-1V65.4c0-0.552-0.447-1-1-1s-1,0.448-1,1v7.06
			C104.96,73.012,105.407,73.46,105.96,73.46z"/>
		<path class="st74" d="M122.83,80.99h-7.061c-0.553,0-1,0.447-1,1s0.447,1,1,1h7.061c0.553,0,1-0.447,1-1
			S123.383,80.99,122.83,80.99z"/>
		<path class="st74" d="M121.53,148h-7.343c1.879-0.788,2.871-2.837,2.315-4.771l-1.207-5.089l-0.354-1.569c0-0.002,0-0.004,0-0.006
			c-0.004-0.026-0.011-0.049-0.015-0.075c-0.001-0.003,0-0.006,0-0.009l-0.02-0.088c-0.024-0.138-0.047-0.277-0.084-0.407
			c-0.003-0.01-0.01-0.016-0.013-0.026L111,118.99V87.76c0-4.786-3.9-8.697-8.696-8.72L60.82,78.89c-4.863,0-8.82-3.957-8.82-8.82
			V36.042l3.637-11.747c0.449-1.111,0.438-2.332-0.031-3.437c-0.47-1.104-1.341-1.958-2.445-2.403l-0.347-0.143
			c-2.291-0.923-4.915,0.191-5.852,2.485l-3.931,9.788l-5.219-11.927c-0.852-1.885-2.85-2.95-4.889-2.592
			c-2.146,0.385-3.703,2.246-3.703,4.425c0,0.597,0.121,1.186,0.356,1.743l4.086,9.842L5.153,41.409
			c-2.393,0.688-4.063,2.91-4.063,5.401v5.28c0,2.558,1.73,4.794,4.218,5.44l21.216,5.289c1.446,0.367,2.457,1.667,2.457,3.161
			v50.965l-5.426,19.883l-1.775,6.274c-0.575,1.99,0.447,4.078,2.382,4.857l0.101,0.04H5.02c-0.553,0-1,0.447-1,1s0.447,1,1,1
			h102.593c0.203,0.033,0.405,0.066,0.614,0.066c0.199,0,0.408-0.036,0.615-0.066h12.689c0.553,0,1-0.447,1-1
			S122.083,148,121.53,148z M113.371,146.181l-4.364,1.733c-0.098,0.037-0.186,0.063-0.266,0.086h-0.981
			c-0.719-0.18-1.284-0.713-1.476-1.418l-1.02-3.671c0.344,0.092,0.698,0.146,1.057,0.146c0.509,0,1.022-0.096,1.517-0.298
			l4.537-1.799c0.515-0.202,0.96-0.506,1.339-0.871l0.855,3.645C114.858,144.747,114.345,145.798,113.371,146.181z M34.045,139.285
			c-0.033,0.069-0.076,0.133-0.093,0.212c-0.013,0.059-0.024,0.117-0.05,0.197c-0.158,0.529-0.516,0.964-1.008,1.224
			c-0.487,0.256-1.041,0.306-1.564,0.138l-4.525-1.421c-0.971-0.3-1.516-1.284-1.295-2.341c0.002-0.009-0.001-0.017,0-0.026
			l5.422-19.876l8.209-7.576l7.431,7.871c0.066,0.07,0.148,0.111,0.226,0.157c0.038,0.023,0.069,0.059,0.11,0.076
			c0.125,0.053,0.258,0.08,0.392,0.08c0.123,0,0.245-0.023,0.361-0.068c0.051-0.02,0.094-0.06,0.142-0.088
			c0.059-0.035,0.123-0.061,0.175-0.11l0.004-0.004c0.001-0.001,0.003-0.002,0.004-0.003c0.001-0.001,0.001-0.003,0.003-0.004
			l8.48-7.825l7.512,7.796c0.083,0.086,0.181,0.145,0.283,0.195c0.016,0.008,0.028,0.023,0.044,0.03
			c0.123,0.052,0.254,0.078,0.385,0.079c0.003,0,0.005,0.002,0.008,0.002c0.122,0,0.243-0.022,0.358-0.066
			c0.016-0.006,0.029-0.021,0.045-0.028c0.097-0.043,0.192-0.095,0.274-0.171l0.014-0.013c0.001-0.001,0.002-0.001,0.002-0.002
			c0-0.001,0.001-0.001,0.001-0.002l8.473-7.819l7.494,7.778c0,0,0,0.001,0.001,0.002c0,0.001,0.001,0.001,0.002,0.001l0.014,0.014
			c0.074,0.077,0.164,0.127,0.254,0.175c0.027,0.015,0.049,0.04,0.078,0.052c0.121,0.051,0.25,0.077,0.38,0.078
			c0.003,0,0.005,0.002,0.008,0.002c0.122,0,0.243-0.022,0.358-0.066c0.015-0.006,0.026-0.019,0.04-0.025
			c0.099-0.044,0.195-0.097,0.279-0.174l8.49-7.835l7.513,7.795c0.085,0.088,0.186,0.15,0.29,0.2
			c0.013,0.006,0.023,0.019,0.036,0.025c0.123,0.053,0.254,0.078,0.385,0.079c0.003,0,0.005,0.002,0.008,0.002
			c0.122,0,0.243-0.022,0.358-0.066c0.016-0.006,0.029-0.021,0.045-0.028c0.097-0.043,0.192-0.095,0.274-0.171l0.014-0.013
			c0.001-0.001,0.002-0.001,0.002-0.002c0-0.001,0.001-0.001,0.001-0.002l8.804-8.126v9.507c0,0.039,0.018,0.072,0.022,0.109
			c0.004,0.037-0.006,0.072,0.002,0.109l3.934,17.527c0,0.003,0,0.005,0.001,0.008c0.131,0.967-0.41,1.891-1.317,2.247l-4.551,1.804
			c-1.026,0.423-2.224-0.063-2.727-1.128l-4.486-14.998c-0.004-0.019-0.016-0.034-0.021-0.053c-0.007-0.024-0.017-0.045-0.025-0.068
			c-0.012-0.032-0.025-0.061-0.04-0.092c-0.03-0.061-0.063-0.117-0.104-0.171c-0.017-0.022-0.035-0.041-0.053-0.062
			c-0.017-0.019-0.032-0.039-0.051-0.056c-0.056-0.053-0.119-0.095-0.186-0.134c-0.014-0.008-0.023-0.022-0.037-0.03
			c-0.01-0.005-0.022-0.004-0.032-0.009c-0.004-0.002-0.007-0.005-0.011-0.006c-0.013-0.006-0.023-0.015-0.036-0.02
			c-0.08-0.033-0.167-0.049-0.257-0.06c-0.022-0.003-0.044-0.01-0.066-0.011c-0.02-0.001-0.038-0.01-0.058-0.01
			c-0.009,0-0.016,0.005-0.024,0.005H38.98c-0.013,0-0.025,0.007-0.038,0.008c-0.024,0.001-0.048-0.001-0.072,0.001
			c-0.057,0.006-0.108,0.03-0.162,0.046c-0.053,0.015-0.107,0.026-0.156,0.05c-0.013,0.006-0.028,0.005-0.041,0.012
			c-0.004,0.002-0.006,0.006-0.009,0.008c-0.045,0.025-0.079,0.064-0.12,0.095c-0.048,0.037-0.096,0.071-0.137,0.116
			c-0.013,0.014-0.031,0.024-0.043,0.039c-0.028,0.035-0.041,0.081-0.064,0.119c-0.033,0.054-0.066,0.105-0.088,0.166
			c-0.008,0.021-0.02,0.04-0.026,0.062c-0.001,0.005-0.005,0.008-0.007,0.014L34.045,139.285z M46.563,106.176
			c0,0,0,0.001,0.001,0.002c0,0.001,0.001,0.001,0.002,0.001l0.014,0.014c0.058,0.06,0.13,0.093,0.197,0.135
			c0.046,0.029,0.085,0.071,0.134,0.092c0.124,0.052,0.256,0.08,0.389,0.08c0.123,0,0.246-0.023,0.363-0.069
			c0.04-0.016,0.073-0.048,0.111-0.07c0.07-0.039,0.143-0.071,0.204-0.127l8.491-7.836l7.512,7.796
			c0.085,0.088,0.186,0.15,0.291,0.201c0.013,0.006,0.022,0.019,0.035,0.024c0.123,0.053,0.255,0.078,0.386,0.079
			c0.002,0,0.005,0.001,0.007,0.001c0.106,0,0.211-0.024,0.313-0.058c0.04-0.013,0.076-0.033,0.114-0.051
			c0.088-0.042,0.176-0.087,0.251-0.157l0.014-0.013c0.001-0.001,0.002-0.001,0.002-0.002c0-0.001,0.001-0.001,0.001-0.002
			l8.473-7.819l7.494,7.778c0,0,0,0.001,0.001,0.002c0,0.001,0.001,0.001,0.002,0.001l0.014,0.014
			c0.082,0.085,0.18,0.144,0.28,0.194c0.017,0.008,0.03,0.025,0.047,0.032c0.123,0.053,0.255,0.078,0.387,0.079
			c0.002,0,0.004,0.001,0.006,0.001c0.1,0,0.199-0.025,0.296-0.055c0.045-0.014,0.087-0.033,0.13-0.053
			c0.089-0.042,0.177-0.087,0.252-0.158l8.491-7.836l7.511,7.795c0.092,0.096,0.2,0.167,0.315,0.218
			c0.004,0.002,0.007,0.006,0.011,0.008c0.123,0.053,0.254,0.078,0.385,0.079c0.003,0,0.007,0.002,0.01,0.002
			c0.242,0,0.485-0.087,0.677-0.264L109,98.093v9.467c-0.329-0.101-0.698-0.045-0.968,0.206l-8.491,7.836l-7.511-7.795
			c-0.378-0.394-1.001-0.411-1.398-0.041l-8.491,7.837l-7.511-7.796c-0.376-0.394-1-0.411-1.397-0.041l-8.491,7.836l-7.512-7.796
			c-0.377-0.393-1-0.41-1.397-0.04l-8.483,7.829l-7.431-7.871c-0.378-0.397-1.004-0.418-1.405-0.049l-7.532,6.952v-9.157
			l8.072-7.088L46.563,106.176z M81.06,138.267c0.453,0.725,1.112,1.326,1.922,1.701l4.546,2.09
			c0.381,0.177,0.781,0.273,1.183,0.333l-1.685,3.053c-0.495,0.889-1.64,1.286-2.581,0.879l-4.317-1.86
			c-0.541-0.234-0.941-0.669-1.127-1.226c-0.186-0.552-0.129-1.136,0.157-1.641L81.06,138.267z M89.802,140.392
			c-0.459,0.112-0.965,0.068-1.434-0.149l-4.548-2.09c-0.848-0.394-1.423-1.262-1.431-2.161c0-0.024-0.012-0.044-0.014-0.068
			L87.528,126h9.729L89.802,140.392z M50.653,126l5.228,10.053c-0.022,0.874-0.579,1.714-1.41,2.099l-4.562,2.102
			c-0.557,0.257-1.145,0.266-1.661,0.059L40.644,126H50.653z M50.748,142.068l4.562-2.102c0.779-0.36,1.42-0.927,1.868-1.612
			l1.85,3.234c0.285,0.509,0.34,1.096,0.153,1.65c-0.188,0.556-0.585,0.99-1.116,1.222l-4.335,1.862
			c-0.928,0.406-2.081,0.013-2.581-0.888l-1.719-3.024C49.879,142.362,50.325,142.264,50.748,142.068z M58.859,146.297
			c1.046-0.456,1.854-1.338,2.218-2.42c0.363-1.082,0.253-2.271-0.309-3.274l-2.922-5.104L52.906,126h32.368l-4.892,9.424
			l-2.962,5.183c-0.562,0.993-0.678,2.184-0.315,3.266c0.363,1.085,1.176,1.969,2.23,2.426L83.286,148H54.895L58.859,146.297z
			 M88.776,146.413l2.611-4.733l7.263-14.024l3.669,12.276c0.006,0.034-0.002,0.068,0.008,0.102c0.049,0.171,0.101,0.321,0.153,0.44
			l1.874,6.64c0.086,0.315,0.215,0.609,0.37,0.887H87.16C87.826,147.64,88.394,147.1,88.776,146.413z M3.09,52.09v-5.28
			c0-1.605,1.076-3.036,2.65-3.489l7.108-2.327l2.836,3.602l-3.387,3.643c-0.031,0.033-0.043,0.075-0.068,0.111
			c-0.04,0.057-0.079,0.111-0.106,0.173c-0.026,0.058-0.039,0.117-0.053,0.178c-0.015,0.064-0.028,0.125-0.03,0.191
			c-0.002,0.063,0.008,0.122,0.018,0.184c0.01,0.065,0.021,0.126,0.044,0.189c0.022,0.061,0.057,0.115,0.091,0.171
			c0.024,0.039,0.034,0.084,0.064,0.121l3.412,4.134l-3.292,3.541l-6.577-1.64C4.205,55.177,3.09,53.737,3.09,52.09z M27.012,60.88
			l-12.416-3.095l3.136-3.374c0.342-0.367,0.358-0.931,0.039-1.317l-3.412-4.134l3.373-3.628c0.336-0.361,0.358-0.913,0.053-1.3
			l-2.913-3.699l20.441-6.692c0.013-0.004,0.021-0.014,0.033-0.019c0.012-0.005,0.025-0.002,0.037-0.007
			c0.051-0.021,0.086-0.06,0.132-0.089c0.058-0.036,0.119-0.067,0.167-0.113c0.047-0.044,0.079-0.098,0.116-0.149
			c0.038-0.052,0.078-0.101,0.105-0.159c0.027-0.059,0.037-0.122,0.052-0.185c0.015-0.061,0.034-0.119,0.037-0.183
			c0.003-0.069-0.014-0.136-0.025-0.206c-0.009-0.051-0.002-0.102-0.019-0.153c-0.004-0.012-0.013-0.02-0.018-0.031
			c-0.005-0.013-0.002-0.026-0.008-0.038L31.421,21.46c-0.134-0.315-0.201-0.642-0.201-0.97c0-1.209,0.865-2.243,2.055-2.456
			c1.115-0.201,2.239,0.396,2.71,1.436l6.038,13.797l0.13,0.3c0.048,0.11,0.117,0.203,0.195,0.285
			c0.021,0.023,0.046,0.04,0.07,0.061c0.071,0.062,0.147,0.112,0.231,0.152c0.018,0.009,0.03,0.025,0.049,0.032
			c0.012,0.005,0.024,0.002,0.036,0.007c0.108,0.039,0.221,0.066,0.338,0.066c0.003,0,0.006-0.002,0.009-0.002
			c0.133-0.002,0.263-0.029,0.384-0.08c0.001,0,0.002,0,0.004-0.001c0.036-0.015,0.059-0.045,0.092-0.064
			c0.08-0.046,0.16-0.09,0.225-0.157c0.077-0.079,0.132-0.174,0.179-0.272c0.009-0.019,0.026-0.032,0.034-0.052L44,33.539
			c0-0.001,0-0.001,0.001-0.002l4.815-11.989c0.521-1.273,1.981-1.891,3.245-1.383l0.347,0.143c0.615,0.248,1.097,0.721,1.357,1.333
			c0.261,0.613,0.267,1.29-0.01,1.984l-3.71,11.97C50.015,35.69,50,35.79,50,35.89v34.18c0,5.966,4.854,10.82,10.816,10.82
			l41.479,0.15c3.697,0.017,6.705,3.031,6.705,6.72v8.3c-0.329-0.1-0.698-0.044-0.969,0.206l-8.49,7.836l-7.512-7.796
			c-0.379-0.392-0.999-0.408-1.397-0.04l-8.491,7.837l-7.511-7.796c-0.376-0.394-1-0.411-1.397-0.041l-8.491,7.836l-7.512-7.796
			c-0.377-0.392-1-0.41-1.397-0.04l-8.491,7.837l-7.511-7.796c-0.371-0.387-0.979-0.411-1.38-0.058l-7.47,6.559V65.98
			C30.98,63.57,29.35,61.474,27.012,60.88z M23.701,143.655l0.894-3.118c0.438,0.451,0.978,0.81,1.615,1.007l4.516,1.418
			c0.403,0.129,0.816,0.193,1.228,0.193c0.346,0,0.689-0.049,1.025-0.139l-0.992,3.48c-0.303,1.115-1.599,1.767-2.706,1.343
			l-4.375-1.737C23.929,145.71,23.411,144.659,23.701,143.655z M33.91,147.038l1.475-5.087l0.425-1.569
			c0.018-0.042,0.033-0.084,0.045-0.128l3.427-12.557l7.38,13.887l2.745,4.831c0.38,0.685,0.947,1.225,1.613,1.585H33.49
			C33.667,147.701,33.816,147.383,33.91,147.038z"/>
	</g>
</g>
</svg>
