<?xml version="1.0" encoding="utf-8"?>
<!-- Generator: Adobe Illustrator 19.2.1, SVG Export Plug-In . SVG Version: 6.00 Build 0)  -->
<svg version="1.1" id="Layer_1" xmlns="http://www.w3.org/2000/svg" xmlns:xlink="http://www.w3.org/1999/xlink" x="0px" y="0px"
	 viewBox="0 0 85 150" style="enable-background:new 0 0 85 150;" xml:space="preserve">
<style type="text/css">
	.st0{fill:#FFFFFF;}
	.st1{fill:#6D6E71;}
	.st2{fill:#5A5B5E;}
	.st3{fill:#AEB0B1;}
	.st4{fill:#FFFFFF;stroke:#58595B;stroke-width:4;stroke-linecap:round;stroke-linejoin:round;stroke-miterlimit:10;}
	.st5{fill:#58595B;}
</style>
<g>
	<g>
		<path class="st0" d="M83,107.448c0,0.11-0.01,0.22-0.01,0.33l-2.51,2.16l-13.38-8.18l3.64-15.26l6.12-0.49
			c-5.31-8.502-13.692-14.88-23.589-17.597L55,73.728l-12.53,9.1l-0.16,0.12l-12.69-9.22l1.687-5.192
			c-9.722,2.786-17.955,9.108-23.187,17.502l5.76,0.46l3.65,15.26l-13.38,8.18l-2.13-1.83c-0.01-0.22-0.02-0.44-0.02-0.66
			c0,8.8,2.814,16.946,7.59,23.59l0.73-2.23H26l4.85,14.92l-2.37,1.72c4.37,1.62,9.09,2.5,14.02,2.5c4.79,0,9.39-0.83,13.65-2.36
			l-1-0.72l4.85-14.92h15.68l0.16,0.48c-1.49,2.16-3.19,4.17-5.06,6C78.32,129.088,83,118.808,83,107.448z M34.59,119.958
			l-4.92-15.16l12.89-9.37l12.9,9.37l-4.93,15.16H34.59z"/>
	</g>
	<g>
		<polygon class="st0" points="9.595,131.044 9.59,131.038 9.59,131.038 		"/>
	</g>
	<g>
		<path class="st0" d="M9.595,131.044c0.585,0.813,1.193,1.608,1.835,2.374C10.792,132.65,10.183,131.852,9.595,131.044z"/>
	</g>
	<g>
		<path class="st0" d="M31.31,68.528l-0.003,0.008c0.067-0.019,0.133-0.039,0.2-0.058C31.442,68.497,31.375,68.509,31.31,68.528z"/>
	</g>
	<g>
		<path class="st0" d="M33.816,67.903c0.096-0.021,0.19-0.045,0.286-0.065C34.006,67.858,33.911,67.882,33.816,67.903z"/>
	</g>
	<g>
		<path class="st0" d="M31.507,68.479c0.761-0.214,1.531-0.406,2.308-0.576C33.037,68.072,32.268,68.265,31.507,68.479z"/>
	</g>
	<g>
		<path class="st0" d="M34.102,67.837c0.885-0.187,1.778-0.349,2.678-0.479C35.876,67.485,34.985,67.652,34.102,67.837z"/>
	</g>
	<g>
		<path class="st0" d="M51.98,68.068c0.435,0.104,0.862,0.225,1.291,0.343l-0.001-0.003C52.84,68.288,52.41,68.178,51.98,68.068z"/>
	</g>
</g>
<g>
	<path class="st1" d="M82.97,105.978c0.02,0.49,0.03,0.98,0.03,1.47c0,0.11-0.01,0.22-0.01,0.33l-2.51,2.16l-13.38-8.18l3.64-15.26
		l6.12-0.49c0.44,0.7,0.85,1.41,1.25,2.14c0.06,0.11,0.11,0.21,0.17,0.31c0.2,0.39,0.4,0.77,0.59,1.16
		c0.19,0.38,0.37,0.77,0.55,1.16c0.01,0.03,0.02,0.06,0.04,0.1c0.17,0.38,0.34,0.77,0.5,1.16c0.04,0.09,0.07,0.17,0.1,0.25
		c0.16,0.38,0.31,0.76,0.45,1.15c0.01,0.03,0.02,0.06,0.03,0.09c0.15,0.41,0.3,0.82,0.43,1.24c0.13,0.38,0.25,0.76,0.36,1.14
		c0.04,0.15,0.09,0.3,0.13,0.45c0.11,0.37,0.21,0.74,0.3,1.11c0.12,0.46,0.22,0.91,0.32,1.38c0.1,0.46,0.2,0.92,0.28,1.39
		c0.06,0.35,0.12,0.7,0.17,1.05c0.06,0.34,0.1,0.67,0.14,1c0.05,0.34,0.09,0.68,0.12,1.02c0.04,0.34,0.07,0.68,0.09,1.02
		c0.02,0.19,0.03,0.37,0.04,0.56C82.94,105.248,82.96,105.608,82.97,105.978z"/>
</g>
<g>
	<path class="st1" d="M75.68,129.948l0.16,0.48c-1.49,2.16-3.19,4.17-5.06,6c-0.75,0.74-1.53,1.44-2.33,2.11
		c-0.07,0.06-0.13,0.11-0.19,0.16c-0.34,0.28-0.69,0.56-1.04,0.83c-0.42,0.32-0.84,0.63-1.26,0.94c-0.01,0-0.01,0.01-0.01,0.01
		c-0.43,0.3-0.86,0.59-1.29,0.87c-0.44,0.29-0.89,0.57-1.34,0.84c-0.43,0.26-0.86,0.51-1.3,0.75c-0.07,0.04-0.15,0.08-0.22,0.12
		c-0.41,0.23-0.83,0.44-1.25,0.65c-0.43,0.22-0.87,0.43-1.31,0.63c-0.12,0.05-0.24,0.11-0.37,0.16c-0.36,0.17-0.74,0.32-1.11,0.47
		c-0.53,0.22-1.07,0.43-1.61,0.62l-1-0.72l4.85-14.92H75.68z"/>
</g>
<g>
	<path class="st1" d="M26,128.808l4.85,14.92l-2.37,1.72c-0.48-0.18-0.95-0.36-1.42-0.55c-0.47-0.2-0.93-0.4-1.39-0.61
		c-0.84-0.38-1.67-0.8-2.47-1.23c-0.09-0.05-0.18-0.1-0.27-0.15c-0.87-0.48-1.72-1-2.56-1.54c-1.26-0.82-2.47-1.72-3.62-2.67
		c-0.01,0-0.01,0-0.01,0c-1.16-0.96-2.26-1.98-3.3-3.05c-0.7-0.72-1.37-1.47-2.01-2.23c-0.64-0.77-1.25-1.57-1.84-2.38l0.73-2.23H26
		z"/>
</g>
<g>
	<path class="st2" d="M13.88,86.498l3.65,15.26l-13.38,8.18l-2.13-1.83c-0.01-0.22-0.02-0.44-0.02-0.66c0-0.49,0.01-0.98,0.03-1.47
		c0.01-0.37,0.03-0.74,0.05-1.11c0.01-0.18,0.02-0.36,0.04-0.54c0.03-0.35,0.06-0.69,0.09-1.03c0.03-0.31,0.07-0.61,0.11-0.92
		c0-0.05,0.01-0.1,0.02-0.14c0.03-0.29,0.07-0.58,0.12-0.88c0.05-0.37,0.11-0.74,0.18-1.11c0.08-0.46,0.18-0.93,0.28-1.39
		c0.2-0.92,0.43-1.83,0.69-2.73c0.25-0.87,0.53-1.73,0.84-2.57c0.03-0.08,0.06-0.15,0.08-0.23c0.31-0.82,0.64-1.63,1-2.43
		c0.02-0.04,0.04-0.08,0.05-0.12c0.34-0.74,0.69-1.47,1.07-2.18c0.08-0.15,0.16-0.3,0.24-0.45c0.39-0.72,0.8-1.42,1.23-2.11
		L13.88,86.498z"/>
</g>
<g>
	<polygon class="st1" points="55.46,104.798 50.53,119.958 34.59,119.958 29.67,104.798 42.56,95.428 	"/>
</g>
<g>
	<path class="st1" d="M53.27,68.408l1.73,5.32l-12.53,9.1l-0.16,0.12l-12.69-9.22l1.69-5.2c1.78-0.51,3.61-0.9,5.47-1.17
		c0.47-0.07,0.94-0.13,1.41-0.18c0.54-0.06,1.09-0.1,1.64-0.14c0.4-0.03,0.81-0.05,1.22-0.06c0.48-0.02,0.97-0.03,1.45-0.03
		c0.8,0,1.59,0.02,2.38,0.07c0.24,0.01,0.47,0.03,0.71,0.05c0.7,0.05,1.39,0.12,2.07,0.21c0.24,0.03,0.48,0.06,0.73,0.1
		c0.32,0.05,0.63,0.1,0.95,0.15c0.89,0.15,1.77,0.33,2.64,0.54C52.41,68.178,52.84,68.288,53.27,68.408z"/>
</g>
<g>
	<g>
		<path class="st0" d="M83,107.448c0,0.11-0.01,0.22-0.01,0.33l-2.51,2.16l-13.38-8.18l3.64-15.26l6.12-0.49
			c-5.31-8.502-13.692-14.88-23.589-17.597L55,73.728l-12.53,9.1l-0.16,0.12l-12.69-9.22l1.687-5.192
			c-9.722,2.786-17.955,9.108-23.187,17.502l5.76,0.46l3.65,15.26l-13.38,8.18l-2.13-1.83c-0.01-0.22-0.02-0.44-0.02-0.66
			c0,8.8,2.814,16.946,7.59,23.59l0.73-2.23H26l4.85,14.92l-2.37,1.72c4.37,1.62,9.09,2.5,14.02,2.5c4.79,0,9.39-0.83,13.65-2.36
			l-1-0.72l4.85-14.92h15.68l0.16,0.48c-1.49,2.16-3.19,4.17-5.06,6C78.32,129.088,83,118.808,83,107.448z M34.59,119.958
			l-4.92-15.16l12.89-9.37l12.9,9.37l-4.93,15.16H34.59z"/>
	</g>
	<g>
		<polygon class="st0" points="9.595,131.044 9.59,131.038 9.59,131.038 		"/>
	</g>
	<g>
		<path class="st0" d="M9.595,131.044c0.585,0.813,1.193,1.608,1.835,2.374C10.792,132.65,10.183,131.852,9.595,131.044z"/>
	</g>
	<g>
		<path class="st0" d="M31.31,68.528l-0.003,0.008c0.067-0.019,0.133-0.039,0.2-0.058C31.442,68.497,31.375,68.509,31.31,68.528z"/>
	</g>
	<g>
		<path class="st0" d="M33.816,67.903c0.096-0.021,0.19-0.045,0.286-0.065C34.006,67.858,33.911,67.882,33.816,67.903z"/>
	</g>
	<g>
		<path class="st0" d="M31.507,68.479c0.761-0.214,1.531-0.406,2.308-0.576C33.037,68.072,32.268,68.265,31.507,68.479z"/>
	</g>
	<g>
		<path class="st0" d="M34.102,67.837c0.885-0.187,1.778-0.349,2.678-0.479C35.876,67.485,34.985,67.652,34.102,67.837z"/>
	</g>
	<g>
		<path class="st0" d="M51.98,68.068c0.435,0.104,0.862,0.225,1.291,0.343l-0.001-0.003C52.84,68.288,52.41,68.178,51.98,68.068z"/>
	</g>
</g>
<g>
	<g>
		<path class="st3" d="M57.5,72c1.752,0,3.475,0.124,5.168,0.34c-2.924-1.681-6.072-3.016-9.397-3.929l1.207,3.713
			C55.477,72.05,56.482,72,57.5,72z"/>
	</g>
	<g>
		<path class="st3" d="M10.32,128.808h10.108C18.23,123.817,17,118.304,17,112.5c0-14.41,7.532-27.054,18.868-34.232l-6.248-4.54
			l1.687-5.192c-9.722,2.786-17.955,9.108-23.187,17.502l5.76,0.46l3.65,15.26l-13.38,8.18l-2.13-1.83
			c-0.01-0.22-0.02-0.44-0.02-0.66c0,8.8,2.814,16.946,7.59,23.59L10.32,128.808z"/>
	</g>
	<g>
		<path class="st3" d="M30.513,142.69l0.337,1.038l-2.37,1.72c2.817,1.044,5.782,1.776,8.853,2.168
			C34.888,146.209,32.602,144.559,30.513,142.69z"/>
	</g>
</g>
<g>
	<path class="st2" d="M54.478,72.124l-1.208-3.716c-0.43-0.12-0.86-0.23-1.29-0.34c-0.87-0.21-1.75-0.39-2.64-0.54
		c-0.32-0.05-0.63-0.1-0.95-0.15c-0.25-0.04-0.49-0.07-0.73-0.1c-0.68-0.09-1.37-0.16-2.07-0.21c-0.24-0.02-0.47-0.04-0.71-0.05
		c-0.79-0.05-1.58-0.07-2.38-0.07c-0.48,0-0.97,0.01-1.45,0.03c-0.41,0.01-0.82,0.03-1.22,0.06c-0.55,0.04-1.1,0.08-1.64,0.14
		c-0.47,0.05-0.94,0.11-1.41,0.18c-1.86,0.27-3.69,0.66-5.47,1.17l-1.69,5.2l6.248,4.54C41.328,74.811,47.667,72.627,54.478,72.124z
		"/>
</g>
<g>
	<path class="st2" d="M20.428,128.808H10.32l-0.73,2.23c0.59,0.81,1.2,1.61,1.84,2.38c0.64,0.76,1.31,1.51,2.01,2.23
		c1.04,1.07,2.14,2.09,3.3,3.05c0,0,0,0,0.01,0c1.15,0.95,2.36,1.85,3.62,2.67c0.84,0.54,1.69,1.06,2.56,1.54
		c0.09,0.05,0.18,0.1,0.27,0.15c0.8,0.43,1.63,0.85,2.47,1.23c0.46,0.21,0.92,0.41,1.39,0.61c0.47,0.19,0.94,0.37,1.42,0.55
		l2.37-1.72l-0.337-1.038C26.232,138.861,22.776,134.135,20.428,128.808z"/>
</g>
<path class="st5" d="M85,107.448c0-0.518-0.01-1.035-0.031-1.526c-0.004-0.157-0.014-0.307-0.021-0.461
	c-0.004-0.08-0.007-0.16-0.011-0.24c-0.007-0.145-0.012-0.294-0.02-0.436c-0.012-0.227-0.025-0.441-0.041-0.574
	c-0.022-0.379-0.056-0.757-0.094-1.081c-0.034-0.378-0.078-0.756-0.133-1.135c-0.042-0.353-0.087-0.714-0.139-0.989
	c-0.052-0.368-0.116-0.737-0.178-1.103c-0.085-0.502-0.19-0.991-0.295-1.473c-0.106-0.5-0.213-0.979-0.333-1.435
	c-0.098-0.403-0.207-0.807-0.311-1.152l-0.141-0.491c-0.119-0.41-0.248-0.819-0.371-1.178c-0.138-0.445-0.296-0.88-0.454-1.312
	c-0.004-0.015-0.028-0.084-0.033-0.098c-0.152-0.426-0.315-0.841-0.468-1.201c-0.041-0.108-0.083-0.218-0.115-0.287
	c-0.154-0.374-0.316-0.749-0.508-1.176c-0.02-0.055-0.041-0.107-0.065-0.159c-0.188-0.41-0.378-0.819-0.568-1.199
	c-0.151-0.311-0.309-0.615-0.467-0.922l-0.143-0.277c-0.02-0.038-0.041-0.075-0.062-0.112l-0.132-0.243
	c-0.452-0.826-0.881-1.561-1.311-2.245c-0.07-0.112-0.162-0.205-0.25-0.299c-5.511-8.603-14.03-15.094-24.066-17.983
	c-0.135-0.075-0.277-0.137-0.429-0.179c-0.429-0.12-0.857-0.23-1.359-0.358c-0.907-0.219-1.841-0.41-2.802-0.572l-0.929-0.146
	c-0.234-0.039-0.477-0.07-0.797-0.11c-0.719-0.095-1.448-0.169-2.159-0.22c-0.26-0.022-0.531-0.044-0.756-0.053
	c-0.781-0.05-1.601-0.074-2.507-0.074c-0.507,0-1.026,0.01-1.498,0.03c-0.444,0.011-0.889,0.032-1.317,0.065
	c-0.576,0.042-1.151,0.084-1.706,0.146c-0.496,0.053-0.993,0.116-1.49,0.19c-1.951,0.283-3.879,0.696-5.729,1.226
	c-0.144,0.041-0.28,0.103-0.409,0.174C20.479,69.729,12.11,76.177,6.674,84.68c-0.089,0.094-0.181,0.187-0.251,0.3
	c-0.471,0.755-0.894,1.48-1.296,2.225l-0.241,0.45c-0.35,0.653-0.707,1.381-1.124,2.29c-0.019,0.04-0.037,0.082-0.052,0.124
	c-0.001,0.003-0.003,0.006-0.004,0.01c-0.36,0.801-0.703,1.633-1.047,2.543c-0.028,0.072-0.025,0.059-0.043,0.135l0.022,0.008
	c-0.013,0.036-0.029,0.071-0.043,0.108l-0.021-0.006c-0.215,0.582-0.398,1.194-0.588,1.8c-0.029,0.091-0.06,0.18-0.089,0.271
	c-0.066,0.215-0.146,0.421-0.208,0.637c-0.08,0.276-0.138,0.563-0.213,0.843c-0.107,0.394-0.205,0.791-0.3,1.189
	c-0.066,0.278-0.149,0.551-0.209,0.828c-0.106,0.486-0.211,0.984-0.291,1.441c-0.077,0.405-0.143,0.812-0.187,1.145
	c-0.051,0.3-0.094,0.608-0.127,0.909c-0.017,0.089-0.028,0.175-0.035,0.262c-0.04,0.299-0.078,0.607-0.109,0.933l-0.135,1.637
	c-0.009,0.165-0.014,0.321-0.022,0.484c-0.003,0.061-0.005,0.122-0.008,0.183c-0.007,0.156-0.017,0.32-0.021,0.469
	C0.01,106.413,0,106.931,0,107.448c0,0.008,0.001,0.016,0.001,0.024c0,0.009-0.001,0.018-0.001,0.028C0,130.935,19.065,150,42.5,150
	S85,130.935,85,107.5c0-0.009-0.001-0.018-0.001-0.027C84.999,107.465,85,107.457,85,107.448z M75.098,127.948H60.86l-8.061-8.503
	l4.224-12.988l9.76-2.549l12.653,7.736c0.322,0.197,0.684,0.294,1.043,0.294c0.087,0,0.173-0.011,0.26-0.023
	C80.069,117.755,78.088,123.198,75.098,127.948z M61.453,131.948h10.733c-0.877,1.062-1.815,2.082-2.805,3.05
	c-0.002,0.002-0.004,0.004-0.006,0.006c-0.678,0.669-1.4,1.323-2.218,2.008l-0.167,0.142c-0.325,0.267-0.659,0.534-0.979,0.782
	c-0.413,0.313-0.825,0.618-1.237,0.923h0c-0.009,0.007-0.018,0.014-0.027,0.021c-0.392,0.273-0.785,0.537-1.187,0.799
	c-0.417,0.274-0.843,0.54-1.274,0.799c-0.405,0.245-0.81,0.48-1.303,0.749l-0.163,0.089c-0.381,0.215-0.772,0.409-1.18,0.613
	c-0.403,0.205-0.815,0.402-1.165,0.562l-0.32,0.141c-0.046,0.018-0.092,0.037-0.137,0.059c-0.022,0.01-0.044,0.021-0.066,0.03
	L61.453,131.948z M28.183,143.192c-0.115-0.045-0.229-0.09-0.339-0.134c-0.455-0.193-0.899-0.387-1.35-0.593
	c-0.734-0.332-1.501-0.715-2.328-1.159l-0.269-0.149c-0.747-0.412-1.547-0.894-2.436-1.465c-1.153-0.751-2.309-1.604-3.437-2.536
	c-0.039-0.032-0.079-0.062-0.12-0.091c-1.042-0.869-2.061-1.813-3.029-2.811c-0.626-0.645-1.271-1.359-1.907-2.116
	c-0.337-0.405-0.687-0.846-1.057-1.331h12.636l3.951,12.155L28.183,143.192z M25.155,126.808H10.32
	c-0.346,0-0.664,0.109-0.953,0.268c-2.691-4.538-4.475-9.671-5.105-15.152c0.322-0.018,0.643-0.102,0.931-0.279l12.664-7.743
	l10.253,2.567l4.206,12.961L25.155,126.808z M4.048,105.622c0.003-0.055,0.005-0.111,0.008-0.166
	c0.126-2.397,0.48-4.734,1.027-6.996c0.077-0.32,0.157-0.638,0.242-0.956c0.129-0.479,0.26-0.958,0.407-1.43
	c0.005-0.015,0.01-0.029,0.014-0.044c0.87-2.782,2.056-5.423,3.501-7.896l3.026,0.242l2.974,12.434l-10.897,6.663l-0.341-0.293
	C4.012,106.658,4.023,106.138,4.048,105.622z M36.043,117.958l-4.023-12.396l10.54-7.661l10.548,7.661l-4.031,12.396H36.043z
	 M32.862,70.222C35.944,69.425,39.173,69,42.5,69c3.18,0,6.268,0.395,9.225,1.125l0.923,2.839l-10.34,7.511l-10.337-7.51
	L32.862,70.222z M80.943,105.426c0.004,0.078,0.007,0.157,0.011,0.237c0.019,0.399,0.024,0.802,0.031,1.204l-0.704,0.605
	l-10.897-6.662l2.966-12.434l3.388-0.271C78.747,93.244,80.607,99.134,80.943,105.426z M73.197,84.295l-2.616,0.21
	c-0.864,0.068-1.584,0.687-1.786,1.529l-3.361,14.091l-9.564,2.498L44.56,94.409V83.785l11.615-8.439
	c0.701-0.509,0.995-1.413,0.727-2.237l-0.487-1.496C63.118,74.221,68.918,78.649,73.197,84.295z M28.149,71.785l-0.43,1.325
	c-0.268,0.824,0.025,1.727,0.726,2.236l12.116,8.803v10.26l-11.31,8.222l-10.057-2.518l-3.367-14.079
	c-0.202-0.843-0.923-1.46-1.786-1.529l-2.258-0.18C15.969,78.787,21.619,74.419,28.149,71.785z M32.574,144.696
	c0.267-0.476,0.354-1.044,0.178-1.587l-4.478-13.774l7.161-7.377H49.67l8.061,8.503l-4.482,13.789
	c-0.024,0.073-0.02,0.148-0.035,0.222C49.81,145.46,46.218,146,42.5,146C39.068,146,35.743,145.542,32.574,144.696z"/>
</svg>
