<?xml version="1.0" encoding="utf-8"?>
<!-- Generator: Adobe Illustrator 21.0.0, SVG Export Plug-In . SVG Version: 6.00 Build 0)  -->
<svg version="1.1" id="Layer_1" xmlns="http://www.w3.org/2000/svg" xmlns:xlink="http://www.w3.org/1999/xlink" x="0px" y="0px"
	 viewBox="0 0 91 150" style="enable-background:new 0 0 91 150;" xml:space="preserve">
<style type="text/css">
	.st0{fill:#FFFFFF;}
	.st1{fill:#6D6E71;}
	.st2{fill:#5A5B5E;}
	.st3{fill:#AEB0B1;}
	.st4{fill:#FFFFFF;stroke:#58595B;stroke-width:4;stroke-linecap:round;stroke-linejoin:round;stroke-miterlimit:10;}
	.st5{fill:#58595B;}
	.st6{fill:#A8724B;}
	.st7{fill:#916341;}
	.st8{fill:#754921;}
	.st9{fill:#FF6B6B;}
	.st10{fill:#FFD57E;}
	.st11{fill:#D9FF93;}
	.st12{fill:#E8E8E8;}
	.st13{fill:#85808A;}
	.st14{fill:#1787FF;}
	.st15{fill:#4DE69F;}
	.st16{fill:#C92A2A;}
	.st17{fill:#00386E;}
	.st18{fill:#231F20;}
	.st19{fill:#CCCCCC;}
	.st20{fill:#A12222;}
	.st21{fill:#002D58;}
	.st22{fill:#1C191A;}
	.st23{fill:#851616;}
	.st24{fill:#B01E1E;}
	.st25{fill:#E32626;}
	.st26{fill:#991919;}
	.st27{fill:#591300;}
	.st28{fill:#FF880F;}
	.st29{fill:#D16F0C;}
	.st30{fill:#F3D9D9;}
	.st31{fill:#ECC6C6;}
	.st32{fill:#E6B6B6;}
	.st33{fill:#F1D2D2;}
	.st34{fill:#E5B0B0;}
	.st35{fill:#D3AEAA;}
	.st36{fill:#F0CFCF;}
	.st37{fill:#F2D4D4;}
	.st38{fill:#B3F294;}
	.st39{fill:#99C4FF;}
	.st40{fill:#D2FFBA;}
	.st41{fill:#BDD9FF;}
	.st42{fill:#7C7E82;}
	.st43{fill:#E06AC6;}
	.st44{fill:#D9B580;}
	.st45{fill:#B556A0;}
	.st46{fill:#AD9166;}
	.st47{fill:#805075;}
	.st48{fill:#7E40B8;}
	.st49{fill:#A9FF8A;}
	.st50{fill:#FFFEA2;}
	.st51{fill:#5CFFEC;}
	.st52{fill:#6B92ED;}
	.st53{fill:#A398E7;}
	.st54{fill:#7F75BD;}
	.st55{fill:#FF564C;}
	.st56{fill:#8A81C4;}
	.st57{fill:#585082;}
	.st58{fill:#339CEE;}
	.st59{fill:#CFCFCF;}
	.st60{fill:#3E314D;}
	.st61{fill:#CF170E;}
	.st62{fill:#FFD49B;}
	.st63{fill:#E0D2C4;}
	.st64{fill:#E3BD8A;}
	.st65{fill:#A39287;}
	.st66{fill:#3F3E40;}
	.st67{fill:#64C2E3;}
	.st68{fill:#16C4C1;}
	.st69{fill:#48484A;}
	.st70{fill:#6BE0EB;}
	.st71{fill:#686A6B;}
	.st72{fill:#34A3C9;}
	.st73{fill:#7A7C7D;}
	.st74{fill:#ED3F45;}
	.st75{fill:#242424;}
	.st76{fill:#D9F1F4;}
	.st77{fill:#6B5C4E;}
	.st78{fill:#EBFFFF;}
	.st79{fill:#9BBECA;}
	.st80{fill:#564A3E;}
	.st81{fill:#B8D9E2;}
	.st82{fill:#645649;}
	.st83{fill:#424244;}
	.st84{fill:#766556;}
	.st85{fill:#353738;}
	.st86{fill:#2EADFF;}
	.st87{fill:#259CE8;}
	.st88{fill:#B9FEFF;}
	.st89{fill:#7EE6E8;}
	.st90{fill:#1485CC;}
	.st91{fill:#97F5F7;}
	.st92{fill:#333333;}
	.st93{fill:#E8DEC5;}
	.st94{fill:#1DA87B;}
	.st95{fill:#F0ECE2;}
	.st96{fill:#34D09C;}
	.st97{fill:#53F5D1;}
	.st98{fill:#B5DB76;}
	.st99{fill:#8BB548;}
	.st100{fill:#D2FF89;}
	.st101{fill:#B9EB67;}
	.st102{fill:#699124;}
	.st103{fill:#7FBD6E;}
	.st104{fill:#22A0C9;}
	.st105{fill:#51C2E8;}
	.st106{fill:#E3E691;}
	.st107{fill:#036E91;}
	.st108{fill:#B08851;}
	.st109{fill:#BDAD64;}
	.st110{fill:#70CCA6;}
	.st111{fill:#A68DC7;}
	.st112{fill:#9E763F;}
	.st113{fill:#9275BA;}
	.st114{fill:#4AA882;}
	.st115{fill:#D9CE96;}
	.st116{fill:#6E5638;}
	.st117{fill:#846491;}
	.st118{fill:#F5AA40;}
	.st119{fill:#775882;}
	.st120{fill:#9A7AA6;}
	.st121{fill:#F58840;}
	.st122{fill:#4A4052;}
	.st123{fill:#A3B06D;}
	.st124{fill:#D1A976;}
	.st125{fill:#A68051;}
	.st126{fill:#E8DBCA;}
	.st127{fill:#838F4E;}
	.st128{fill:#634A2C;}
	.st129{fill:#EDDB91;}
	.st130{fill:#8A5AAD;}
	.st131{fill:#33ABCC;}
	.st132{fill:#E69035;}
	.st133{fill:#ED68CA;}
	.st134{fill:#A18545;}
	.st135{fill:#5CB05D;}
	.st136{fill:#75D3E3;}
	.st137{fill:#B84D4D;}
	.st138{fill:#FFBD56;}
	.st139{fill:#CF5656;}
	.st140{fill:#FFD556;}
	.st141{fill:#ED7E7E;}
	.st142{fill:#506A78;}
	.st143{fill:#BA6262;}
	.st144{fill:#555157;}
	.st145{fill:#BA4921;}
	.st146{fill:#BA5221;}
	.st147{fill:#861E1E;}
	.st148{fill:#972121;}
	.st149{fill:#AD3030;}
	.st150{fill:#3A292E;}
	.st151{fill:#ACE5EE;}
	.st152{fill:#99979A;}
	.st153{fill:#C17A7A;}
	.st154{fill:#897F82;}
	.st155{fill:#CE8383;}
	.st156{fill:#D6927A;}
	.st157{fill:#D6977A;}
	.st158{fill:#A8792D;}
	.st159{fill:#A87F3C;}
	.st160{fill:#91631B;}
	.st161{fill:#6B5D4C;}
	.st162{fill:#615445;}
	.st163{fill:#A37C50;}
	.st164{fill:#DB9D3D;}
	.st165{fill:#7A6956;}
	.st166{fill:#FFCA76;}
	.st167{fill:#825D34;}
	.st168{fill:#453933;}
	.st169{fill:#CC3540;}
	.st170{fill:#9E3941;}
	.st171{fill:#B3212C;}
	.st172{fill:#8A242C;}
	.st173{fill:#EBC8C9;}
	.st174{fill:#751F25;}
	.st175{fill:#D6963B;}
	.st176{fill:#CF1B35;}
	.st177{fill:#CF3E53;}
	.st178{fill:#BA0B25;}
	.st179{fill:#A1081F;}
	.st180{fill:#FA8A99;}
	.st181{fill:#ABABAB;}
	.st182{fill:#212121;}
	.st183{fill:#EBD2AC;}
	.st184{fill:#CFBB9B;}
	.st185{fill:#8F8575;}
	.st186{fill:#FFD9EE;}
	.st187{fill:#FFABD9;}
	.st188{fill:#D680B0;}
	.st189{fill:#D6AB00;}
	.st190{fill:#73DEFF;}
	.st191{fill:#FF9EF4;}
	.st192{fill:#E38DD9;}
	.st193{fill:#CC8BEF;}
	.st194{fill:#FF9A9A;}
	.st195{fill:#B54343;}
	.st196{fill:#FFCC00;}
	.st197{fill:#EBECEC;}
	.st198{fill:#9466AD;}
	.st199{fill:#A13232;}
	.st200{fill:#F08484;}
	.st201{fill:#414042;}
</style>
<g>
	<g>
		<path class="st189" d="M15.03,67.93c1.62,2.14,4.38,4.89,6.58,6.96c-4.33-0.05-7.68-1.56-7.75-3.27
			c-0.01-0.42-0.33-0.78-0.75-0.89c-0.01,0-0.02-0.01-0.03-0.01c-2.05-0.53-2.72-1.49-2.81-2.41c-0.13-1.22,0.74-2.37,0.74-2.37
			S12.47,64.55,15.03,67.93z"/>
	</g>
	<g>
		<path class="st0" d="M78.52,73.17l-0.11,0.89c-1.07-0.11-2.15-0.07-3.21,0.1l-6.32,0.98l-0.04-0.26c-0.2-1.46,0.03-3.18,0.74-4.88
			c1.43-3.44,4.34-5.55,6.69-4.97c-0.26-0.03-0.52,0-0.76,0.1c-1.13,0.45-1.5,2.18-0.83,3.87s2.14,2.69,3.27,2.24
			c0.73-0.29,1.14-1.12,1.16-2.13C79.22,70.35,79.04,71.76,78.52,73.17z"/>
	</g>
	<g>
		<path class="st0" d="M63.63,66.19c0.16,2.03-0.2,4.35-1.15,6.63c-1.1,2.62-2.78,4.72-4.63,6.04l-0.23,0.27
			c-2.19-1.89-5.03-3.02-8.15-3.02c-0.34,0-0.69,0.01-1.02,0.05l-0.01-0.06c-0.77-2.46-0.58-5.68,0.73-8.83
			c2.21-5.29,6.79-8.46,10.4-7.31c-0.45-0.08-0.89-0.04-1.31,0.12c-1.69,0.68-2.24,3.26-1.24,5.79c1.01,2.52,3.19,4.02,4.88,3.34
			C62.94,68.8,63.56,67.63,63.63,66.19z"/>
	</g>
	<g>
		<path class="st190" d="M53.21,129.22c2.1,4.62,3.23,8.12,2.63,8.43c-0.62,0.31-2.93-2.96-5.54-7.72l-0.07-0.17
			c0.98-0.36,1.87-0.8,2.63-1.3C52.98,128.72,53.09,128.97,53.21,129.22z"/>
	</g>
	<g>
		<path class="st190" d="M39.3,130.71l-0.07,0.47c-1.63,5.17-3.26,8.84-3.93,8.65c-0.69-0.19-0.16-4.34,1.19-9.79
			C37.36,130.32,38.31,130.55,39.3,130.71z"/>
	</g>
	<g>
		<path class="st191" d="M44.99,130.91c1.55-0.13,3.01-0.42,4.33-0.84c0.31,5.37-0.84,9.5-2.96,9.86c-2.2,0.38-4.75-3.44-6.2-8.93
			l0.02-0.17c0.9,0.11,1.83,0.17,2.79,0.17C43.66,131,44.33,130.97,44.99,130.91z"/>
	</g>
	<g>
		<path class="st192" d="M33.47,128.71c0.81,0.48,1.74,0.9,2.77,1.25c-0.37,0.32-0.77,0.65-1.17,0.98
			c-5.32,4.24-10.81,6.21-12.26,4.38c-0.6-0.74-0.42-2.01,0.36-3.55L31,127l0.19-0.16C31.77,127.53,32.54,128.16,33.47,128.71z"/>
	</g>
	<g>
		<path class="st193" d="M57.1,134.37l1.72,2.26c0.56,0.73,0.54,1.78-0.1,2.45c-3.08,3.19-11.34,4.92-21.17,4.92
			c-9.11,0-17.27-2.18-20.95-5.33c-0.99-0.84-0.81-2.4,0.31-3.08l4.14-2.53l2.12-1.29c-0.78,1.54-0.96,2.81-0.36,3.55
			c1.45,1.83,6.94-0.14,12.26-4.38c0.4-0.33,0.8-0.66,1.17-0.98c0.08,0.03,0.16,0.06,0.25,0.08c-1.35,5.45-1.88,9.6-1.19,9.79
			c0.67,0.19,2.3-3.48,3.93-8.65l0.07-0.47c0.29,0.05,0.58,0.09,0.88,0.12L40.16,131c1.45,5.49,4,9.31,6.2,8.93
			c2.12-0.36,3.27-4.49,2.96-9.86c0.31-0.09,0.61-0.19,0.91-0.31l0.07,0.17c2.61,4.76,4.92,8.03,5.54,7.72
			c0.6-0.31-0.53-3.81-2.63-8.43L57.1,134.37z"/>
	</g>
	<g>
		<path class="st194" d="M53,118.78c0,0.4-0.03,0.8-0.09,1.17c-0.21,0.04-0.43,0.05-0.64,0.05c-3,0-5.64-2.9-7.1-7.25
			c0.68-0.34,1.44-0.54,2.23-0.54C50.49,112.21,53,115.15,53,118.78z"/>
	</g>
	<g>
		<path class="st195" d="M58.9,114.01v0.04c-0.05,0.11-0.1,0.23-0.15,0.34l-0.01-0.01c-1.4,3.15-3.48,5.25-5.83,5.57
			c0.06-0.37,0.09-0.77,0.09-1.17c0-3.63-2.51-6.57-5.6-6.57c-0.79,0-1.55,0.2-2.23,0.54c-0.78-2.31-1.23-5.03-1.23-7.94
			c0-3.73,0.73-7.15,1.96-9.8l-0.05-0.15c0.05-0.02,0.1-0.03,0.16-0.05c0.24-0.08,0.48-0.15,0.71-0.23l1.45,0.08
			c-0.36,1.44-0.55,2.98-0.55,4.58c0,8.16,5.01,14.77,11.19,14.77C58.84,114.01,58.87,114.01,58.9,114.01z"/>
	</g>
	<g>
		<path class="st196" d="M88,62.46c2.41,3.16,2.75,7.53,0.42,10.76c-0.9,1.26-3.02,2.43-4.78,2.78l-0.05,0.06
			c-0.63-0.45-1.31-0.85-2.03-1.17c-0.01,0-0.03-0.01-0.04-0.01c-0.05-0.02-0.09-0.04-0.14-0.06l0.13-0.31
			c0.36-0.55,0.76-1.05,1.22-1.5c2.25-2.21,2.58-5.72,0.6-8.17c-9.48-11.77-41.4-13.69-62.19,0.07l-1.75-1.79
			c-0.45-0.45-0.37-1.2,0.17-1.54C42.87,46.95,78,49.35,88,62.46z"/>
	</g>
	<g>
		<path class="st196" d="M78.96,81.98c-1.67-0.89-3.85-0.97-5.67,0.09l-3.81,2.22c-2.59,1.51-5.31-1.21-4.51-3.44l1.35-3.75
			c0.36-1.01,1.29-1.76,2.4-1.93l0.16-0.03l6.32-0.98c1.06-0.17,2.14-0.21,3.21-0.1c1.02,0.11,2.03,0.36,2.97,0.76
			c0.05,0.02,0.09,0.04,0.14,0.06c0.01,0,0.03,0.01,0.04,0.01c0.72,0.32,1.4,0.72,2.03,1.17C86.27,78,88,81.07,88,84.52
			c0,2.88-1.64,5.17-3.16,7.41c-1.65,2.43-6.77,5.7-11.67,8.5c-2.23,1.27-4.41,2.44-6.2,3.39c-5.73,3.04-6.72,6.18-6.72,6.18h-1.1
			c0,0-1.61-5.74,5.64-9.43c6.32-3.23,9.92-5.68,11.66-6.99c0.11-0.09,0.22-0.17,0.32-0.25c0.6-0.47,1.24-0.88,1.85-1.33
			c1.66-1.24,2.98-3.75,2.98-5.7c0-0.19-0.02-0.39-0.04-0.58C81.38,84.04,80.35,82.73,78.96,81.98z"/>
	</g>
	<g>
		<path class="st0" d="M57.62,79.13l0.23-0.27c1.85-1.32,3.53-3.42,4.63-6.04c0.95-2.28,1.31-4.6,1.15-6.63
			c0.04-0.86-0.11-1.81-0.49-2.76c-0.76-1.9-2.19-3.22-3.57-3.47c-3.61-1.15-8.19,2.02-10.4,7.31c-1.31,3.15-1.5,6.37-0.73,8.83
			l0.01,0.06c0.33-0.04,0.68-0.05,1.02-0.05C52.59,76.11,55.43,77.24,57.62,79.13z M58.75,114.39c0.05-0.11,0.1-0.23,0.15-0.34
			v-0.04c-0.03,0-0.06,0-0.09,0c-6.18,0-11.19-6.61-11.19-14.77c0-1.6,0.19-3.14,0.55-4.58l-1.45-0.08
			c-0.23,0.08-0.47,0.15-0.71,0.23c-0.06,0.02-0.11,0.03-0.16,0.05l0.05,0.15c-1.23,2.65-1.96,6.07-1.96,9.8
			c0,2.91,0.45,5.63,1.23,7.94c1.46,4.35,4.1,7.25,7.1,7.25c0.21,0,0.43-0.01,0.64-0.05c2.35-0.32,4.43-2.42,5.83-5.57L58.75,114.39
			z M55.77,125.01c-9.03,5.28-18.44,3.05-25.54-2.6c-4.65-3.69-8.31-8.84-10.23-14.29c-4.72-13.41-9.44-18.14-11.24-19.55
			c-0.03-0.02-0.05-0.04-0.08-0.06c-1.15-0.92-2.11-2.08-2.63-3.46C4.96,82.07,5.11,77.09,13,71l0.08-0.28
			c0.01,0,0.02,0.01,0.03,0.01c0.42,0.11,0.74,0.47,0.75,0.89c0.07,1.71,3.42,3.22,7.75,3.27C23.51,76.7,25,78,25,78v-6.62
			c0-1.57-0.52-3.08-1.63-4.21l-2.23-2.26c20.79-13.76,52.71-11.84,62.19-0.07c1.98,2.45,1.65,5.96-0.6,8.17
			c-0.46,0.45-0.86,0.95-1.22,1.5l-0.13,0.31c-0.94-0.4-1.95-0.65-2.97-0.76l0.11-0.89c0.52-1.41,0.7-2.82,0.59-4.06
			c0.01-0.54-0.09-1.14-0.33-1.74c-0.52-1.33-1.54-2.23-2.5-2.34c0,0,0,0-0.01,0c-2.35-0.58-5.26,1.53-6.69,4.97
			c-0.71,1.7-0.94,3.42-0.74,4.88l0.04,0.26l-0.16,0.03c-1.11,0.17-2.04,0.92-2.4,1.93l-1.35,3.75c-0.8,2.23,1.92,4.95,4.51,3.44
			l3.81-2.22c1.82-1.06,4-0.98,5.67-0.09c-0.67,3.19-1.31,7-2.52,11.34l0.01,0.26c-1.74,1.31-5.34,3.76-11.66,6.99
			c-7.25,3.69-5.64,9.43-5.64,9.43h1.1c0,0,0.99-3.14,6.72-6.18c1.79-0.95,3.97-2.12,6.2-3.39l0.77,0.32
			c-1.78,4.4-4.28,9.21-7.94,14.39C62.76,119.74,59.29,122.94,55.77,125.01z"/>
	</g>
	<g>
		<path class="st196" d="M57.1,134.37c4.64,0.69,7.9,2.38,7.9,4.63c0,6.45-12.39,10-27.92,10s-28.12-5.23-28.12-11.67
			c0-3.19,5.31-4.26,12.04-4.35l0.05,0.08l-4.14,2.53c-1.12,0.68-1.3,2.24-0.31,3.08c3.68,3.15,11.84,5.33,20.95,5.33
			c9.83,0,18.09-1.73,21.17-4.92c0.64-0.67,0.66-1.72,0.1-2.45L57.1,134.37z"/>
	</g>
	<g>
		<path class="st196" d="M36.49,130.04c-0.09-0.02-0.17-0.05-0.25-0.08c-1.03-0.35-1.96-0.77-2.77-1.25
			c-0.93-0.55-1.7-1.18-2.28-1.87c-0.78-0.92-1.21-1.95-1.21-3.03c0-0.48,0.08-0.95,0.25-1.4c7.1,5.65,16.51,7.88,25.54,2.6
			c-0.39,1.31-1.43,2.49-2.91,3.45c-0.76,0.5-1.65,0.94-2.63,1.3c-0.3,0.12-0.6,0.22-0.91,0.31c-1.32,0.42-2.78,0.71-4.33,0.84
			c-0.66,0.06-1.33,0.09-2.02,0.09c-0.96,0-1.89-0.06-2.79-0.17c-0.3-0.03-0.59-0.07-0.88-0.12
			C38.31,130.55,37.36,130.32,36.49,130.04z"/>
	</g>
	<g>
		<g>
			<path class="st189" d="M43.182,130.83c-0.3-0.03-0.59-0.07-0.88-0.12c-0.99-0.16-1.94-0.39-2.81-0.67
				c-0.09-0.02-0.17-0.05-0.25-0.08c-1.03-0.35-1.96-0.77-2.77-1.25c-0.93-0.55-1.7-1.18-2.28-1.87
				c-0.64-0.754-1.028-1.585-1.153-2.454c-0.97-0.598-1.909-1.259-2.81-1.976c-0.17,0.45-0.25,0.92-0.25,1.4
				c0,1.08,0.43,2.11,1.21,3.03c0.58,0.69,1.35,1.32,2.28,1.87c0.81,0.48,1.74,0.9,2.77,1.25c0.08,0.03,0.16,0.06,0.25,0.08
				c0.87,0.28,1.82,0.51,2.81,0.67c0.29,0.05,0.58,0.09,0.88,0.12c0.9,0.11,1.83,0.17,2.79,0.17c0.474,0,0.93-0.034,1.388-0.062
				C43.962,130.91,43.568,130.877,43.182,130.83z"/>
		</g>
	</g>
	<g>
		<g>
			<path class="st197" d="M62.918,109.942c2.35-0.32,4.43-2.42,5.83-5.57l0.01,0.01c0.05-0.11,0.1-0.23,0.15-0.34v-0.04
				c-0.03,0-0.06,0-0.09,0c-0.614,0-1.212-0.083-1.799-0.208c-0.016,0.008-0.033,0.018-0.049,0.026
				c-4.522,2.399-6.087,4.854-6.548,5.785c0.597,0.248,1.218,0.387,1.856,0.387C62.488,109.992,62.708,109.982,62.918,109.942z"/>
		</g>
		<g>
			<path class="st197" d="M65.778,115.002c-3.101,1.813-6.246,2.723-9.327,2.93c-1.057,1.12-2.256,1.843-3.541,2.018
				c-0.21,0.04-0.43,0.05-0.64,0.05c-2.082,0-3.989-1.398-5.45-3.706c-2.339-0.96-4.557-2.281-6.582-3.892
				c-4.65-3.69-8.31-8.84-10.23-14.29c-4.72-13.41-9.44-18.14-11.24-19.55c-0.03-0.02-0.05-0.04-0.08-0.06
				c-1.15-0.92-2.11-2.08-2.63-3.46c-0.153-0.418-0.277-0.879-0.363-1.373c-1.124-0.57-1.804-1.289-1.835-2.049
				c-0.01-0.42-0.33-0.78-0.75-0.89c-0.01,0-0.02-0.01-0.03-0.01L13,71c-7.89,6.09-8.04,11.07-6.95,14.05
				c0.52,1.38,1.48,2.54,2.63,3.46c0.03,0.02,0.05,0.04,0.08,0.06c1.8,1.41,6.52,6.14,11.24,19.55c1.92,5.45,5.58,10.6,10.23,14.29
				c7.1,5.65,16.51,7.88,25.54,2.6c3.52-2.07,6.99-5.27,10.23-9.87c0.116-0.164,0.221-0.325,0.335-0.489
				C66.149,114.767,65.964,114.893,65.778,115.002z"/>
		</g>
	</g>
	<g>
		<g>
			<path class="st189" d="M23.568,142.101c-2.964-0.9-5.383-2.075-6.968-3.431c-0.99-0.84-0.81-2.4,0.31-3.08l4.14-2.53L21,132.98
				c-6.73,0.09-12.04,1.16-12.04,4.35c0,6.44,12.59,11.67,28.12,11.67c2.773,0,5.443-0.115,7.964-0.338
				C35.759,147.906,27.944,145.447,23.568,142.101z"/>
		</g>
	</g>
	<g>
		<path class="st189" d="M13.08,70.72L13,71c-7.89,6.09-8.04,11.07-6.95,14.05c0.52,1.38,1.48,2.54,2.63,3.46l-0.01,0.01l-1.2-0.09
			c-2.63-0.21-5.04-1.73-5.97-4.05c-0.01-0.02-0.02-0.03-0.02-0.05C0.19,81.06,1,75,10.25,68.31h0.02
			C10.36,69.23,11.03,70.19,13.08,70.72z"/>
	</g>
	<g>
		<g>
			<path class="st189" d="M69.48,84.29l2.597-1.513c-0.264-0.609-0.331-1.287-0.102-1.927l1.35-3.75c0.36-1.01,1.29-1.76,2.4-1.93
				l0.16-0.03l4.411-0.684c-0.617-0.182-1.246-0.327-1.886-0.396c-1.07-0.11-2.15-0.07-3.21,0.1l-6.32,0.98l-0.16,0.03
				c-1.11,0.17-2.04,0.92-2.4,1.93l-1.35,3.75C64.17,83.08,66.89,85.8,69.48,84.29z"/>
		</g>
	</g>
	<g>
		<path class="st198" d="M26.608,138.67c-0.989-0.839-0.81-2.397,0.308-3.078c-1.94,0.599-3.445,0.562-4.106-0.272
			c-0.6-0.74-0.42-2.01,0.36-3.55l-2.12,1.29l-4.14,2.53c-1.12,0.68-1.3,2.24-0.31,3.08c3.68,3.15,11.84,5.33,20.95,5.33
			c1.881,0,3.703-0.065,5.444-0.189C35.795,143.222,29.659,141.282,26.608,138.67z"/>
	</g>
	<g>
		<g>
			<path class="st199" d="M46.942,105.811c0-2.161,0.251-4.211,0.697-6.074c-0.004-0.166-0.019-0.329-0.019-0.497
				c0-1.6,0.19-3.14,0.55-4.58l-1.45-0.08c-0.23,0.08-0.47,0.15-0.71,0.23c-0.06,0.02-0.11,0.03-0.16,0.05l0.05,0.15
				c-1.23,2.65-1.96,6.07-1.96,9.8c0,2.91,0.45,5.63,1.23,7.94c0.68-0.34,1.44-0.54,2.23-0.54c0.113,0,0.223,0.012,0.333,0.02
				C47.231,110.277,46.942,108.108,46.942,105.811z"/>
		</g>
		<g>
			<path class="st199" d="M58.717,114.426c0.007-0.016,0.016-0.03,0.023-0.046l0.01,0.01c0.05-0.11,0.1-0.23,0.15-0.34v-0.04
				c-0.03,0-0.06,0-0.09,0c-0.408,0-0.81-0.033-1.207-0.089C57.965,114.115,58.337,114.282,58.717,114.426z"/>
		</g>
	</g>
	<g>
		<path class="st200" d="M47.339,112.214c-0.768,0.01-1.507,0.205-2.169,0.536c1.46,4.35,4.1,7.25,7.1,7.25
			c0.21,0,0.43-0.01,0.64-0.05c0.058-0.359,0.086-0.747,0.087-1.135C50.639,118.153,48.604,115.689,47.339,112.214z"/>
	</g>
	<g>
		<g>
			<path class="st197" d="M71.582,71.001c0.669-1.609,1.663-2.921,2.77-3.808c0.034-0.977,0.442-1.777,1.158-2.062
				c0.24-0.1,0.5-0.13,0.76-0.1c-2.35-0.58-5.26,1.53-6.69,4.97c-0.71,1.7-0.94,3.42-0.74,4.88l0.04,0.26l1.899-0.294
				C70.778,73.637,71.033,72.315,71.582,71.001z"/>
		</g>
	</g>
	<g>
		<g>
			<path class="st197" d="M52.172,68.271c1.06-2.536,2.666-4.577,4.447-5.896c0.21-1.089,0.771-1.945,1.64-2.295
				c0.42-0.16,0.86-0.2,1.31-0.12c-3.61-1.15-8.19,2.02-10.4,7.31c-1.31,3.15-1.5,6.37-0.73,8.83l0.01,0.06
				c0.33-0.04,0.68-0.05,1.02-0.05c0.597,0,1.18,0.054,1.754,0.134C50.733,73.918,51.009,71.068,52.172,68.271z"/>
		</g>
	</g>
	<g>
		<path class="st201" d="M89.23,73.805c2.524-3.498,2.349-8.301-0.436-11.952c-5.034-6.6-16.246-10.8-29.992-11.235
			c-14.317-0.454-28.811,3.233-39.775,10.116c-0.515,0.324-0.849,0.855-0.917,1.458c-0.068,0.606,0.14,1.202,0.564,1.627
			l3.982,4.051C23.767,69,24,70.402,24,71.38v4.375c-0.498-0.457-1.08-0.999-1.704-1.594c-2.051-1.93-4.838-4.682-6.469-6.835
			c-1.263-1.667-2.52-2.562-3.738-2.66c-1.035-0.085-1.657,0.443-1.769,0.55c-0.039,0.037-0.075,0.078-0.108,0.121
			c-0.098,0.13-0.852,1.169-0.944,2.459c-10.745,7.955-9.545,14.631-8.778,16.742l0.107,0.276c1.056,2.56,3.715,4.367,6.799,4.613
			l0.915,0.068c1.847,1.512,6.258,6.201,10.747,18.957c1.935,5.493,5.496,10.542,10.044,14.308
			c-0.073,0.341-0.121,0.689-0.121,1.049c0,0.95,0.276,1.89,0.797,2.764l-8.871,5.409c-8.71,0.127-12.946,1.876-12.946,5.348
			c0,7.104,12.791,12.67,29.12,12.67C54.648,150,66,145.683,66,139c0-2.633-3.109-4.69-8.332-5.549l-3.537-4.671
			c1.202-0.925,2.042-1.99,2.463-3.109c3.713-2.255,7.153-5.596,10.222-9.954c3.381-4.783,6.014-9.557,8.051-14.592l-0.53-0.215
			c6.211-3.592,9.926-6.351,11.33-8.419l0.182-0.267C87.326,90.054,89,87.594,89,84.52c0-3.068-1.242-5.922-3.438-8.079
			C86.978,75.862,88.423,74.936,89.23,73.805z M11.718,66.676c0.291-0.087,1.177,0.092,2.516,1.858
			c1.199,1.584,2.965,3.449,4.637,5.104c-2.579-0.47-3.987-1.477-4.01-2.043c-0.021-0.844-0.623-1.589-1.467-1.824
			c-0.021-0.007-0.042-0.013-0.063-0.019v0c-1.303-0.337-1.998-0.855-2.066-1.548C11.203,67.636,11.518,66.996,11.718,66.676z
			 M2.435,84.022l-0.023-0.06c-1.243-3.149,0.123-8.438,7.418-14.079c0.307,0.438,0.771,0.861,1.458,1.22
			c-7.173,5.992-7.362,11.048-6.173,14.299c0.229,0.607,0.551,1.18,0.93,1.732C4.374,86.613,3.027,85.488,2.435,84.022z
			 M58.026,137.238c0.271,0.354,0.259,0.849-0.026,1.147C55.252,141.231,47.415,143,37.55,143c-8.585,0-16.743-2.046-20.303-5.093
			c-0.283-0.239-0.304-0.547-0.291-0.708c0.024-0.312,0.197-0.587,0.476-0.756l4.04-2.463c-0.047,0.919,0.223,1.554,0.553,1.961
			c0.318,0.4,0.929,0.905,2.036,1.032c0.176,0.02,0.359,0.03,0.551,0.03c2.544,0,6.425-1.774,10.321-4.711
			c-1.768,7.98-0.615,8.304,0.094,8.5c0.121,0.034,0.255,0.072,0.407,0.072c0.755,0,1.96-0.935,4.267-7.89
			c1.329,4.054,3.576,7.984,6.326,7.984c0.165,0,0.332-0.015,0.5-0.043c2.784-0.473,3.794-4.587,3.839-8.824
			c3.219,5.619,4.602,6.612,5.372,6.612c0.23,0,0.406-0.088,0.561-0.165c0.46-0.239,1.065-0.564,0.417-3.03L58.026,137.238z
			 M31.051,128.141c0.199,0.19,0.412,0.374,0.637,0.552l-4.391,2.914c-0.46,0.306-0.586,0.926-0.28,1.386
			c0.192,0.29,0.51,0.447,0.834,0.447c0.189,0,0.382-0.054,0.552-0.167l5.131-3.406c0.254,0.135,0.5,0.275,0.77,0.399
			c-4.455,3.513-8.302,4.909-10.014,4.72c-0.234-0.026-0.546-0.099-0.702-0.296c-0.21-0.258-0.22-1.007,0.35-2.213L31.051,128.141z
			 M44.163,131.947l0.603,3.303c0.088,0.482,0.509,0.82,0.982,0.82c0.06,0,0.12-0.005,0.181-0.017
			c0.543-0.099,0.903-0.62,0.804-1.163l-0.567-3.105c0.755-0.101,1.49-0.24,2.2-0.414c0.081,4.939-1.17,7.402-2.176,7.572
			c-1.233,0.212-3.291-2.386-4.715-6.992c0.498,0.031,0.997,0.048,1.494,0.048C43.378,132,43.768,131.967,44.163,131.947z
			 M52.404,129.869c0.969,2.15,1.601,3.76,1.991,4.907c-0.725-1.049-1.66-2.54-2.774-4.525
			C51.891,130.129,52.152,130.003,52.404,129.869z M37.219,131.281c0.285,0.075,0.572,0.142,0.863,0.205
			c-0.739,2.29-1.395,4.023-1.921,5.238C36.338,135.417,36.668,133.609,37.219,131.281z M49.859,128.831
			c-0.271,0.108-0.54,0.198-0.842,0.286c-1.28,0.407-2.663,0.675-4.117,0.797c-1.504,0.135-3.054,0.112-4.62-0.079
			c-0.276-0.027-0.544-0.064-0.821-0.112c-0.923-0.149-1.818-0.362-2.746-0.657c-0.043-0.01-0.081-0.026-0.151-0.053
			c-0.962-0.326-1.83-0.718-2.583-1.163c-0.838-0.496-1.519-1.052-2.025-1.656c-0.532-0.627-0.835-1.284-0.93-1.955
			c4.469,3.166,9.252,4.783,14.003,4.783c2.296,0,4.583-0.382,6.823-1.134C51.252,128.236,50.604,128.558,49.859,128.831z M64,139
			c0,5.299-11.07,9-26.92,9c-14.7,0-27.12-4.886-27.12-10.67c0-1.649,2.645-2.763,7.385-3.176l-0.953,0.581
			c-0.82,0.497-1.354,1.358-1.43,2.306c-0.073,0.923,0.288,1.795,0.987,2.389c3.953,3.384,12.433,5.57,21.601,5.57
			c10.547,0,18.729-1.953,21.893-5.229c0.964-1.008,1.037-2.62,0.174-3.747l-0.104-0.137C62.272,136.635,64,137.789,64,139z
			 M65.183,114.563c-2.993,4.25-6.331,7.475-9.918,9.583c-7.783,4.551-16.682,3.632-24.412-2.52
			c-4.44-3.523-8.053-8.568-9.909-13.839c-4.8-13.637-9.688-18.533-11.639-20.059c-1.117-0.895-1.897-1.915-2.315-3.023
			c-1.401-3.83,0.675-8.109,5.991-12.408c0.689,2.224,4.441,3.462,8.222,3.583c1.76,1.667,3.126,2.86,3.141,2.873
			C24.528,78.916,24.763,79,25,79c0.141,0,0.281-0.029,0.414-0.09C25.771,78.748,26,78.392,26,78v-6.62
			c0-1.909-0.681-3.653-1.918-4.913l-1.356-1.373c20.521-12.855,50.801-10.832,59.826,0.374c1.622,2.007,1.397,4.943-0.52,6.826
			c-0.393,0.384-0.748,0.821-1.087,1.295c-0.451-0.15-0.918-0.269-1.397-0.362c0.464-1.366,0.661-2.769,0.562-4.09
			c0-0.003,0.001-0.006,0.001-0.009c0-0.005-0.001-0.01-0.001-0.016c-0.002-0.031,0-0.063-0.002-0.093
			c-0.003-0.034-0.01-0.065-0.014-0.098c-0.015-0.639-0.135-1.298-0.381-1.915c-0.62-1.585-1.851-2.714-3.164-2.938
			c-0.009-0.002-0.016-0.006-0.025-0.008c-0.005-0.001-0.01,0-0.015-0.001c-0.008-0.002-0.015-0.002-0.022-0.004
			c-0.03-0.004-0.06-0.015-0.09-0.019c-0.008-0.001-0.016-0.001-0.024-0.002c-2.832-0.601-6.129,1.767-7.713,5.581
			c-0.66,1.58-0.938,3.243-0.846,4.765c-1.131,0.399-2.033,1.26-2.431,2.381l-1.352,3.751c-0.522,1.456,0.007,3.166,1.316,4.255
			c1.348,1.122,3.125,1.269,4.64,0.388l3.809-2.22c1.215-0.708,2.703-0.826,4.025-0.361c-0.112,0.551-0.225,1.113-0.34,1.697
			c-0.516,2.603-1.101,5.554-2,8.781l0.004,0.001c-1.726,1.263-5.233,3.604-11.145,6.626c-7.89,4.016-6.168,10.526-6.149,10.592
			c0.121,0.432,0.515,0.729,0.963,0.729h1.1c0.427,0,0.812-0.283,0.95-0.688c0.01-0.028,1.025-2.843,6.238-5.609
			c1.362-0.723,3.073-1.641,4.861-2.638C70.43,106.341,68.092,110.446,65.183,114.563z M69.788,73.988
			c-0.025-1.147,0.211-2.396,0.716-3.604c0.686-1.651,1.761-2.962,2.904-3.725c-0.124,0.831-0.031,1.77,0.342,2.71
			c0.499,1.259,1.416,2.278,2.453,2.726c0.394,0.17,0.789,0.255,1.176,0.255c0.122,0,0.242-0.017,0.361-0.034
			c-0.052,0.169-0.096,0.338-0.158,0.506l-0.037,0.101c-0.01,0.028-0.022,0.056-0.033,0.084c-0.815-0.02-1.64,0.033-2.465,0.166
			L69.788,73.988z M79.439,84.659c0.063-0.318,0.123-0.605,0.184-0.913c0.528,0.584,0.858,1.3,0.942,2.081
			c0.017,0.155,0.034,0.318,0.034,0.473c0,1.638-1.153,3.831-2.568,4.891C78.614,88.826,79.047,86.643,79.439,84.659z M84.195,91.1
			l-0.183,0.269c-1.262,1.858-5.076,4.615-11.338,8.192c-2.245,1.28-4.479,2.477-6.174,3.376c-3.782,2.007-5.637,4.104-6.505,5.421
			c0.062-1.713,0.88-4.673,5.249-6.896c6.173-3.155,9.827-5.593,11.84-7.108l0.301-0.234c0.34-0.266,0.692-0.511,1.044-0.757
			c0.264-0.184,0.526-0.366,0.789-0.561c1.928-1.439,3.381-4.234,3.381-6.501c0-0.225-0.021-0.462-0.046-0.687
			c-0.204-1.908-1.341-3.554-3.123-4.516c-1.006-0.536-2.121-0.804-3.232-0.804c-1.187,0-2.369,0.305-3.412,0.912l-3.81,2.22
			c-1.121,0.654-2.02,0.081-2.354-0.196c-0.654-0.545-0.947-1.385-0.713-2.041l1.353-3.754c0.235-0.661,0.867-1.162,1.64-1.281
			l6.456-1.006c0.998-0.16,1.991-0.191,2.944-0.093c0.955,0.103,1.858,0.333,2.74,0.709c0.011,0.005,0.092,0.04,0.104,0.044
			c0.024,0.01,0.05,0.019,0.075,0.027c0.604,0.274,1.204,0.623,1.781,1.035c2.54,1.84,3.997,4.628,3.997,7.65
			C87,86.978,85.638,88.979,84.195,91.1z M83.714,74.951c-0.296-0.194-0.594-0.377-0.896-0.541c0.196-0.246,0.398-0.476,0.614-0.687
			c2.657-2.61,2.948-6.7,0.677-9.511c-4.801-5.96-15.123-9.666-27.613-9.911c-12.723-0.248-25.546,3.158-35.21,9.335l-1.195-1.209
			c23.208-14.565,57.483-11.987,67.114,0.639c2.246,2.945,2.408,6.791,0.401,9.572C86.932,73.581,85.233,74.578,83.714,74.951z"/>
		<path class="st201" d="M64.006,111.088c-1.577,1.259-3.298,1.905-5.196,1.922c-5.618,0-10.189-6.177-10.189-13.77
			c0-1.5,0.175-2.959,0.52-4.337c0.008-0.031,0-0.06,0.004-0.091c3.125-1.108,5.137-2.083,6.085-2.96
			c0.405-0.376,0.43-1.009,0.055-1.414c-0.377-0.406-1.01-0.43-1.414-0.055c-0.516,0.479-2.171,1.535-7.479,3.252
			c-0.128,0.045-0.26,0.086-0.393,0.128l-0.337,0.106c-0.008,0.003-0.104,0.034-0.111,0.036c-4.32,1.359-6.903,2.455-7.898,3.351
			c-0.41,0.369-0.444,1.001-0.074,1.412C37.774,98.889,38.047,99,38.32,99c0.238,0,0.478-0.085,0.669-0.257
			c0.302-0.272,1.397-0.996,5.277-2.314c-0.857,2.501-1.326,5.403-1.326,8.381c0,2.882,0.435,5.696,1.251,8.153
			c0.019,0.091,0.043,0.177,0.085,0.257c1.677,4.874,4.656,7.781,7.993,7.781c0.135,0,0.317-0.009,0.501-0.026
			C52.815,120.98,52.854,121,52.9,121c0.171,0,0.325-0.055,0.466-0.131c2.465-0.479,4.639-2.532,6.172-5.847
			c0.011-0.015,0.017-0.032,0.028-0.047c2.012-0.158,3.967-0.95,5.688-2.322c0.432-0.345,0.502-0.974,0.158-1.406
			C65.066,110.814,64.438,110.744,64.006,111.088z M46.452,113.338c0.315-0.081,0.634-0.128,0.949-0.128c2.536,0,4.6,2.499,4.6,5.57
			c0,0.069-0.013,0.132-0.015,0.201C49.84,118.809,47.785,116.705,46.452,113.338z M53.99,118.561
			c-0.103-4.072-3.016-7.351-6.59-7.351c-0.523,0-1.052,0.083-1.568,0.227c-0.573-2.04-0.892-4.3-0.892-6.627
			c0-3.369,0.635-6.614,1.782-9.179c0.081-0.026,0.159-0.051,0.231-0.076c-0.221,1.192-0.333,2.426-0.333,3.685
			c0,8.067,4.708,14.728,10.756,15.651C56.431,116.676,55.261,117.941,53.99,118.561z"/>
		<path class="st201" d="M43.051,79.068c1.625-1.099,3.519-1.76,5.52-1.915c0.291-0.036,0.6-0.043,0.899-0.043
			c2.759,0,5.422,0.986,7.51,2.788c0.217,0.181,0.415,0.37,0.613,0.568c0.195,0.195,0.451,0.293,0.707,0.293
			s0.512-0.098,0.707-0.293c0.357-0.357,0.371-0.907,0.076-1.299c1.792-1.475,3.311-3.559,4.32-5.964
			c0.961-2.307,1.378-4.707,1.225-6.957c0-0.004,0.001-0.007,0.001-0.01c0.049-1.041-0.146-2.139-0.561-3.177
			c-0.838-2.096-2.458-3.656-4.16-4.04l-0.034-0.012c-0.032-0.01-0.065-0.014-0.098-0.024c-0.009-0.002-0.018-0.006-0.027-0.007
			c-0.002,0-0.003,0-0.004,0c-0.001,0-0.001,0-0.002,0c-4.098-1.201-9.125,2.237-11.497,7.911c-1.187,2.855-1.546,5.868-1.032,8.443
			c-1.886,0.314-3.697,1.009-5.285,2.083c-0.457,0.31-0.577,0.931-0.268,1.389C41.971,79.257,42.592,79.379,43.051,79.068z
			 M50.093,67.655c1.313-3.142,3.586-5.526,5.856-6.481c-0.583,1.384-0.585,3.226,0.143,5.067c0.71,1.771,1.987,3.193,3.415,3.803
			c0.517,0.22,1.034,0.331,1.536,0.331c0.423,0,0.835-0.079,1.225-0.235c0.004-0.002,0.008-0.005,0.012-0.006
			c-0.182,0.774-0.409,1.547-0.721,2.299c-0.931,2.218-2.343,4.11-3.994,5.383c-2.322-1.745-5.16-2.705-8.095-2.705
			c-0.069,0-0.165,0.003-0.249,0.004C48.725,72.892,49.026,70.22,50.093,67.655z"/>
	</g>
</g>
</svg>
