<?xml version="1.0" encoding="utf-8"?>
<!-- Generator: Adobe Illustrator 19.2.1, SVG Export Plug-In . SVG Version: 6.00 Build 0)  -->
<svg version="1.1" id="Layer_1" xmlns="http://www.w3.org/2000/svg" xmlns:xlink="http://www.w3.org/1999/xlink" x="0px" y="0px"
	 viewBox="0 0 82.021 150.011" style="enable-background:new 0 0 82.021 150.011;" xml:space="preserve">
<style type="text/css">
	.st0{fill:#B3C471;}
	.st1{fill:#CAD681;}
	.st2{fill:#585948;}
	.st3{fill:#7D1F4D;}
	.st4{fill:#FFFFFF;}
	.st5{fill:#5CD7FF;}
	.st6{fill:#7BF0D3;}
	.st7{fill:#4579B3;}
	.st8{fill:#E75C54;}
	.st9{fill:#FFE75B;}
	.st10{fill:#C55049;}
	.st11{fill:#E3B347;}
	.st12{fill:#A54242;}
	.st13{fill:#F7CC46;}
	.st14{fill:#E5B72D;}
	.st15{fill:#644E35;}
	.st16{opacity:0.2;}
	.st17{fill:#E5A13F;}
	.st18{fill:#A0A1A4;}
	.st19{fill:#6A5C4F;}
	.st20{fill:#D8F0F3;}
	.st21{fill:#64574B;}
	.st22{fill:#B6D7E0;}
	.st23{fill:#564B40;}
	.st24{fill:#99BCC8;}
	.st25{fill:#49494B;}
	.st26{fill:#EAFFFF;}
	.st27{fill:#756557;}
	.st28{fill:#383A3B;}
	.st29{fill:#2EB67F;}
	.st30{fill:#6D6D70;}
	.st31{fill:#59595B;}
	.st32{fill:#51DEFF;}
	.st33{fill:#40E0D6;}
	.st34{fill:#8FD7FF;}
	.st35{fill:#40CFE9;}
	.st36{fill:#3ED1BC;}
	.st37{fill:#8EB9FF;}
	.st38{fill:#425DB4;}
	.st39{fill:#F2557C;}
	.st40{fill:#CE3A62;}
	.st41{fill:#E3396F;}
	.st42{fill:#F4B0C5;}
	.st43{fill:#E73B60;}
	.st44{fill:#C5284C;}
	.st45{fill:#D92756;}
	.st46{fill:#EAEBEB;}
	.st47{clip-path:url(#SVGID_2_);fill:#E5E5E5;}
	.st48{fill:#D3D3D3;}
	.st49{fill:#E5E5E5;}
	.st50{fill:#254DAA;}
	.st51{fill:#214599;}
</style>
<g>
	<path class="st4" d="M58.996,103.974c-3.87,0-7-3.13-7-7c0-3.87,3.13-7,7-7c0.34,0,0.67,0.02,1,0.07l0.48-0.18l4.22,11.16
		C63.436,102.804,61.356,103.974,58.996,103.974z"/>
	<circle class="st4" cx="55.996" cy="123.974" r="7"/>
	<path class="st4" d="M49.506,60.855l4.41,11.67l-0.92,0.35c-1.27,1.3-3.04,2.1-5,2.1c-3.87,0-7-3.13-7-7c0-3.87,3.13-7,7-7
		c0.34,0,0.67,0.02,1,0.07L49.506,60.855"/>
	<path class="st4" d="M32.996,116.975c-3.87,0-7-3.13-7-7c0-3.87,3.13-7,7-7c3.87,0,7,3.13,7,7
		C39.996,113.844,36.866,116.975,32.996,116.975"/>
	<path class="st4" d="M29.996,90.974c-2.79,0-5.2-1.63-6.33-4l-0.11-0.04l3.96-9.86l0.48,0.19c0.63-0.19,1.3-0.29,2-0.29
		c3.87,0,7,3.13,7,7S33.865,90.974,29.996,90.974"/>
	<path class="st39" d="M62.996,123.974c0-3.87-3.13-7-7-7c-3.87,0-7,3.13-7,7c0,3.87,3.13,7,7,7
		C59.866,130.975,62.996,127.844,62.996,123.974 M32.996,116.975c3.87,0,7-3.13,7-7c0-3.87-3.13-7-7-7c-3.87,0-7,3.13-7,7
		C25.995,113.844,29.126,116.975,32.996,116.975 M40.995,134.974c-5.02,0-9.81,0.16-14.22,0.44l-0.03-0.44
		c0.79-1.13,1.25-2.51,1.25-4c0-3.87-3.13-7-7-7c-3.87,0-7,3.13-7,7c0,1.91,0.76,3.64,2,4.9l0.09,0.59v0.01
		c-7.65,1.06-12.83,2.59-13.89,4.33l-0.2-0.1l21.56-53.77l0.11,0.04c1.13,2.37,3.54,4,6.33,4c3.87,0,7-3.13,7-7s-3.13-7-7-7
		c-0.7,0-1.37,0.1-2,0.29l-0.48-0.19l13.9-34.67l0.57,0.57l1.22,1.22l6.3,16.66l-0.51,0.19c-0.33-0.05-0.66-0.07-1-0.07
		c-3.87,0-7,3.13-7,7c0,3.87,3.13,7,7,7c1.96,0,3.73-0.8,5-2.1l0.92-0.35l6.56,17.34l-0.48,0.18c-0.33-0.05-0.66-0.07-1-0.07
		c-3.87,0-7,3.13-7,7c0,3.87,3.13,7,7,7c2.36,0,4.44-1.17,5.7-2.95l14.98,39.61C77.206,137.444,60.836,134.974,40.995,134.974"/>
	<path class="st40" d="M79.995,141.474c0,3.59-17.46,6.5-39,6.5c-21.54,0-39-2.91-39-6.5c0-0.22,0.07-0.45,0.2-0.67
		c1.06-1.74,6.24-3.27,13.89-4.33v-0.01c3.18-0.43,6.78-0.79,10.69-1.05c4.41-0.28,9.2-0.44,14.22-0.44
		c19.84,0,36.21,2.47,38.68,5.66l0.01,0.01L79.995,141.474"/>
	<path class="st4" d="M27.996,130.975c0,1.49-0.46,2.87-1.25,4l0.03,0.44c-3.91,0.26-7.51,0.62-10.69,1.05l-0.09-0.59
		c-1.24-1.26-2-2.99-2-4.9c0-3.87,3.13-7,7-7C24.865,123.974,27.996,127.104,27.996,130.975"/>
	<g>
		<path class="st41" d="M81.996,141.517c0-0.015,0.004-0.03,0.004-0.045c0-0.069-0.013-0.137-0.018-0.206
			c-0.004-0.04-0.004-0.079-0.01-0.119c-0.052-0.483-0.217-0.957-0.488-1.401l-14.764-39.041c-0.04-0.295-0.149-0.575-0.312-0.825
			L48.368,52.179l3.528,3.528c0.391,0.391,0.902,0.586,1.414,0.586c0.512,0,1.023-0.195,1.414-0.586
			c0.781-0.781,0.781-2.047,0-2.828l-8.906-8.906H58c1.104,0,2-0.895,2-2s-0.895-2-2-2H46.418l7.606-7.606
			c0.781-0.781,0.781-2.047,0-2.828c-0.781-0.781-2.047-0.781-2.828,0l-7.206,7.206v-9.772c0-1.105-0.896-2-2-2
			c-1.104,0-2,0.896-2,2v11.172l-7.896-7.896c-0.781-0.781-2.047-0.781-2.828,0c-0.781,0.781-0.781,2.047,0,2.828l6.896,6.896H26
			c-1.104,0-2,0.896-2,2s0.895,2,2,2h10.762l-8.196,8.196c-0.781,0.781-0.781,2.047,0,2.828c0.391,0.391,0.902,0.586,1.414,0.586
			c0.511,0,1.023-0.195,1.414-0.586l4.704-4.704L0.143,139.959c-0.141,0.353-0.168,0.72-0.11,1.07
			C0.011,141.176,0,141.324,0,141.472c0,3.075,3.916,5.039,13.094,6.569c7.472,1.245,17.382,1.931,27.906,1.931
			c10.524,0,20.435-0.686,27.906-1.931c8.996-1.5,12.927-3.419,13.079-6.391C81.989,141.606,81.995,141.562,81.996,141.517z
			 M17.286,134.297c-0.822-0.914-1.286-2.08-1.286-3.324c0-2.757,2.243-5,5-5c2.757,0,5,2.243,5,5c0,0.913-0.252,1.781-0.707,2.545
			C22.486,133.724,19.806,133.985,17.286,134.297z M21,121.972c-4.963,0-9,4.037-9,9c0,1.397,0.324,2.743,0.922,3.962
			c-3.08,0.517-5.382,1.07-7.102,1.615l18.34-45.739c1.606,1.365,3.67,2.162,5.839,2.162c4.963,0,9-4.037,9-9
			c0-4.794-3.769-8.712-8.499-8.975l11.247-28.05c0.08,0.01,0.159,0.024,0.241,0.024c0.044,0,0.085-0.01,0.128-0.013L46.7,59.077
			c-4.348,0.633-7.7,4.375-7.7,8.895c0,4.963,4.037,9,9,9c1.779,0,3.469-0.514,4.915-1.462l4.754,12.571
			C53.337,88.728,50,92.463,50,96.972c0,4.963,4.037,9,9,9c1.756,0,3.447-0.523,4.885-1.455l12.099,31.993
			c-8.629-2.725-24.838-3.538-34.983-3.538c-3.824,0-7.613,0.095-11.311,0.277c0.191-0.738,0.311-1.497,0.311-2.277
			C30,126.01,25.963,121.972,21,121.972z M28.85,79.117c0.37-0.088,0.753-0.144,1.15-0.144c2.757,0,5,2.243,5,5c0,2.757-2.243,5-5,5
			c-1.722,0-3.273-0.856-4.191-2.271L28.85,79.117z M48.178,62.984l3.254,8.606c-0.928,0.885-2.135,1.382-3.432,1.382
			c-2.757,0-5-2.243-5-5c0-2.757,2.243-5,5-5C48.066,62.972,48.115,62.982,48.178,62.984z M62.408,100.613
			c-0.915,0.86-2.13,1.36-3.408,1.36c-2.757,0-5-2.243-5-5s2.243-5,5-5c0.053,0,0.093,0.008,0.144,0.01L62.408,100.613z M41,145.972
			c-21.639,0-33.936-2.762-36.628-4.483c0.996-0.619,3.93-1.918,11.992-3.035l0.186-0.035c3.185-0.425,6.671-0.765,10.357-1.01
			c4.557-0.29,9.298-0.437,14.093-0.437c20.099,0,33.744,2.535,36.658,4.497C75.03,143.19,62.722,145.972,41,145.972z"/>
		<path class="st41" d="M42,109.972c0-4.963-4.037-9-9-9s-9,4.037-9,9c0,4.963,4.037,9,9,9S42,114.935,42,109.972z M28,109.972
			c0-2.757,2.243-5,5-5c2.757,0,5,2.243,5,5c0,2.757-2.243,5-5,5C30.243,114.972,28,112.729,28,109.972z"/>
		<path class="st41" d="M56,132.972c4.963,0,9-4.037,9-9c0-4.963-4.037-9-9-9s-9,4.037-9,9C47,128.935,51.037,132.972,56,132.972z
			 M56,118.972c2.757,0,5,2.243,5,5s-2.243,5-5,5s-5-2.243-5-5S53.243,118.972,56,118.972z"/>
	</g>
	<path class="st42" d="M41.001,149.972c-0.001,0-0.001,0-0.001,0c0,0,0,0,0,0C41,149.972,41.001,149.972,41.001,149.972
		 M41.186,149.972c-0.014,0-0.026,0-0.039,0C41.159,149.972,41.172,149.972,41.186,149.972 M41.336,149.972c-0.013,0-0.026,0-0.04,0
		C41.31,149.972,41.323,149.972,41.336,149.972 M39.156,149.965c0.143,0.001,0.286,0.002,0.429,0.003
		C39.443,149.967,39.299,149.966,39.156,149.965 M14.432,148.255c6.842,1.041,15.501,1.64,24.722,1.711
		C29.933,149.895,21.274,149.296,14.432,148.255 M1.9,144.627c1.797,1.259,4.921,2.267,9.591,3.133
		C6.822,146.894,3.697,145.887,1.9,144.627 M48.368,52.179l0,0.001l3.527,3.527c0.11,0.11,0.229,0.204,0.356,0.283
		c-0.126-0.079-0.245-0.173-0.355-0.283L48.368,52.179 M36.098,50.292l-4.704,4.704c-0.391,0.391-0.902,0.586-1.414,0.586
		c-0.512,0-1.023-0.195-1.414-0.586c0,0,0,0,0,0c0.39,0.391,0.902,0.586,1.414,0.586c0.512,0,1.024-0.195,1.414-0.586l4.703-4.703
		L36.098,50.292 M59.414,40.558C59.776,40.92,60,41.42,60,41.972c0,1.07-0.84,1.944-1.897,1.997C59.16,43.916,60,43.042,60,41.972
		C60,41.42,59.776,40.92,59.414,40.558 M30.68,29.662c-0.512,0-1.023,0.195-1.414,0.586c-0.781,0.781-0.781,2.047,0,2.828
		l6.896,6.896h0.001l-6.896-6.896c-0.781-0.781-0.781-2.047,0-2.828C29.657,29.858,30.168,29.662,30.68,29.662
		C30.68,29.662,30.68,29.662,30.68,29.662 M52.61,28.952C52.61,28.952,52.61,28.952,52.61,28.952c0.511,0,1.023,0.195,1.414,0.586
		c0.781,0.781,0.781,2.047,0,2.828l-7.606,7.606h0.001l7.605-7.606c0.781-0.781,0.781-2.047,0-2.828
		C53.634,29.148,53.122,28.952,52.61,28.952 M43.413,25.567c0.346,0.35,0.563,0.826,0.577,1.354
		C43.976,26.393,43.758,25.916,43.413,25.567 M43.404,25.558c0.002,0.002,0.004,0.004,0.006,0.006
		C43.408,25.562,43.406,25.56,43.404,25.558 M43.396,25.55c0.001,0.001,0.001,0.001,0.002,0.002
		C43.397,25.551,43.396,25.55,43.396,25.55"/>
	<path class="st42" d="M48,62.972c-2.757,0-5,2.243-5,5c0,2.429,1.741,4.459,4.041,4.908l2.511-6.262l-1.378-3.643
		C48.118,62.973,48.06,62.972,48,62.972"/>
	<path class="st42" d="M33,104.972c-2.757,0-5,2.243-5,5c0,1.824,0.982,3.423,2.445,4.297l3.677-9.17
		C33.761,105.016,33.385,104.972,33,104.972"/>
	<path class="st42" d="M30,78.972c-0.394,0-0.778,0.043-1.144,0.13l-3.048,7.603c0.919,1.414,2.471,2.268,4.193,2.268
		c2.757,0,5-2.243,5-5C35,81.216,32.756,78.972,30,78.972"/>
	<path class="st43" d="M41.745,46.958L30.506,74.986C35.234,75.25,39,79.179,39,83.972c0,4.963-4.037,9-9,9
		c-2.168,0-4.234-0.795-5.84-2.16L5.82,136.549c1.719-0.545,4.013-1.098,7.092-1.615c-0.597-1.217-0.912-2.566-0.912-3.962
		c0-4.963,4.037-9,9-9c2.105,0,4.043,0.726,5.578,1.941l2.369-5.907c-2.932-1.485-4.946-4.529-4.946-8.034c0-4.963,4.037-9,9-9
		c0.911,0,1.791,0.136,2.621,0.389l9.917-24.731C41.768,75.556,39,72.081,39,67.972c0-4.52,3.349-8.273,7.696-8.906l-4.575-12.098
		c-0.043,0.003-0.087,0.004-0.131,0.004C41.907,46.972,41.825,46.967,41.745,46.958"/>
	<path class="st44" d="M20.968,137.903c-1.526,0.154-3.002,0.326-4.418,0.515l-0.186,0.035c-8.062,1.117-10.996,2.416-11.992,3.035
		c1.818,1.163,8.021,2.801,18.527,3.741c-1.983-1.044-2.898-2.271-2.898-3.758c0-0.142,0.01-0.283,0.03-0.425
		c-0.063-0.361-0.027-0.738,0.113-1.089L20.968,137.903"/>
	<path class="st42" d="M21,125.972c-2.757,0-5,2.243-5,5c0,1.239,0.446,2.409,1.261,3.322c1.721-0.213,3.52-0.403,5.381-0.567
		l2.324-5.795C24.051,126.741,22.614,125.972,21,125.972"/>
	<g>
		<path class="st45" d="M59.414,40.558c-0.362-0.362-0.862-0.586-1.414-0.586H46.418l0,0h-0.001l7.606-7.606
			c0.781-0.781,0.781-2.047,0-2.828c-0.391-0.391-0.902-0.586-1.414-0.586c-0.512,0-1.023,0.195-1.414,0.586l-7.206,7.206v0v-9.772
			c0-0.013,0-0.026,0-0.039c0-0.004,0-0.009,0-0.013c-0.014-0.527-0.231-1.004-0.577-1.354c-0.001-0.001-0.001-0.001-0.002-0.002
			c-0.002-0.002-0.004-0.004-0.006-0.006c-0.002-0.002-0.004-0.004-0.006-0.006c-0.001-0.001-0.001-0.001-0.002-0.002
			c-0.361-0.357-0.858-0.577-1.406-0.577c-1.104,0-2,0.895-2,2v11.172v0l-7.896-7.896c-0.391-0.391-0.902-0.586-1.414-0.586
			c-0.512,0-1.023,0.195-1.414,0.586c-0.781,0.781-0.781,2.047,0,2.828l6.896,6.896h-0.001l0,0H26c-1.104,0-2,0.895-2,2s0.895,2,2,2
			h10.762h0l-8.196,8.196c-0.781,0.781-0.781,2.047,0,2.828c0.391,0.391,0.902,0.586,1.414,0.586c0.511,0,1.023-0.195,1.414-0.586
			l4.704-4.704l0,0.001l0.001-0.001L0.143,139.959c-0.14,0.35-0.176,0.726-0.114,1.087c0,0.001,0,0.001,0,0.002
			C0.01,141.189,0,141.331,0,141.472c0,1.21,0.606,2.248,1.9,3.155c1.797,1.259,4.921,2.267,9.591,3.133
			c0.516,0.096,1.049,0.189,1.603,0.282c0.438,0.073,0.884,0.144,1.338,0.213c6.842,1.041,15.501,1.64,24.722,1.711
			c0.001,0,0.002,0,0.002,0c0.143,0.001,0.286,0.002,0.429,0.003c0.47,0.003,0.941,0.004,1.414,0.004c0,0,0,0,0.001,0
			c0.048,0,0.097,0,0.145,0c0.013,0,0.026,0,0.039,0c0.037,0,0.074,0,0.111,0c0.013,0,0.026,0,0.04,0
			c3.303-0.005,6.542-0.078,9.664-0.214c-6.705-0.292-12.863-0.876-17.906-1.717c-4.74-0.79-8.077-1.696-10.195-2.811
			c-10.506-0.94-16.708-2.578-18.527-3.741c0.996-0.619,3.93-1.918,11.992-3.035l0.186-0.035c1.416-0.189,2.892-0.361,4.418-0.515
			l1.675-4.177c-1.862,0.165-3.66,0.354-5.381,0.567c-0.815-0.913-1.261-2.083-1.261-3.322c0-2.757,2.243-5,5-5
			c1.614,0,3.052,0.769,3.966,1.959l1.611-4.018c-1.535-1.215-3.473-1.941-5.578-1.941c-4.963,0-9,4.037-9,9
			c0,1.396,0.316,2.744,0.912,3.962c-3.078,0.517-5.373,1.07-7.092,1.615l18.34-45.737c1.606,1.365,3.672,2.16,5.84,2.16
			c4.963,0,9-4.037,9-9c0-4.793-3.766-8.723-8.494-8.986l11.239-28.029c0.08,0.01,0.162,0.015,0.245,0.015
			c0.044,0,0.088-0.001,0.131-0.004l4.575,12.098C42.349,59.7,39,63.452,39,67.972c0,4.109,2.768,7.584,6.538,8.658l1.504-3.75
			C44.741,72.432,43,70.401,43,67.972c0-2.757,2.243-5,5-5c0.06,0,0.118,0.001,0.174,0.002l1.378,3.643l2.201-5.489l-3.385-8.95l0,0
			l0-0.001l3.528,3.528c0.11,0.11,0.229,0.204,0.355,0.283c0.323,0.202,0.69,0.302,1.058,0.302c0.512,0,1.024-0.195,1.414-0.586
			c0.781-0.781,0.781-2.047,0-2.828l-8.906-8.906l-1.7-1.7l1.7,1.7H58c0.035,0,0.069-0.001,0.103-0.003
			C59.16,43.916,60,43.042,60,41.972C60,41.42,59.776,40.92,59.414,40.558z M35,83.972c0,2.757-2.243,5-5,5
			c-1.721,0-3.274-0.854-4.193-2.268l3.048-7.603c0.367-0.086,0.751-0.13,1.144-0.13C32.756,78.972,35,81.216,35,83.972z"/>
		<path class="st45" d="M33,104.972c0.385,0,0.761,0.044,1.122,0.127l1.499-3.738c-0.83-0.253-1.709-0.389-2.621-0.389
			c-4.963,0-9,4.037-9,9c0,3.506,2.014,6.549,4.946,8.034l1.499-3.738c-1.463-0.873-2.445-2.473-2.445-4.297
			C28,107.215,30.243,104.972,33,104.972z"/>
	</g>
</g>
</svg>
